<?xml version="1.0" encoding="utf-8"?>
<svg xmlns="http://www.w3.org/2000/svg" width="40" height="40" viewBox="0 0 40 40" fill="none">
<g id="Protein">
<path id="Union" fill-rule="evenodd" clip-rule="evenodd" d="M27.9809 18.6032H26.7154C27.0108 16.6227 26.7696 14.7241 26.2427 13.5386C25.3908 11.6304 24.7556 10.922 23.1651 10.0787C21.9439 9.43299 20.6735 9.25951 20.0678 9.21614C19.4326 9.11013 18.758 9.17277 18.108 9.42335C16.7785 9.93415 14.4543 11.2931 13.7994 14.6903C13.5926 15.7649 13.6172 16.9022 13.8487 18.0635C13.7059 17.8997 13.5631 17.7358 13.435 17.5575C13.3162 17.3889 13.2244 17.1955 13.1323 17.0015C12.9613 16.641 12.7893 16.2784 12.4404 16.0685C12.2582 15.9577 12.0612 15.9191 11.8544 15.9143L10.8105 13.9531C11.0518 13.5627 11.7559 12.2713 10.9139 11.5147C10.5643 11.2015 10.0866 11.0907 9.64348 11.2208C9.34311 11.3075 8.82607 11.5726 8.5454 12.3821C8.21056 12.3002 7.57535 12.2086 7.12725 12.5315C6.78256 12.7821 6.62992 13.2158 6.67423 13.8133C6.67423 13.8422 6.72347 14.565 7.31929 14.9602C7.74277 15.2397 8.31397 15.2831 9.02796 15.0807L9.99309 16.8299C9.75673 17.1383 9.65333 17.5142 9.75673 17.9623C9.8172 18.2079 9.91851 18.4408 10.0196 18.6732C10.0832 18.8193 10.1467 18.9652 10.1999 19.114C10.4806 19.9332 10.5544 20.8199 10.5938 21.6776C10.6332 22.5161 10.6185 23.3546 10.5692 24.1882C10.52 25.0267 10.4855 25.8315 10.6874 26.6555C11.1207 28.3999 12.5093 29.754 14.2525 30.2455C15.5475 30.6069 16.9607 30.5154 18.1277 29.8311C18.497 29.6143 18.822 29.3444 19.1027 29.036C20.186 30.1684 21.811 30.8334 23.3768 30.8334C24.7211 30.8334 26.0457 30.3564 27.1241 29.4745C27.976 28.6939 28.8328 28.2216 29.6797 28.0626C31.866 27.5566 33.3334 26.2314 33.3334 24.7665V22.1065C33.2694 19.6826 30.1574 18.5936 27.9661 18.5936L27.9809 18.6032ZM9.06243 14.6229C8.40752 14.8349 7.90526 14.8349 7.57042 14.6084C7.15187 14.3337 7.11248 13.7989 7.11248 13.7892C7.08294 13.3459 7.17157 13.0423 7.38823 12.8833C7.74277 12.6231 8.39275 12.7773 8.61434 12.8544C8.67343 12.8736 8.73744 12.8736 8.7916 12.8447C8.84577 12.8158 8.88516 12.7676 8.90486 12.7098C9.05751 12.1364 9.3628 11.7557 9.76658 11.64C10.062 11.5533 10.3821 11.6256 10.6185 11.8376C11.3098 12.4566 10.3947 13.7972 10.3773 13.8227L10.3772 13.8229C10.3329 13.8904 10.3279 13.9723 10.3624 14.0446L11.3915 15.977C11.0961 16.0541 10.8105 16.189 10.5741 16.3287C10.4806 16.3866 10.3969 16.4492 10.3132 16.5119L9.32833 14.7241C9.27909 14.6325 9.16584 14.5891 9.06243 14.6229ZM20.2106 19.4369C19.6197 19.7983 19.1175 20.2609 18.7285 20.7958C18.7039 20.0874 18.6497 18.661 18.6005 17.4563C18.827 17.6925 19.1273 17.8418 19.4523 17.8418C19.7576 17.8418 20.0383 17.7117 20.2599 17.5045C20.2303 18.0057 20.2008 18.6514 20.1811 19.326C20.1811 19.3646 20.1909 19.4031 20.2106 19.4369ZM16.6013 20.2175C15.9365 19.8609 15.3111 19.4272 14.7399 18.9357L18.1327 16.8058C18.1917 18.2274 18.2755 20.3766 18.3001 21.0464C18.2804 21.0849 18.2607 21.1235 18.241 21.1572C17.7916 20.8472 17.3124 20.5919 16.8228 20.331C16.7492 20.2918 16.6753 20.2524 16.6013 20.2127V20.2175ZM19.7379 11.8135C19.7428 10.5623 19.7331 9.93111 19.7088 9.60198C19.8646 9.61183 20.0203 9.63576 20.1712 9.66911C22.3625 10.1703 23.7117 12.5267 24.2435 14.6421L19.7379 11.8135ZM20.7474 16.7239L23.7855 18.6032H23.2193C22.2788 18.6032 21.3924 18.8249 20.6243 19.2056C20.6564 18.1869 20.7141 17.2559 20.7418 16.8098L20.7418 16.8096L20.7474 16.7191V16.7239ZM20.7474 16.2131C20.6981 15.6493 20.4421 14.9168 19.6936 14.8012C19.7084 13.8085 19.7182 12.9941 19.7231 12.3243L24.3617 15.2349C24.4355 15.63 24.4798 16.0107 24.4897 16.3576C24.5094 16.9552 24.4552 17.6732 24.337 18.4346L20.7474 16.2131ZM14.2278 14.7723C14.8433 11.5822 17.0247 10.3052 18.2656 9.82813C18.5955 9.70285 18.9304 9.63056 19.2652 9.60647C19.2849 9.95342 19.2849 10.7919 19.28 11.8039L14.1983 14.9939C14.2016 14.9698 14.2043 14.9457 14.207 14.9216C14.2125 14.8735 14.218 14.8253 14.2278 14.7771V14.7723ZM14.1244 15.5481L19.28 12.3147C19.2751 13.1242 19.2652 13.9964 19.2554 14.806C18.9993 14.8494 18.7629 14.965 18.566 15.1529C18.2656 15.4421 18.1031 15.8613 18.113 16.3046L14.4149 18.6225L14.3866 18.5081L14.3866 18.508C14.3669 18.4287 14.3479 18.3523 14.3312 18.2804C14.1146 17.3455 14.0456 16.4299 14.1244 15.5529V15.5481ZM32.9001 24.7713C32.9001 26.0339 31.5657 27.1904 29.596 27.6482C28.6752 27.8168 27.7396 28.3276 26.8385 29.1565C25.8488 29.9612 24.6226 30.4045 23.3818 30.4045C20.9246 30.4045 18.2902 28.6408 18.2902 26.0194V23.4221C18.2902 21.003 20.5012 19.0369 23.2143 19.0369H27.971C30.3002 19.0369 32.8459 20.2175 32.8952 22.1258V24.781L32.9001 24.7713ZM10.377 12.4212C10.3917 12.3007 10.308 12.1947 10.1849 12.1802C10.0618 12.1706 9.95349 12.2525 9.93872 12.3681C9.92394 12.4742 9.86486 12.8163 9.7516 12.985C9.68759 13.0862 9.71713 13.2163 9.81561 13.2837C9.85008 13.3078 9.8944 13.3175 9.93379 13.3175C10.0077 13.3175 10.0766 13.2837 10.1209 13.2163C10.3031 12.9368 10.3671 12.4742 10.372 12.4212H10.377ZM23.3767 19.7683L27.8182 19.7201L27.8133 19.7153C29.5712 19.7153 32.048 20.573 32.048 22.2403C32.048 23.2523 30.8613 24.2112 29.2068 24.616C28.2762 24.8184 27.3997 25.3244 26.5232 26.1339C25.7501 26.8423 24.6668 27.2471 23.5293 27.2471C21.1559 27.2471 19.1419 25.5798 19.1419 23.5077C19.1419 21.4356 21.0525 19.7683 23.3767 19.7683ZM20.8358 24.4136L22.4608 21.132C22.5199 21.0115 22.4657 20.8621 22.3426 20.8043C22.2195 20.7465 22.0669 20.7995 22.0078 20.92L20.3828 24.2016C20.3237 24.3221 20.3779 24.4714 20.501 24.5293C20.5355 24.5437 20.5748 24.5534 20.6093 24.5534C20.7029 24.5534 20.7915 24.5003 20.8358 24.4136ZM22.7365 25.7918C22.8301 25.7918 22.9187 25.7388 22.963 25.6521L25.2774 20.9778C25.3365 20.8573 25.2823 20.7079 25.1592 20.6501C25.0361 20.5923 24.8835 20.6453 24.8244 20.7658L22.51 25.44C22.4509 25.5605 22.5051 25.7099 22.6282 25.7677C22.6627 25.7822 22.7021 25.7918 22.7365 25.7918ZM25.7452 25.4978L28.0546 20.838C28.1137 20.7176 28.0595 20.5682 27.9364 20.5104C27.8133 20.4525 27.6607 20.5055 27.6016 20.626L25.2922 25.2858C25.2331 25.4063 25.2872 25.5557 25.4103 25.6135C25.4448 25.628 25.4842 25.6376 25.5187 25.6376C25.6122 25.6376 25.7009 25.5846 25.7452 25.4978ZM29.3201 23.5992L30.3591 21.4982C30.4182 21.3777 30.364 21.2284 30.2409 21.1705C30.1178 21.1127 29.9651 21.1657 29.9061 21.2862L28.8671 23.3872C28.808 23.5077 28.8621 23.6571 28.9852 23.7149C29.0197 23.7293 29.0591 23.739 29.0936 23.739C29.1871 23.739 29.2758 23.686 29.3201 23.5992Z" fill="#4D4D4F"/>
</g>
</svg>