<?xml version="1.0" encoding="utf-8"?>
<svg xmlns="http://www.w3.org/2000/svg" width="40" height="40" viewBox="0 0 40 40" fill="none">
<g id="Mediterranean Diet">
<path id="Union" fill-rule="evenodd" clip-rule="evenodd" d="M33.3159 24.9558C33.2847 24.9026 33.2328 24.8601 33.1704 24.8441L33.1576 24.841C33.0202 24.8077 32.0362 24.5691 30.7654 24.4823C31.3154 22.6475 31.0517 21.5257 31.0267 21.4193L31.0251 21.4125C30.994 21.3008 30.8953 21.2316 30.7862 21.237C30.7031 21.2423 28.885 21.3913 27.5864 22.4713V22.4659C27.5604 22.1787 27.5137 21.886 27.4566 21.5987C27.3527 21.0827 27.2124 20.5772 27.015 20.0771C27.2747 19.8111 28.0799 18.896 28.2149 17.7203C28.3032 16.9275 28.3032 16.8903 28.2773 16.3955V16.3955V16.3955C28.2617 16.0762 28.2357 15.5442 28.2149 14.4376C28.1692 11.4689 25.539 10.8475 25.4048 10.8158L25.3996 10.8145C25.3372 10.7986 24.0074 10.5006 22.8906 11.2774C22.9582 10.4049 23.088 9.77176 23.0932 9.7558C23.1088 9.68664 23.0932 9.61215 23.0465 9.55363C22.9997 9.49511 22.9374 9.46318 22.8647 9.46318H21.779V8.80347C21.779 8.08523 21.2076 7.5 20.5064 7.5H18.8182C18.117 7.5 17.5456 8.08523 17.5456 8.80347V9.46318H15.6548C15.5509 9.46318 15.4574 9.53235 15.4314 9.63343C15.4055 9.73452 15.4418 9.84624 15.5301 9.89945L15.5317 9.9005C15.5873 9.93735 16.9784 10.8593 17.2651 12.4425C17.4573 13.4906 17.13 14.6079 16.2885 15.7624L15.9613 16.2093L15.924 16.2603C15.8756 16.3267 15.8292 16.3904 15.7795 16.454C14.9899 17.534 14.2419 18.5609 13.6601 19.6196C12.1 18.499 10.367 18.036 10.2096 17.994L10.2007 17.9916C10.1331 17.9756 10.0604 17.9916 10.0033 18.0342C9.94613 18.0767 9.91496 18.1459 9.91496 18.2204C9.91496 18.3161 9.92535 20.4442 10.8032 22.583C8.4813 22.1414 6.92297 22.5351 6.83986 22.5564C6.72039 22.5883 6.64247 22.716 6.67364 22.8384L6.67664 22.8509C6.73546 23.0978 7.43083 26.0162 9.2293 27.5096C9.22689 27.5317 9.22338 27.5539 9.21979 27.5765C9.21561 27.6029 9.21131 27.6299 9.20852 27.6585C9.11502 29.1855 10.6474 30.5315 12.6265 30.6539L12.6413 30.6547C12.7346 30.6597 12.8234 30.6645 12.9121 30.6645C13.5199 30.6645 14.1121 30.5368 14.6315 30.308C14.6731 30.9252 14.8964 31.4838 15.3172 31.8935C15.7431 32.3032 16.3041 32.5 16.9067 32.5C17.8572 32.5 18.9221 32.0159 19.748 31.1167C20.1792 30.6432 20.496 30.1112 20.6882 29.5738H23.7529C23.8672 29.925 24.0594 30.2336 24.3191 30.4836C24.7451 30.8933 25.3061 31.0901 25.9086 31.0901C26.8592 31.0901 27.9189 30.6113 28.7448 29.7122C32.3809 28.563 33.2899 25.2644 33.3263 25.1261C33.3418 25.0622 33.3314 24.9984 33.3003 24.9452L33.3159 24.9558ZM30.3031 24.4185V24.4664C29.6486 24.4451 28.9422 24.477 28.2461 24.5994C28.2385 24.5994 28.2337 24.6022 28.2276 24.6059C28.2253 24.6072 28.2229 24.6086 28.2201 24.61C28.002 24.5621 27.7734 24.5409 27.5397 24.5515C27.5397 24.5294 27.5447 24.5047 27.5495 24.481L27.5495 24.4809C27.5516 24.4704 27.5537 24.4602 27.5552 24.4504C27.6124 23.9982 27.6384 23.5406 27.628 23.0884C28.5785 22.1148 30.0745 21.8222 30.62 21.7477C30.6719 22.1361 30.729 23.0778 30.3135 24.4238L30.3031 24.4185ZM16.5794 19.1674C16.5794 19.1674 15.2652 20.6783 14.6003 23.0459C14.5692 23.1629 14.4653 23.2374 14.351 23.2374C14.3302 23.2374 14.3043 23.2374 14.2783 23.2267C14.138 23.1842 14.0601 23.0405 14.1017 22.8969C14.7977 20.4017 16.1379 18.8694 16.195 18.8056C16.2937 18.6992 16.4547 18.6885 16.5638 18.7843C16.6729 18.8854 16.6781 19.0503 16.5846 19.1621L16.5794 19.1674ZM25.5934 17.605L25.5933 17.6049C25.5463 17.5436 25.4967 17.4791 25.4463 17.4117C25.3113 17.2361 25.171 17.0552 25.0204 16.869L25.01 16.8584C24.9113 16.736 24.8126 16.619 24.7087 16.4966C24.6983 16.486 24.6931 16.4806 24.6879 16.47C24.4126 16.1455 24.1321 15.8209 23.862 15.5549C23.4568 15.1559 23.1867 14.709 23.0621 14.2355C23.0049 14.0173 22.9634 13.7939 22.9322 13.5651C23.4361 12.4319 24.6931 12.5117 24.7762 12.517L24.7801 12.517C24.8843 12.516 26.3315 12.5019 26.4696 14.9271L26.5112 15.6666C26.5458 16.2554 26.5475 16.6633 26.5164 16.8903C26.5125 16.9256 26.5073 16.9646 26.5014 17.0082L26.5014 17.0082L26.5014 17.0083C26.4913 17.083 26.4794 17.1713 26.4696 17.2787C26.4125 17.7947 26.2307 18.1299 26.1008 18.3161C25.9969 18.1565 25.8878 17.9916 25.7684 17.8373C25.7174 17.7666 25.6577 17.6889 25.5934 17.605ZM25.3009 11.288C25.3996 11.3093 27.7111 11.8094 27.7526 14.4483C27.7666 15.4518 27.7932 15.9875 27.8098 16.3213V16.3213L27.815 16.4274C27.8409 16.8903 27.8409 16.9222 27.7578 17.6724C27.6591 18.5396 27.1137 19.2685 26.8176 19.609C26.6826 19.3163 26.5319 19.029 26.3657 18.7418C26.5423 18.5396 26.854 18.082 26.9371 17.3319L26.9423 17.2909L26.9423 17.2905C26.9605 17.1462 26.9744 17.0364 26.9839 16.9488C27.0358 16.5604 27.0358 16.5392 26.9839 15.6294L26.9423 14.8899C26.88 13.8152 26.5735 13.0171 26.0333 12.5277C25.4411 11.9903 24.7814 12.0276 24.7918 12.0329C24.3347 11.9903 23.462 12.1286 22.8699 12.7937C22.8543 12.5223 22.8543 12.2351 22.8647 11.9318V11.9212C23.8375 10.9667 25.2443 11.2684 25.3093 11.2823L25.3113 11.2827L25.3009 11.288ZM18.0131 8.81943C18.0131 8.36189 18.3767 7.99479 18.8182 7.99479H20.5064C20.9531 7.99479 21.3115 8.36721 21.3115 8.81943V9.47914H18.0131V8.81943ZM17.7274 12.3681C17.5196 11.2348 16.8339 10.4155 16.3353 9.95265H22.5842C22.5011 10.4474 22.3556 11.5062 22.392 12.6447V12.7564C22.4024 12.9639 22.418 13.1767 22.4387 13.3842C22.4387 13.4215 22.4387 13.4587 22.4491 13.496C22.4491 13.496 22.4491 13.5066 22.4543 13.5119C22.4907 13.7992 22.5374 14.0812 22.605 14.3525C22.7504 14.9112 23.0621 15.4325 23.5296 15.8954C23.6777 16.0367 23.8259 16.1986 23.979 16.3659L23.9867 16.3742H16.434L16.6625 16.0603C17.5871 14.7941 17.9404 13.5545 17.7222 12.3627L17.7274 12.3681ZM11.3642 22.7107C10.6162 21.0401 10.4396 19.2685 10.4032 18.5609C10.9798 18.7418 12.2888 19.2153 13.4524 20.0612C12.9797 21.0029 12.6576 21.9818 12.5537 23.0671C12.1434 22.9288 11.7486 22.8171 11.3694 22.7266V22.716L11.3642 22.7107ZM7.19828 22.9927C7.86316 22.8756 9.91496 22.6415 12.5226 23.5513C12.507 24.0514 12.5433 24.5834 12.6316 25.1367C11.8109 25.1421 11.0318 25.3549 10.4136 25.7645C9.90977 26.0997 9.55135 26.536 9.36435 27.0201C8.04497 25.8071 7.38527 23.6949 7.19308 22.9927H7.19828ZM12.668 30.2016C10.9487 30.0952 9.61368 28.978 9.68641 27.7117C9.72277 27.1106 10.0708 26.5626 10.6682 26.1689C11.2863 25.7592 12.0966 25.557 12.9381 25.6156C14.2731 25.7007 15.4159 26.4136 15.7847 27.3659C15.1198 28.1054 14.7354 28.978 14.6523 29.8026C14.0757 30.1006 13.3796 30.2495 12.6628 30.2016H12.668ZM19.426 30.8082C18.2468 32.0957 16.5534 32.4308 15.6496 31.569C14.7458 30.7017 14.9691 28.9514 16.1483 27.6639C16.1864 27.6213 16.2291 27.5835 16.2718 27.5456C16.2931 27.5267 16.3145 27.5078 16.3353 27.4883C16.3431 27.4803 16.3509 27.4737 16.3586 27.467C16.3664 27.4604 16.3742 27.4537 16.382 27.4457C16.41 27.4201 16.4376 27.394 16.4651 27.368L16.4652 27.3678L16.4653 27.3678C16.5347 27.3022 16.6037 27.2368 16.6781 27.1797C16.6885 27.1717 16.6989 27.1651 16.7093 27.1584C16.7197 27.1518 16.7301 27.1451 16.7404 27.1372C17.8417 26.3125 19.1766 26.1848 19.9246 26.9031V26.9084C20.0233 27.0042 20.1012 27.1106 20.1688 27.2223C20.1792 27.2382 20.1882 27.2529 20.1973 27.2675C20.2064 27.2821 20.2155 27.2968 20.2259 27.3127C20.2882 27.4245 20.335 27.5362 20.3713 27.6585C20.3791 27.6825 20.3843 27.7064 20.3895 27.7304C20.3947 27.7543 20.3999 27.7782 20.4077 27.8022C20.4285 27.8873 20.4389 27.9724 20.4493 28.0629C20.4509 28.0816 20.4531 28.1008 20.4553 28.1202C20.46 28.1616 20.4648 28.2039 20.4648 28.2438C20.4648 28.3608 20.4648 28.4779 20.4545 28.6002C20.4545 28.6251 20.4498 28.6499 20.4452 28.6747C20.4429 28.6871 20.4406 28.6995 20.4389 28.712L20.4375 28.725C20.4327 28.7694 20.4276 28.8174 20.4181 28.8609L20.4181 28.8609C20.4077 28.9141 20.3973 28.9673 20.3817 29.0205C20.361 29.1057 20.3402 29.1908 20.3142 29.2812V29.2919C20.148 29.8133 19.8467 30.34 19.4208 30.8082H19.426ZM24.6516 30.1538C24.4178 29.9303 24.262 29.6324 24.1737 29.2972V29.2919C24.1217 29.0791 24.1009 28.8556 24.1113 28.6268V28.5151C24.1165 28.4193 24.1321 28.3236 24.1477 28.2278C24.1564 28.1697 24.1688 28.1153 24.1818 28.0583L24.1893 28.0256C24.21 27.9246 24.236 27.8235 24.2672 27.7277C24.3087 27.6 24.3555 27.4723 24.4178 27.3446C24.4334 27.3127 24.449 27.2861 24.4646 27.2595C24.4749 27.2383 24.4866 27.2157 24.4983 27.193C24.51 27.1704 24.5217 27.1478 24.5321 27.1265C24.5399 27.1129 24.5477 27.0991 24.5556 27.0853C24.5617 27.0745 24.5679 27.0637 24.574 27.0528C24.6123 26.9851 24.6513 26.916 24.6931 26.8499L24.6931 26.8498C24.7295 26.7913 24.7658 26.7328 24.8074 26.6743C24.9113 26.5306 25.0152 26.3923 25.1398 26.254C25.1398 26.254 25.145 26.2434 25.1502 26.2434L25.1554 26.238C25.2905 26.0944 25.4307 25.9614 25.5762 25.839C25.5969 25.823 25.6125 25.8071 25.6281 25.7911C25.758 25.6847 25.8982 25.5943 26.0333 25.5092C26.0541 25.4958 26.0735 25.4839 26.093 25.4719C26.1125 25.4599 26.132 25.448 26.1527 25.4347C26.2774 25.3602 26.4073 25.3017 26.5319 25.2485C26.5578 25.2379 26.585 25.2273 26.6122 25.2167L26.6125 25.2165L26.6126 25.2165C26.6399 25.2058 26.6671 25.1952 26.693 25.1846C26.8124 25.1421 26.9371 25.1048 27.0566 25.0782C27.1137 25.0622 27.1761 25.0516 27.2332 25.0463C27.8825 24.9399 28.4902 25.0729 28.9214 25.4826C29.8096 26.3338 29.6018 28.0416 28.4747 29.3238C28.4279 29.3504 28.3967 29.3876 28.376 29.4355C27.202 30.6805 25.5398 31.005 24.6516 30.1484V30.1538ZM29.2954 29.0152C30.1473 27.6426 30.168 26.0305 29.2434 25.1421C29.1759 25.0782 29.1084 25.025 29.0409 24.9718C30.6407 24.8335 32.225 25.1208 32.8172 25.2485C32.5627 25.9454 31.6381 27.9884 29.3006 29.0152H29.2954ZM28.4696 27.3973C28.6566 27.3973 28.8176 27.3334 28.9267 27.2057C29.202 26.8812 29.0358 26.3066 28.5423 25.8703C28.3293 25.6788 28.0852 25.5458 27.8566 25.4979C27.5813 25.4341 27.3424 25.4979 27.1969 25.6682C27.0982 25.7799 27.0567 25.9289 27.0671 26.0991C27.0878 26.397 27.28 26.7322 27.5813 27.0036C27.8774 27.2642 28.1995 27.4026 28.4696 27.4026V27.3973ZM27.545 25.9767C27.545 25.9767 27.5969 25.9448 27.6488 25.9448C27.68 25.9448 27.7112 25.9448 27.7527 25.9555C27.9034 25.9874 28.08 26.0885 28.2358 26.2215C28.5527 26.5035 28.6358 26.8173 28.5786 26.8865C28.5163 26.9557 28.2046 26.9131 27.8878 26.6365C27.654 26.429 27.5398 26.1949 27.5294 26.0565C27.5294 26.0353 27.5294 25.9927 27.545 25.9714V25.9767ZM16.1484 31.058C15.6549 30.6218 15.4887 30.0472 15.764 29.7226C16.0341 29.3981 16.6159 29.4832 17.1094 29.9248C17.4107 30.1961 17.6029 30.5313 17.6236 30.8293C17.634 30.9995 17.5873 31.1485 17.4938 31.2602C17.3847 31.3879 17.2237 31.4517 17.0367 31.4517C16.9691 31.4517 16.9016 31.4464 16.8341 31.4304C16.6055 31.3826 16.3614 31.2496 16.1484 31.058ZM16.938 30.9676C17.0522 30.9942 17.125 30.9782 17.1457 30.9516C17.1613 30.9303 17.1613 30.8878 17.1613 30.8665C17.1509 30.7282 17.0367 30.4941 16.8029 30.2866C16.4861 30.0099 16.1744 29.9674 16.1121 30.0365C16.0549 30.1057 16.138 30.4196 16.4549 30.7016C16.6107 30.8346 16.7873 30.9357 16.938 30.9676Z" fill="#4D4D4F"/>
</g>
</svg>