<?xml version="1.0" encoding="utf-8"?>
<svg xmlns="http://www.w3.org/2000/svg" width="40" height="40" viewBox="0 0 40 40" fill="none">
<g id="Pasta and Bread">
<path id="Union" fill-rule="evenodd" clip-rule="evenodd" d="M24.9477 18.3554C24.5338 18.8618 22.8375 20.4956 18.4368 20.2995L18.4327 20.2873C16.6926 20.1773 16.4632 21.419 16.198 22.8551L16.1955 22.8685C16.1827 22.9345 16.1702 23.0007 16.1576 23.0669L16.1576 23.0669L16.1576 23.067C16.122 23.2552 16.0863 23.444 16.0439 23.6282C16.0439 23.6303 16.0418 23.6323 16.0398 23.6343C16.0377 23.6364 16.0357 23.6384 16.0357 23.6405L16.0332 23.6477C16.0301 23.6563 16.0275 23.6635 16.0275 23.6731V23.6977L16.0111 23.7793C16.0111 23.7834 16.007 23.7875 16.007 23.7875C15.6997 25.0781 15.0646 26.4219 14.0935 27.8065C14.0074 27.929 13.8026 28.0148 13.6018 28.0148H13.528C13.2822 27.9903 13.0937 27.8473 12.9954 27.6104C12.594 26.6591 12.43 26.72 11.8037 26.9526L11.803 26.9528C11.5244 27.059 11.2294 27.0141 10.9753 26.8303C10.7254 26.6506 10.5533 26.3606 10.5615 26.1401C10.5942 25.2515 10.3943 25.2294 9.99028 25.1846L9.98782 25.1843C9.83212 25.168 9.65593 25.1476 9.47564 25.0822C9.20521 24.9842 8.85692 24.7922 8.94297 24.2531C9.09867 23.2851 8.79546 23.1054 8.33245 22.8359L8.18494 22.746C7.84485 22.5418 7.72602 22.2681 7.82026 21.9169C8.06201 21.0143 7.73012 20.6957 7.1155 20.4751C6.89014 20.3894 6.71804 20.1892 6.67707 19.9483C6.63609 19.7155 6.71804 19.4949 6.90653 19.3397C8.01284 18.4248 10.6229 17.7142 13.7329 18.3227C13.9706 18.3676 14.5811 18.4289 14.9949 18.0001C15.0072 17.9878 15.0195 17.9755 15.0359 17.9674C15.376 17.6447 15.5112 17.1342 15.4907 16.787C15.2981 13.6339 16.3512 11.1507 17.4083 10.1786C17.5886 10.0152 17.8181 9.95807 18.0434 10.0316C18.277 10.1092 18.4532 10.3011 18.5065 10.538C18.6458 11.1711 18.9162 11.5428 19.8463 11.4243C20.211 11.3794 20.465 11.5305 20.6248 11.894L20.6945 12.0533C20.8994 12.5475 21.0428 12.8702 22.0221 12.8457C22.5711 12.8212 22.7146 13.201 22.776 13.4828C22.8112 13.6443 22.8101 13.7968 22.8091 13.935C22.809 13.9575 22.8088 13.9797 22.8088 14.0015C22.7965 14.41 22.7924 14.6142 23.6816 14.6959C23.9028 14.7163 24.1692 14.9287 24.3126 15.1982C24.4601 15.4719 24.4642 15.77 24.3249 16.0314C24.0094 16.6155 23.9274 16.7748 24.8207 17.2976C25.0706 17.4446 25.1403 17.6406 25.1566 17.7754C25.1689 17.8939 25.1444 18.0082 25.1034 18.1062V18.1103C25.1034 18.1144 25.1013 18.1185 25.0993 18.1226C25.0972 18.1267 25.0952 18.1307 25.0952 18.1348C25.0911 18.1512 25.087 18.1675 25.0788 18.1798C25.0762 18.1849 25.072 18.1868 25.0683 18.1885C25.066 18.1895 25.0639 18.1905 25.0624 18.192C25.0296 18.2533 24.9927 18.3023 24.9559 18.3431C24.9518 18.3472 24.9477 18.3554 24.9477 18.3554ZM13.5444 27.6553C13.6673 27.6798 13.778 27.6308 13.7985 27.6063H13.7903C14.8474 26.0992 15.4948 24.6493 15.7407 23.2729C15.7571 23.1871 15.7734 23.1013 15.7857 23.0156C15.8103 22.8481 15.8267 22.6766 15.839 22.5091C15.8472 22.4438 15.8513 22.3825 15.8513 22.3172C15.8595 22.1211 15.8595 21.9251 15.8513 21.7331V21.7249V21.7168V21.7004C15.8349 21.2634 15.9046 20.9244 16.0398 20.6344C16.048 20.614 16.0603 20.5936 16.0726 20.5732L16.0873 20.5436L16.0873 20.5435C16.1071 20.5034 16.1274 20.4621 16.1504 20.4261C16.1533 20.4175 16.1582 20.4109 16.1637 20.4035L16.1637 20.4035C16.166 20.4004 16.1685 20.3971 16.1709 20.3935C16.2897 20.2097 16.4372 20.0422 16.6093 19.8788C16.6122 19.8731 16.617 19.8694 16.6211 19.8663L16.6228 19.865L16.6257 19.8625C17.0887 19.3846 17.7238 19.209 18.5147 19.3397C18.5269 19.3438 18.5351 19.3438 18.5474 19.3438H18.5474H18.572C20.3585 19.6787 22.4113 19.258 24.6731 18.1022C24.7428 18.0327 24.8002 17.9184 24.7879 17.8163C24.7797 17.7387 24.7305 17.6733 24.6322 17.6161C23.5463 16.979 23.6037 16.591 23.9971 15.8599C24.0995 15.6679 24.0462 15.4882 23.9848 15.3698C23.8782 15.1737 23.7061 15.0675 23.6406 15.0594C22.5015 14.9532 22.4236 14.5488 22.4359 13.9934C22.44 13.8504 22.4441 13.7034 22.4113 13.5604C22.354 13.2868 22.2556 13.2051 22.0262 13.2133C20.7932 13.2458 20.5691 12.7147 20.3527 12.2018L20.3503 12.1963L20.2848 12.0451C20.1864 11.8328 20.084 11.7674 19.8873 11.7919C18.8834 11.9226 18.3467 11.5591 18.1418 10.6197C18.1172 10.5135 18.0311 10.4196 17.9246 10.3869C17.8591 10.3624 17.7525 10.3583 17.6501 10.4523C16.8183 11.216 15.6546 13.5277 15.8513 16.7707C15.88 17.2281 15.6997 17.8694 15.2449 18.2737C15.2408 18.2757 15.2367 18.2788 15.2326 18.2819L15.2326 18.2819C15.2285 18.2849 15.2244 18.288 15.2203 18.29C14.6794 18.8128 13.946 18.7434 13.651 18.6862C10.4549 18.0613 8.00055 18.9068 7.13189 19.6256C7.02535 19.7155 7.01716 19.8217 7.02945 19.8911C7.04994 20.0014 7.13189 20.0994 7.23432 20.1361C8.13986 20.4629 8.43078 21.0429 8.16855 22.0149C8.11528 22.2069 8.16855 22.3172 8.36932 22.4397L8.51273 22.5255C9.00033 22.8073 9.50022 23.0973 9.30355 24.3144C9.26667 24.5472 9.33632 24.6493 9.59856 24.7432C9.73401 24.7909 9.87721 24.8077 10.0131 24.8236L10.0247 24.8249C10.582 24.8821 10.9712 25.0128 10.9261 26.1564C10.922 26.2218 11.0081 26.4055 11.1884 26.5362C11.2949 26.6138 11.467 26.6914 11.6719 26.6138C11.9382 26.5158 12.1554 26.4505 12.348 26.4505C12.729 26.4505 13.0118 26.7078 13.3355 27.4756C13.3805 27.5777 13.4461 27.639 13.5444 27.6553ZM16.7404 17.1669C16.8387 17.1955 16.8961 17.2935 16.8715 17.3915H16.8674C16.3798 19.209 14.4908 19.6951 14.4089 19.7155C14.3925 19.7196 14.3802 19.7196 14.3638 19.7196H14.3638C14.2819 19.7196 14.2081 19.6624 14.1876 19.5807C14.163 19.4827 14.2245 19.3847 14.3228 19.3602C14.3392 19.3561 16.0848 18.9027 16.515 17.2976C16.5437 17.1996 16.642 17.1383 16.7404 17.1669ZM17.6744 18.5886C17.7727 18.5641 17.8342 18.4661 17.8096 18.3681C17.785 18.27 17.6826 18.2129 17.5883 18.2333C17.5064 18.2537 15.6175 18.7397 15.1299 20.5573C15.1053 20.6553 15.1626 20.7533 15.261 20.7819C15.2774 20.786 15.2938 20.7901 15.3102 20.7901C15.3921 20.7901 15.4659 20.737 15.4863 20.6553C15.9166 19.0501 17.6621 18.5968 17.6785 18.5927L17.6744 18.5886ZM29.9589 22.4931C30.0859 22.3828 30.2703 22.3664 30.4178 22.4481L30.4096 22.4441C32.4255 23.5468 33.5073 25.0784 33.3106 26.5324C33.1467 27.7291 32.1551 28.7339 30.5161 29.3588C29.4098 29.7835 28.0945 30 26.6973 30C26.0704 30 25.4312 29.9551 24.7838 29.8693C22.6899 29.5875 20.7764 28.8727 19.3956 27.8557C17.9861 26.8183 17.2977 25.5849 17.4616 24.3882C17.6009 23.3712 18.3221 22.5012 19.5513 21.8682C19.748 21.7661 19.9938 21.8437 20.1004 22.0356C20.1044 22.0356 20.1085 22.0438 20.1085 22.0438C20.379 21.9294 20.9403 21.713 21.7475 21.5333C21.7352 21.4434 21.7434 21.3495 21.7926 21.2719C21.8582 21.1697 21.9606 21.1003 22.0794 21.0799C22.3335 21.0391 22.5957 21.0023 22.8661 20.9778C22.9809 20.9696 23.0915 21.0023 23.1735 21.0758C23.2267 21.1167 23.2595 21.1779 23.2841 21.2392C24.0749 21.1657 24.796 21.1698 25.5951 21.2474C25.6005 21.2401 25.6043 21.2329 25.608 21.2261C25.6126 21.2174 25.6169 21.2093 25.6237 21.2024C25.7947 20.9955 26.0587 21.0506 26.2349 21.0873L26.2384 21.0881L26.4514 21.1289C26.4801 21.133 26.5088 21.1452 26.5334 21.1657C26.6768 21.28 26.8038 21.3944 26.9308 21.5087C28.0167 21.713 28.8075 21.9744 29.9507 22.5053C29.9548 22.5012 29.9589 22.4931 29.9589 22.4931ZM30.3932 29.0239C31.9011 28.448 32.8107 27.5453 32.9541 26.4875L32.9582 26.4916C33.1385 25.1928 32.1223 23.8041 30.2457 22.7749C30.2293 22.7667 30.2088 22.7667 30.1965 22.779C30.1883 22.7871 30.1883 22.7994 30.1883 22.8076C30.2218 22.9228 30.2566 23.0372 30.2913 23.1509C30.3586 23.3716 30.4252 23.5899 30.4792 23.8082C30.4969 23.8712 30.5068 23.9327 30.5166 23.9936C30.5227 24.0313 30.5288 24.0688 30.5366 24.1064C30.68 24.862 30.6554 25.5685 30.4465 26.1975C30.3727 26.414 30.1965 26.5529 29.9711 26.5692H29.9302C29.9104 26.5692 29.8887 26.5653 29.8677 26.5616C29.8582 26.5599 29.8489 26.5582 29.84 26.5569C29.8312 26.5557 29.8227 26.5548 29.8145 26.554C29.7961 26.5521 29.7792 26.5503 29.7622 26.5447C29.7267 26.5376 29.6974 26.5244 29.6662 26.5104C29.6614 26.5082 29.6565 26.506 29.6515 26.5038C29.6471 26.5021 29.6425 26.5003 29.6377 26.4985C29.6206 26.4919 29.602 26.4848 29.586 26.4753C29.5614 26.4616 29.5405 26.4444 29.5195 26.4272C29.509 26.4185 29.4986 26.4099 29.4876 26.4017C29.4796 26.3953 29.4721 26.3901 29.4651 26.3852C29.4542 26.3777 29.4443 26.3708 29.4344 26.3609C29.3934 26.3201 29.3606 26.2751 29.3319 26.222C29.3278 26.2179 29.3278 26.2139 29.3278 26.2139C29.2974 26.1563 29.2716 26.101 29.2452 26.0445C29.236 26.0249 29.2267 26.0052 29.2172 25.9851C29.0369 25.6176 28.8771 25.2581 28.7296 24.9151C28.5616 24.5189 28.3936 24.1431 28.2092 23.7796C28.201 23.7612 28.1918 23.7439 28.1826 23.7265C28.1734 23.7092 28.1642 23.6918 28.156 23.6734C28.1068 23.5795 28.0535 23.4855 28.0003 23.3957C27.988 23.3732 27.9747 23.3518 27.9613 23.3303C27.948 23.3089 27.9347 23.2875 27.9224 23.265C27.8691 23.1792 27.8118 23.0894 27.7544 23.0036C27.738 22.9811 27.7227 22.9587 27.7073 22.9362C27.6919 22.9137 27.6766 22.8913 27.6602 22.8688C27.5987 22.779 27.5373 22.6932 27.4676 22.6074C27.4451 22.5766 27.4207 22.5477 27.3957 22.5181C27.3842 22.5045 27.3726 22.4908 27.3611 22.4767C27.2873 22.3869 27.2136 22.3011 27.1316 22.2112C27.0906 22.1745 27.0497 22.1336 27.0128 22.0928C26.9902 22.0703 26.968 22.0479 26.9457 22.0254C26.8788 21.958 26.812 21.8906 26.7382 21.8232L26.7283 21.8143C26.6044 21.7027 26.4763 21.5873 26.3326 21.472L26.1523 21.4393C26.1434 21.4377 26.1341 21.436 26.1246 21.4342C26.0373 21.4179 25.9282 21.3976 25.9024 21.4271V21.4516C25.9107 21.4765 25.9183 21.5007 25.9259 21.5245C25.9369 21.5593 25.9476 21.5933 25.9597 21.6272C25.9679 21.6476 25.9761 21.6691 25.9843 21.6905C25.9925 21.7119 26.0007 21.7334 26.0089 21.7538C26.222 22.297 26.3777 22.7545 26.5006 23.1956C26.5662 23.4325 26.6276 23.6775 26.6809 23.9348C26.8284 24.6741 26.8817 25.4746 26.6194 26.267C26.5457 26.4834 26.3654 26.6223 26.1318 26.6386H26.0908C26.0765 26.6386 26.0622 26.6356 26.0478 26.6325C26.0335 26.6294 26.0191 26.6264 26.0048 26.6264C25.9952 26.625 25.9857 26.6241 25.9761 26.6232C25.957 26.6214 25.9379 26.6196 25.9188 26.6141C25.8981 26.609 25.8792 26.6006 25.8597 26.5921C25.8483 26.587 25.8367 26.5819 25.8245 26.5774C25.8137 26.5728 25.8035 26.5687 25.7936 26.5648C25.7773 26.5584 25.762 26.5523 25.7467 26.5447C25.716 26.5256 25.6854 26.4994 25.6581 26.4761L25.6524 26.4712C25.6442 26.463 25.636 26.4569 25.6278 26.4507C25.6196 26.4446 25.6114 26.4385 25.6032 26.4303C25.5623 26.3854 25.5254 26.3364 25.5008 26.2833C25.3205 25.9075 25.132 25.5277 24.9395 25.1479C24.796 24.862 24.6485 24.572 24.4969 24.282C24.4744 24.2391 24.4519 24.1952 24.4293 24.1513C24.4068 24.1074 24.3843 24.0635 24.3617 24.0206L24.306 23.9155C24.1354 23.5938 23.9617 23.2664 23.7881 22.9423C23.7819 22.9321 23.7768 22.9229 23.7717 22.9137C23.7666 22.9046 23.7614 22.8954 23.7553 22.8852C23.5545 22.5094 23.3456 22.1337 23.1366 21.758L23.1366 21.7579C23.1079 21.7068 23.0802 21.6568 23.0526 21.6068C23.0249 21.5567 22.9973 21.5067 22.9686 21.4557C22.9522 21.4311 22.944 21.4026 22.944 21.374L22.8784 21.1493L22.8948 21.3331C22.6326 21.3576 22.3785 21.3903 22.1327 21.4311L22.0221 21.4924C22.0303 21.4965 22.0507 21.5047 22.0507 21.5047L22.0999 21.4883C22.1061 21.5087 22.1122 21.5281 22.1184 21.5475C22.1245 21.5669 22.1306 21.5863 22.1368 21.6068C22.1409 21.6109 22.1409 21.619 22.1409 21.6231C22.2884 22.056 22.4236 22.4931 22.5465 22.9342C22.6613 23.3263 22.7596 23.7143 22.8498 24.1023C22.8559 24.1288 22.8631 24.1554 22.8702 24.1819C22.8774 24.2085 22.8846 24.235 22.8907 24.2616L22.8909 24.2625C22.9483 24.5158 23.0463 24.9482 22.9112 25.3317C22.8866 25.4011 22.8579 25.4664 22.817 25.5318V25.5359C22.7965 25.5685 22.7678 25.6012 22.7391 25.6339L22.7145 25.6584C22.6818 25.687 22.649 25.7156 22.6121 25.7401C22.6039 25.7442 22.5998 25.7483 22.5957 25.7483C22.5588 25.7728 22.522 25.7891 22.4851 25.8013L22.4851 25.8013C22.4769 25.8054 22.4687 25.8095 22.4605 25.8095C22.4195 25.8218 22.3785 25.8299 22.3335 25.8299H22.3253H22.313C22.2638 25.8299 22.2105 25.8218 22.1614 25.8013C22.1573 25.7993 22.1532 25.7962 22.1491 25.7932C22.145 25.7901 22.1409 25.7871 22.1368 25.785C22.1308 25.7816 22.1247 25.7782 22.1184 25.7748C22.0948 25.7617 22.0702 25.7481 22.0507 25.7319C22.0344 25.7156 22.0221 25.7033 22.0098 25.687C22.0036 25.6788 21.9965 25.6717 21.9893 25.6645C21.9821 25.6574 21.9749 25.6502 21.9688 25.6421C21.9551 25.6257 21.9451 25.6094 21.9351 25.593C21.9301 25.5849 21.9251 25.5767 21.9196 25.5685C21.9114 25.5645 21.9073 25.5563 21.9032 25.5481C21.8909 25.5318 21.8827 25.5154 21.8746 25.4991C21.8664 25.4869 21.8582 25.4746 21.8541 25.4623V25.4583C21.8397 25.4297 21.8233 25.4001 21.8069 25.3705C21.7906 25.3408 21.7742 25.3112 21.7598 25.2826C21.6533 25.0784 21.5468 24.8742 21.432 24.67C21.3132 24.4617 21.1862 24.2534 21.0551 24.0451L20.969 23.8981C20.6453 23.3875 20.2929 22.8852 19.9119 22.391C19.875 22.3379 19.8381 22.2888 19.7971 22.2358C19.7767 22.2031 19.7562 22.1908 19.7398 22.1908C19.7377 22.1908 19.7347 22.1918 19.7316 22.1929C19.7285 22.1939 19.7254 22.1949 19.7234 22.1949C18.6089 22.7708 17.9533 23.5468 17.8304 24.4413C17.6869 25.4991 18.3221 26.61 19.6209 27.5658C20.9526 28.546 22.8047 29.2403 24.8411 29.514C26.8776 29.7876 28.8484 29.6161 30.3932 29.0239Z" fill="#4D4D4F"/>
</g>
</svg>