<?xml version="1.0" encoding="utf-8"?>
<svg xmlns="http://www.w3.org/2000/svg" width="41" height="40" viewBox="0 0 41 40" fill="none">
<g id="ever-changing-menu">
<path id="Union" fill-rule="evenodd" clip-rule="evenodd" d="M10.3686 14.327C10.3872 14.3812 10.4232 14.4283 10.4714 14.4616C10.5197 14.495 10.5778 14.5128 10.6374 14.5125H10.7186C10.7557 14.5036 10.7905 14.4875 10.8208 14.4653C10.8512 14.443 10.8765 14.4151 10.8952 14.3832C10.914 14.3513 10.9257 14.316 10.9297 14.2796C10.9337 14.2432 10.9299 14.2064 10.9186 14.1715L10.6061 13.2203C10.4861 12.9816 10.4196 12.7214 10.411 12.4566C10.4024 12.1918 10.4518 11.9282 10.5561 11.6828C10.6696 11.5392 10.8043 11.4122 10.9561 11.3059L11.0935 11.1982C11.7282 10.6672 12.1891 9.97203 12.4208 9.19621C12.6525 8.42039 12.6452 7.59701 12.3996 6.8251C12.371 6.76454 12.3201 6.71624 12.2565 6.6895C12.193 6.66276 12.1213 6.65947 12.0554 6.68026C11.9894 6.70106 11.9339 6.74446 11.8994 6.80213C11.8649 6.85979 11.8538 6.92764 11.8685 6.99261C12.0877 7.66803 12.0975 8.38983 11.8967 9.07048C11.696 9.75114 11.2932 10.3614 10.7373 10.8273L10.6061 10.929C10.4095 11.0681 10.2366 11.2357 10.0937 11.4256C9.63749 12.0836 9.9187 12.9511 10.0937 13.4177L10.3686 14.327ZM33.8281 23.4262C33.8342 23.3946 33.8342 23.3622 33.8281 23.3305V23.2946C33.8152 23.2703 33.7983 23.2481 33.7781 23.2288L33.7031 23.187H33.6656L32.472 22.9955C32.3294 22.2689 32.0105 21.5844 31.5409 20.9974C31.5409 19.8009 31.1035 18.0062 29.0037 16.1158C28.8537 15.9842 28.7163 15.8466 28.585 15.7149C28.6892 15.623 28.766 15.5062 28.8075 15.3765C28.8491 15.2468 28.8539 15.1089 28.8215 14.9768C28.789 14.8448 28.7206 14.7233 28.623 14.6249C28.5255 14.5265 28.4024 14.4547 28.2663 14.4168C28.036 14.3676 27.7948 14.4039 27.5914 14.5185C27.2612 14.0155 26.9709 13.4896 26.7228 12.9451C26.2166 11.8862 25.8166 11.0547 24.4418 10.7914C23.2545 10.5641 22.4796 11.0367 21.6609 11.5392C20.5591 12.352 19.1783 12.7385 17.7927 12.6221C15.9869 12.4785 15.0432 13.7883 14.0435 15.1761L14.0431 15.1765C13.7082 15.666 13.3452 16.1374 12.9558 16.5884L12.9058 16.5525C12.7822 16.49 12.6495 16.4457 12.5121 16.4209C12.344 16.3796 12.1678 16.3796 11.9997 16.4209C11.8484 16.4623 11.7121 16.543 11.606 16.6542C11.5246 16.7403 11.4671 16.8445 11.4387 16.9574C11.4103 17.0703 11.4119 17.1882 11.4435 17.3003C11.489 17.4327 11.5685 17.552 11.6747 17.6473C11.4759 17.7592 11.2667 17.8533 11.0498 17.9284C8.70009 18.766 7.92519 21.464 7.64397 23.0793L7.36276 23.1391C7.32584 23.1501 7.29177 23.1685 7.26277 23.1929C7.22574 23.2117 7.19368 23.2383 7.16903 23.2707V23.3126C7.16501 23.3384 7.16501 23.3646 7.16903 23.3904C7.47952 25.5708 8.4266 27.623 9.90134 29.311C11.3761 30.999 13.3186 32.2542 15.5055 32.9323C16.3702 33.2053 17.2758 33.3408 18.1864 33.3331H22.792C23.7026 33.341 24.6083 33.2056 25.4729 32.9323C27.6585 32.2603 29.6018 31.0119 31.0797 29.3305C32.5576 27.649 33.5102 25.6026 33.8281 23.4262ZM8.2064 23.2647C8.39387 22.0682 9.06254 19.2206 11.2748 18.431C11.5694 18.3193 11.8502 18.1769 12.1121 18.0062H12.1684C12.2314 18.077 12.3077 18.1359 12.3934 18.1797C12.5217 18.2453 12.667 18.2743 12.8121 18.2634C12.9586 18.2566 13.1008 18.2133 13.2245 18.1378C13.3811 18.0407 13.4946 17.8915 13.5432 17.719C13.5651 17.5875 13.558 17.4531 13.5225 17.3243C13.487 17.1956 13.4238 17.0753 13.337 16.9712C13.7625 16.4902 14.1569 15.9847 14.5181 15.4577C15.4492 14.1476 16.2554 13.0229 17.7427 13.1365C19.2442 13.279 20.7475 12.8824 21.9609 12.0238L21.9659 12.0208C22.7446 11.5436 23.3565 11.1687 24.3293 11.3538C25.4167 11.5632 25.7166 12.1794 26.2041 13.2023C26.4648 13.7699 26.7698 14.3178 27.1165 14.8415C27.0651 14.8864 27.0189 14.9366 26.979 14.9911C26.9353 15.061 26.8997 15.1352 26.8727 15.2124C26.8727 15.2435 26.8569 15.2771 26.8407 15.3115L26.8407 15.3116L26.8407 15.3116L26.8407 15.3116L26.8407 15.3116L26.8407 15.3116C26.8319 15.3302 26.8231 15.3491 26.8165 15.368C26.7719 15.5137 26.7675 15.6679 26.8036 15.8157C26.8397 15.9635 26.9152 16.0999 27.0227 16.2115C27.1109 16.2926 27.2187 16.3515 27.3365 16.3828C27.4543 16.4142 27.5784 16.417 27.6976 16.391C27.8734 16.3415 28.0314 16.2462 28.1538 16.1158C28.2851 16.2474 28.4225 16.385 28.5788 16.5166C29.8184 17.501 30.6478 18.8788 30.916 20.3992C30.1164 19.6922 29.095 19.2584 28.011 19.1653C26.9269 19.0723 25.8412 19.3252 24.923 19.8847C24.1463 19.3365 23.2187 19.0185 22.255 18.9701C21.2914 18.9218 20.3341 19.1452 19.5018 19.6127C18.6695 20.0801 17.9988 20.7712 17.5728 21.6C17.1468 22.4289 16.9842 23.3593 17.1053 24.2757C14.1065 24.2309 11.1205 23.8921 8.1939 23.2647H8.2064ZM17.6677 24.2578C17.6686 24.2459 17.6686 24.2339 17.6677 24.2219C17.632 23.672 17.7098 23.1207 17.8966 22.5995C18.0835 22.0784 18.3757 21.5976 18.7567 21.1846C19.1377 20.7715 19.5999 20.4344 20.1169 20.1924C20.634 19.9503 21.1958 19.8082 21.7703 19.774C22.3447 19.7398 22.9206 19.8143 23.465 19.9932C24.0094 20.1721 24.5116 20.4518 24.9431 20.8165C25.3745 21.1812 25.7267 21.6237 25.9795 22.1187C26.2324 22.6137 26.3809 23.1515 26.4166 23.7014V24.0963C26.4153 24.1102 26.4153 24.1242 26.4166 24.1382L25.1167 24.204C25.1868 23.7743 25.1582 23.3351 25.0328 22.9171C24.9075 22.499 24.6884 22.1122 24.3909 21.7835C24.0934 21.4549 23.7246 21.1923 23.3102 21.014C22.8958 20.8358 22.4458 20.7462 21.9915 20.7514C21.5372 20.7567 21.0896 20.8568 20.6799 21.0446C20.2702 21.2325 19.9082 21.5036 19.6191 21.8391C19.33 22.1746 19.1208 22.5665 19.0062 22.9873C18.8915 23.4081 18.874 23.8478 18.955 24.2757L17.6677 24.2578ZM24.5418 24.2279C23.4544 24.2638 22.3733 24.2757 21.2797 24.2877H20.4798H19.6674H19.4862C19.4886 24.2678 19.4886 24.2478 19.4862 24.2279C19.4461 24.055 19.4251 23.8785 19.4237 23.7014C19.4563 23.068 19.7421 22.4708 20.222 22.0335C20.7018 21.5962 21.339 21.3523 22.0015 21.3523C22.664 21.3523 23.3012 21.5962 23.781 22.0335C24.2609 22.4708 24.5467 23.068 24.5793 23.7014C24.5777 23.8581 24.5609 24.0143 24.5293 24.1681C24.537 24.1892 24.5475 24.2093 24.5605 24.2279H24.5418ZM29.3849 28.8343C28.2438 29.9957 26.845 30.8972 25.2917 31.4726H25.198C25.1329 31.471 25.0704 31.4479 25.0211 31.4072C24.9719 31.3664 24.9389 31.3106 24.9278 31.2492C24.9168 31.1878 24.9283 31.1246 24.9605 31.0704C24.9926 31.0162 25.0434 30.9744 25.1042 30.9521C26.5794 30.4054 27.9077 29.5488 28.9912 28.4455C29.0164 28.4176 29.0472 28.3949 29.0819 28.3789C29.1165 28.3629 29.1543 28.3538 29.1927 28.3523C29.2312 28.3508 29.2695 28.3569 29.3054 28.3702C29.3413 28.3834 29.374 28.4036 29.4014 28.4295C29.4289 28.4553 29.4505 28.4863 29.4649 28.5204C29.4793 28.5546 29.4863 28.5912 29.4853 28.628C29.4843 28.6649 29.4755 28.7011 29.4593 28.7346C29.4431 28.768 29.4199 28.7979 29.3912 28.8224L29.3849 28.8343ZM26.9477 24.1082V23.7014C26.9471 22.986 26.7761 22.2802 26.4478 21.6375C26.7811 21.483 27.1461 21.4012 27.5164 21.3982C28.1739 21.4004 28.8057 21.6433 29.2821 22.0771C29.7585 22.5109 30.0435 23.1028 30.0786 23.7313C29.0412 23.9228 27.9914 24.0305 26.9665 24.1023L26.9477 24.1082ZM30.6535 23.6715C30.6041 22.9108 30.2533 22.1968 29.6726 21.6753C29.0919 21.1539 28.3251 20.8643 27.5289 20.8658C27.0626 20.868 26.603 20.9724 26.1853 21.1709C25.9526 20.8207 25.6732 20.5009 25.3542 20.2197C26.2664 19.7174 27.3373 19.5467 28.3703 19.739C29.4033 19.9313 30.3293 20.4736 30.9785 21.2666C31.4991 21.8746 31.8304 22.6106 31.9346 23.3904C31.5409 23.5279 31.091 23.5997 30.6785 23.6655L30.6785 23.6655L30.6535 23.6715ZM17.3492 19.1429C17.6598 19.1429 17.9116 18.9018 17.9116 18.6044C17.9116 18.3071 17.6598 18.066 17.3492 18.066C17.0385 18.066 16.7867 18.3071 16.7867 18.6044C16.7867 18.9018 17.0385 19.1429 17.3492 19.1429ZM12.5621 21.476C12.5621 21.7734 12.3103 22.0144 11.9997 22.0144C11.6891 22.0144 11.4373 21.7734 11.4373 21.476C11.4373 21.1786 11.6891 20.9376 11.9997 20.9376C12.3103 20.9376 12.5621 21.1786 12.5621 21.476ZM25.6854 17.9823C25.9961 17.9823 26.2479 17.7412 26.2479 17.4439C26.2479 17.1465 25.9961 16.9054 25.6854 16.9054C25.3748 16.9054 25.123 17.1465 25.123 17.4439C25.123 17.7412 25.3748 17.9823 25.6854 17.9823ZM21.7481 15.0748C21.7481 15.3722 21.4963 15.6132 21.1857 15.6132C20.8751 15.6132 20.6233 15.3722 20.6233 15.0748C20.6233 14.7775 20.8751 14.5364 21.1857 14.5364C21.4963 14.5364 21.7481 14.7775 21.7481 15.0748ZM12.7633 13.6816C12.7149 13.6471 12.6794 13.5986 12.6619 13.5434C12.5095 13.231 12.4321 12.89 12.4354 12.5453C12.4386 12.2005 12.5224 11.8609 12.6807 11.5512C12.826 11.3613 13.001 11.1939 13.1994 11.0547L13.3243 10.953C13.879 10.4888 14.2814 9.88084 14.4832 9.20255C14.6851 8.52425 14.6776 7.80455 14.4617 7.13024C14.4471 7.06527 14.4581 6.99743 14.4926 6.93976C14.5271 6.8821 14.5827 6.83869 14.6486 6.8179C14.7146 6.79711 14.7862 6.8004 14.8498 6.82713C14.9133 6.85387 14.9643 6.90217 14.9929 6.96273C15.2476 7.74048 15.2597 8.57249 15.0277 9.35673C14.7957 10.141 14.3297 10.8434 13.6868 11.3777L13.5493 11.4854C13.3957 11.5917 13.2589 11.7186 13.1431 11.8623C13.0392 12.1078 12.9899 12.3714 12.9986 12.6361C13.0072 12.9009 13.0734 13.161 13.1931 13.3998C13.2148 13.4672 13.208 13.5401 13.1741 13.6028C13.1402 13.6654 13.0819 13.7128 13.0119 13.7348H12.9306C12.8703 13.7347 12.8117 13.716 12.7633 13.6816Z" fill="black"/>
</g>
</svg>