<?xml version="1.0" encoding="utf-8"?>
<svg xmlns="http://www.w3.org/2000/svg" width="40" height="40" viewBox="0 0 40 40" fill="none">
<g id="Veggies and Salads">
<path id="Union" fill-rule="evenodd" clip-rule="evenodd" d="M19.5404 14.5078C19.5565 14.5156 19.5968 14.5156 19.5968 14.5156H19.6209L19.6266 14.5146C19.717 14.4984 20.6667 14.3286 21.1831 13.5392C21.5495 12.9729 21.6058 12.2425 21.3401 11.3716C20.861 9.78587 20.2088 9.23127 20.1806 9.20783C20.1282 9.16487 20.0517 9.15316 19.9873 9.1844L19.987 9.18454C19.951 9.20201 19.2279 9.55248 18.3608 11.2544C18.3567 11.2583 18.3567 11.2622 18.3567 11.2661C18.0185 12.0785 17.9863 12.7893 18.2682 13.3869C18.6587 14.211 19.5042 14.4961 19.5404 14.5078ZM18.5943 13.2346C18.3608 12.7346 18.393 12.1175 18.6909 11.4028L18.6949 11.3989C19.3069 10.196 19.8303 9.71948 20.0437 9.56325C20.2289 9.77025 20.6597 10.3366 21.0019 11.4653C21.2314 12.2386 21.1952 12.8674 20.8852 13.3439C20.5806 13.8087 20.0785 14.0212 19.7907 14.1095C19.9035 12.8401 20.0762 10.9605 20.0921 10.8526C20.1082 10.7589 20.0397 10.669 19.9431 10.6534C19.8465 10.6378 19.7539 10.7042 19.7378 10.7979C19.7147 10.9396 19.479 13.5538 19.433 14.0737C19.1893 13.9463 18.805 13.6848 18.5943 13.2346ZM11.4719 21.4666C11.4656 21.7724 11.4617 22.0903 11.5802 22.3469C11.5746 22.3685 11.5733 22.3914 11.5765 22.415C11.6479 22.9397 12.0663 24.0391 12.7368 25.1992C12.3092 25.251 11.9654 25.4695 11.5526 25.8175C11.4266 25.9227 11.3123 26.0403 11.21 26.1698C11.1955 26.1579 11.1809 26.1461 11.1662 26.1343C11.0091 26.0015 10.8521 25.8726 10.6911 25.7476C10.4415 25.5484 10.1838 25.3532 9.92209 25.1657C9.70871 25.0134 9.50337 24.8806 9.29401 24.7556C9.19336 24.6931 9.05647 24.615 8.9075 24.5525C8.75049 24.4861 8.62165 24.451 8.48879 24.4314C8.36398 24.4119 8.23917 24.4314 8.14254 24.4783C8.05799 24.5213 7.94928 24.6072 7.9211 24.7907C7.85475 25.1973 8.47902 25.8212 9.98309 26.8283C8.42156 26.4329 7.40442 26.3632 6.95082 26.6193C6.73341 26.7404 6.69315 26.9123 6.67302 26.9982C6.66496 27.0529 6.64081 27.2208 6.79783 27.4083C7.12898 27.7984 8.11526 28.0619 9.73048 28.1919C7.97765 28.6603 7.18034 29.045 7.10368 29.4472C7.06745 29.6268 7.13992 29.744 7.20434 29.8104C7.28083 29.8846 7.39356 29.9432 7.51435 29.9666C7.60292 29.9862 7.6915 29.994 7.79215 29.994L7.78813 29.9979C7.83299 29.9979 7.88133 29.9945 7.93314 29.9909L7.94515 29.9901C8.06996 29.9823 8.20684 29.9588 8.37997 29.9237C8.61751 29.8768 8.86713 29.8143 9.11272 29.7401C9.42673 29.6503 9.73269 29.5448 10.0386 29.4394L10.0387 29.4394L10.6185 29.2285L10.679 29.2059C10.7312 29.3605 10.7983 29.5084 10.8803 29.6489C11.3231 30.4027 11.7137 30.7699 12.7323 30.8128C12.9658 30.8206 13.2033 30.8245 13.4369 30.8245L13.4328 30.8324C14.0569 30.8324 14.689 30.805 15.301 30.7777C15.3909 30.7738 15.4807 30.7694 15.5706 30.7651H15.5706H15.5707H15.5707H15.5707H15.5708C15.7506 30.7564 15.9304 30.7477 16.1102 30.7425C17.2295 30.6996 20.6799 30.4262 21.9642 30.2582L21.9669 30.2578C22.0336 30.2482 22.4139 30.1931 22.652 29.9802H22.8618C28.4155 29.9802 30.517 23.9622 30.7851 22.2973C31.0334 22.1963 31.249 22.0884 31.4299 21.9758C31.659 21.8276 31.7597 21.5549 31.8562 21.2936L31.8566 21.2923L31.8755 21.2433C31.9414 21.0714 32.0077 20.8983 32.1143 20.7806C32.206 20.6806 32.3375 20.5876 32.478 20.4883L32.5008 20.4721L32.5062 20.4683C32.7787 20.2779 33.0852 20.0637 33.1692 19.7222C33.2416 19.4293 33.1209 19.1325 33.0001 18.8473L32.9915 18.8268C32.9102 18.6316 32.835 18.4512 32.835 18.2927C32.8269 17.8358 33.0363 17.3007 33.1651 16.9804C33.3705 16.4649 33.5154 15.8009 32.8068 15.2815C32.1183 14.7738 31.607 14.9573 30.8501 15.3205C30.6964 15.3951 30.539 15.4981 30.3745 15.6058L30.3509 15.6213C30.0892 15.797 29.8154 15.9767 29.5255 16.0626C29.3714 16.11 29.1753 16.103 28.9665 16.0955L28.9216 16.0939L28.9029 16.0932C28.5705 16.0816 28.2276 16.0697 27.9352 16.2384C27.6566 16.402 27.5157 16.6992 27.3783 16.9889L27.3675 17.0117C27.2789 17.2031 27.1823 17.4023 27.0575 17.5429C26.9416 17.674 26.7776 17.78 26.6152 17.8849L26.5945 17.8983C26.3247 18.0701 26.0469 18.2498 25.9664 18.5427C25.8742 18.8809 26.0454 19.1998 26.1978 19.484L26.1999 19.4879L26.2112 19.5087C26.2956 19.6648 26.3741 19.81 26.3972 19.9409C26.4103 20.0119 26.4183 20.1323 26.4244 20.285C25.8758 20.0648 25.2692 19.9686 24.6497 20.0262C23.894 20.0944 23.2063 20.3767 22.6503 20.8103C21.0448 20.7748 19.7035 20.7748 18.4459 20.8897C18.5076 20.7421 18.6389 20.5854 18.778 20.4194L18.7874 20.4082C19.0249 20.127 19.2947 19.8067 19.3027 19.42C19.3108 19.092 19.0893 18.799 18.8759 18.5178L18.8661 18.5046L18.8661 18.5046C18.7121 18.2978 18.5526 18.0836 18.4935 17.8695C18.4487 17.6995 18.442 17.4994 18.4348 17.2877L18.4331 17.2368C18.425 16.8072 18.4129 16.3658 18.111 16.0417C17.8562 15.7674 17.4596 15.6842 17.0732 15.603L17.0602 15.6003L17.0462 15.5974C16.7694 15.5399 16.5054 15.485 16.3193 15.366C15.8155 15.0427 15.3859 14.4463 15.123 14.0814L15.1115 14.0654C14.7049 13.4952 14.1009 12.8859 13.0541 13.2296C12.0355 13.5655 11.8705 14.2099 11.7255 15.2293C11.6933 15.4519 11.6933 15.698 11.6933 15.9557C11.6933 16.3541 11.6933 16.7681 11.5766 17.1352C11.5081 17.35 11.343 17.5649 11.1659 17.7953L11.1503 17.816L11.1502 17.816C10.9014 18.1453 10.646 18.4834 10.6224 18.8889C10.5983 19.2863 10.8266 19.6487 11.0475 19.9994L11.0491 20.002L11.0572 20.0149C11.2036 20.249 11.3523 20.4867 11.4155 20.7206C11.4735 20.928 11.4728 21.1608 11.472 21.3904L11.4719 21.4666ZM18.364 21.2526C18.3497 21.3384 18.3346 21.4341 18.319 21.5331L18.319 21.5332L18.319 21.5332L18.3123 21.576C18.2954 21.6908 18.2762 21.8099 18.2561 21.9282C18.4319 21.8729 18.6235 21.8425 18.8239 21.8425C19.6775 21.8425 20.37 22.3932 20.37 23.0728C20.37 23.1189 20.3668 23.1644 20.3606 23.2091C20.6706 23.2106 20.9773 23.2084 21.2804 23.2027C21.3797 22.4128 21.7362 21.7027 22.2676 21.154C20.7945 21.1261 19.5424 21.1361 18.364 21.2526ZM22.7915 21.1519C22.1807 21.6616 21.7607 22.3797 21.6442 23.1943C21.8328 23.1891 22.0201 23.1826 22.2059 23.1748C22.4399 21.9552 23.4607 21.0405 24.7383 20.9204C25.9767 20.8077 27.1407 21.4926 27.626 22.597C27.8112 22.5659 27.9943 22.5341 28.1754 22.5017C27.6456 21.1203 26.208 20.2318 24.6819 20.3738C23.9981 20.4356 23.3756 20.6923 22.8727 21.0862C22.8528 21.1155 22.8243 21.1387 22.7915 21.1519ZM12.9376 25.5285C12.9559 25.5285 12.9744 25.5289 12.9931 25.5296C13.005 25.5327 13.0173 25.5348 13.03 25.5356C13.1141 25.5395 13.2022 25.5501 13.2964 25.568C13.3878 25.5864 13.485 25.6111 13.5899 25.6417C14.1579 25.8098 14.7259 26.0148 15.284 26.2279C14.966 26.6696 14.5876 27.4153 14.4273 28.5828C14.4152 28.6765 14.4837 28.7663 14.5843 28.778H14.6045C14.693 28.778 14.7695 28.7156 14.7816 28.6257C14.9418 27.4613 15.3335 26.7501 15.6295 26.3612C15.7485 26.4075 15.8671 26.454 15.9851 26.5003C16.0787 26.5363 16.1717 26.5728 16.2646 26.6093L16.2647 26.6094L16.3049 26.6252C16.4472 26.6812 16.5887 26.7369 16.7302 26.79C16.9532 26.875 17.2741 27.005 17.6519 27.1622C17.4758 27.5491 17.3157 28.0322 17.2094 28.6291C17.1893 28.7267 17.2577 28.8165 17.3544 28.8322H17.3866V28.8361C17.4711 28.8361 17.5476 28.7775 17.5637 28.6916C17.6656 28.1224 17.8189 27.6649 17.9856 27.302C19.3513 27.8773 21.2277 28.7041 22.0608 29.1139C22.1816 29.1725 22.5198 29.3873 22.4836 29.5904C22.4474 29.7935 22.0568 29.8872 21.9199 29.9028C20.6396 30.0669 17.2094 30.3442 16.0981 30.3832C15.8284 30.3949 15.5586 30.4066 15.2849 30.4184C14.4474 30.4574 13.5858 30.4965 12.7444 30.4613C11.8949 30.4262 11.6009 30.1723 11.1903 29.4732C10.993 29.1334 10.9004 28.7585 10.9004 28.3327L10.9065 28.1539C10.9089 28.1418 10.91 28.1294 10.9096 28.1167C10.9112 28.1086 10.9122 28.1003 10.9125 28.0918C10.9131 28.0789 10.9122 28.0664 10.9101 28.0542C10.9208 27.8131 10.9621 27.5752 11.0339 27.3429C11.0403 27.3317 11.0455 27.3196 11.0494 27.3067C11.0521 27.2977 11.0541 27.2887 11.0553 27.2797C11.061 27.2667 11.065 27.2533 11.0674 27.2398L11.1259 27.0634C11.1939 26.8728 11.2778 26.7003 11.379 26.5447C11.3912 26.5313 11.4008 26.5167 11.4078 26.5013C11.5162 26.3431 11.6432 26.2028 11.7902 26.0792C12.221 25.716 12.527 25.5324 12.9416 25.5324L12.9376 25.5285ZM10.6542 27.3747C10.609 27.5475 10.5776 27.7233 10.5615 27.8999C7.84959 27.7657 7.22146 27.3616 7.07563 27.1896C7.02126 27.1255 7.02683 27.0833 7.0309 27.0523L7.03134 27.049C7.03537 27.0177 7.04745 26.9708 7.132 26.924C7.38009 26.7826 8.1636 26.66 10.6542 27.3747ZM11.0096 26.464C10.9241 26.6105 10.8507 26.7685 10.7896 26.9374C8.39487 25.4019 8.25961 24.9528 8.2754 24.8493C8.28345 24.8064 8.29553 24.7986 8.30358 24.7986C8.32774 24.7829 8.37605 24.7751 8.43645 24.7829C8.5371 24.7947 8.63373 24.822 8.75854 24.8767C8.88335 24.9314 9.00816 25.0017 9.10076 25.0563C9.30207 25.1774 9.49935 25.3063 9.70468 25.4508C9.96638 25.6344 10.216 25.8257 10.4616 26.021C10.6226 26.146 10.7797 26.271 10.9327 26.3999C10.9552 26.419 10.9778 26.4377 11.0002 26.4563L11.0002 26.4563L11.0096 26.464ZM10.5897 28.8623C10.5587 28.6967 10.5428 28.5244 10.5421 28.3458C7.75716 29.0282 7.47371 29.41 7.45396 29.5097C7.4459 29.5526 7.45396 29.5604 7.46201 29.5683C7.48214 29.5878 7.5224 29.6151 7.58279 29.6268C7.68345 29.6464 7.7841 29.6503 7.92099 29.6386C8.02969 29.6307 8.15048 29.6112 8.3075 29.58C8.53699 29.5331 8.77453 29.4706 9.01207 29.4042C9.31806 29.3144 9.62002 29.2128 9.91795 29.1074C10.1112 29.041 10.3004 28.9707 10.4897 28.9004C10.5202 28.8885 10.5502 28.8772 10.5798 28.8661L10.5798 28.8661L10.5799 28.8661L10.5799 28.8661L10.5897 28.8623ZM11.8302 21.4719C11.8266 21.7784 11.8232 22.0692 11.9371 22.2557C13.461 22.5948 14.9283 22.8307 16.3376 22.983L15.8457 21.6777L13.9118 21.3102C13.8151 21.2907 13.7507 21.2008 13.7709 21.1032C13.791 21.0094 13.8836 20.947 13.9842 20.9665L15.7013 21.2945L14.9926 19.4141L12.8973 19.2557C12.7966 19.2479 12.7242 19.1659 12.7322 19.0682C12.7403 18.9706 12.8208 18.9003 12.9255 18.9081L14.8568 19.0539L13.9725 16.7074C13.9403 16.6176 13.9846 16.516 14.0812 16.4848C14.1738 16.4535 14.2785 16.4965 14.3107 16.5902L15.1578 18.8379L16.1383 17.4747C16.1947 17.3966 16.3074 17.3771 16.3879 17.4317C16.4685 17.4864 16.4886 17.5958 16.4322 17.6739L15.3076 19.2355L16.0013 21.0759L16.9555 19.7714C17.0119 19.6932 17.1246 19.6737 17.2052 19.7284C17.2857 19.7831 17.3058 19.8924 17.2494 19.9705L16.1511 21.4736L16.7354 23.024C16.9172 23.0417 17.0981 23.0581 17.2779 23.0732V23.0728C17.2779 22.6841 17.5045 22.3375 17.8582 22.1121C17.8933 21.92 17.9252 21.7133 17.954 21.5252C18.0023 21.2088 18.0425 20.9589 18.0828 20.8339C18.1526 20.6119 18.3232 20.4081 18.4904 20.2084L18.5096 20.1855L18.5228 20.1698C18.728 19.9249 18.9365 19.676 18.9444 19.4122C18.9483 19.2059 18.7789 18.9809 18.5982 18.7409L18.5982 18.7409L18.5861 18.7248L18.5667 18.6989C18.3956 18.469 18.2208 18.2341 18.1432 17.9593C18.0828 17.7367 18.0747 17.4867 18.0707 17.2446C18.0627 16.8618 18.0506 16.5025 17.8412 16.276C17.6641 16.0846 17.3339 16.0143 16.9837 15.944C16.6817 15.8815 16.3677 15.8151 16.1221 15.6589C15.5946 15.323 15.1719 14.7645 14.8136 14.2646C14.2942 13.5381 13.8312 13.3389 13.1669 13.5616C12.3576 13.8271 12.2288 14.2451 12.0798 15.28C12.0516 15.4792 12.0516 15.7097 12.0516 15.9557C12.0516 16.3619 12.0516 16.8189 11.9228 17.2407C11.8389 17.5119 11.6481 17.76 11.4603 18.0042L11.4558 18.0101C11.2303 18.303 11.0008 18.6038 10.9807 18.9123C10.9646 19.2013 11.1538 19.506 11.3551 19.8223L11.369 19.8445C11.5258 20.0954 11.6875 20.354 11.7618 20.6347C11.8306 20.8944 11.8304 21.1648 11.8302 21.4289L11.8302 21.4705L11.8302 21.4719ZM17.6369 23.1016C18.4443 23.1617 19.2315 23.1951 19.9981 23.2058C20.007 23.1624 20.0117 23.118 20.0117 23.0728C20.0117 22.5885 19.4802 22.194 18.8239 22.194C18.1677 22.194 17.6362 22.5885 17.6362 23.0728C17.6362 23.0824 17.6364 23.092 17.6369 23.1016ZM31.2487 21.6907C31.0661 21.8063 30.8323 21.9189 30.5584 22.0234C29.9161 22.1648 29.2417 22.3046 28.5356 22.4359C28.4272 22.1383 28.2808 21.8606 28.1029 21.6073L28.6352 20.9092L30.1574 20.9387L30.1655 20.9426C30.2661 20.9426 30.3467 20.8645 30.3467 20.7707C30.3467 20.6731 30.2702 20.5911 30.1695 20.5911L28.898 20.5645L29.778 19.4106L31.3289 19.4291V19.4252C31.4295 19.4252 31.5101 19.351 31.5101 19.2533C31.5101 19.1596 31.4336 19.0776 31.3329 19.0776L30.0444 19.0612L31.1518 17.6091C31.2122 17.5309 31.1961 17.4216 31.1156 17.363C31.035 17.3044 30.9223 17.32 30.8619 17.3982L29.7107 18.9078L29.0098 17.7145C28.9615 17.6286 28.8488 17.6013 28.7642 17.6481C28.6757 17.695 28.6475 17.8044 28.6958 17.8864L29.476 19.2155L28.591 20.3761L28.1081 19.2788C28.0679 19.185 27.9632 19.146 27.8706 19.185C27.774 19.2241 27.7337 19.3256 27.774 19.4155L28.3397 20.7057L27.8748 21.3153C27.5709 20.9645 27.2017 20.6726 26.7897 20.4545C26.7822 20.1999 26.7736 19.9999 26.7515 19.8784C26.7153 19.691 26.6186 19.5074 26.522 19.3277L26.5123 19.3094C26.383 19.0663 26.2617 18.8384 26.3167 18.6364C26.361 18.4763 26.5703 18.3396 26.7958 18.1951C26.985 18.074 27.1783 17.949 27.3313 17.7811C27.4894 17.6085 27.5932 17.3869 27.6922 17.1756L27.6976 17.164C27.8184 16.9023 27.9352 16.6563 28.1244 16.5469C28.325 16.4302 28.6094 16.4414 28.9061 16.453L28.9095 16.4532C29.1591 16.4649 29.4128 16.4727 29.6382 16.4063C29.9805 16.3048 30.2905 16.1017 30.5602 15.922L30.5637 15.9197C30.7274 15.8112 30.8793 15.7106 31.0192 15.6447C31.756 15.2932 32.0861 15.1956 32.5975 15.5705C33.0202 15.879 33.0886 16.2423 32.839 16.8672C32.6659 17.3085 32.4767 17.8241 32.4847 18.3084C32.4887 18.5388 32.5854 18.7692 32.678 18.9879C32.7827 19.234 32.8753 19.4644 32.831 19.648C32.7786 19.8667 32.5491 20.0269 32.3035 20.1948L32.2895 20.2046C32.1367 20.3109 31.9777 20.4216 31.8566 20.558C31.6996 20.7377 31.6151 20.9642 31.5346 21.1829C31.454 21.4016 31.3775 21.6086 31.2487 21.6907ZM26.0861 21.4959C26.5925 21.7357 27.013 22.141 27.2607 22.6569C26.6319 22.7576 25.9808 22.8493 25.3076 22.9278L26.0861 21.4959ZM23.5217 21.7267L24.5723 23.0073C23.925 23.0716 23.2583 23.123 22.5725 23.1578C22.7039 22.5702 23.0478 22.0677 23.5217 21.7267ZM23.8283 21.5382C24.1133 21.3903 24.4317 21.2949 24.7705 21.264C25.1089 21.2323 25.4415 21.2696 25.7518 21.3657L24.9288 22.8795L23.8283 21.5382ZM25.0078 14.3396C25.0078 14.8903 25.5674 15.3395 26.2559 15.3395C26.9444 15.3395 27.504 14.8903 27.504 14.3396C27.504 13.7889 26.9444 13.3398 26.2559 13.3398C25.5674 13.3398 25.0078 13.7889 25.0078 14.3396ZM25.3702 14.3435C25.3702 13.9842 25.7688 13.6952 26.2559 13.6952C26.7431 13.6952 27.1417 13.9842 27.1417 14.3435C27.1417 14.7028 26.7431 14.9919 26.2559 14.9919C25.7688 14.9919 25.3702 14.7028 25.3702 14.3435ZM21.8878 19.3277C21.9321 19.3473 21.9844 19.359 22.0368 19.359H22.0408C22.0851 19.359 22.1334 19.3512 22.1777 19.3355C22.2824 19.2965 22.3709 19.2145 22.4192 19.109L22.7051 18.4958L23.2969 18.7263C23.5627 18.8434 23.7599 18.7731 23.8767 18.695C24.1948 18.4841 24.2833 17.9842 24.2592 17.5858C24.2149 16.8008 23.768 16.1837 23.003 15.8517C22.2381 15.5197 21.4691 15.6017 20.8329 16.086C20.4585 16.3712 20.2492 16.7461 20.2894 17.0585C20.3136 17.2694 20.4505 17.4413 20.6598 17.5311L21.1631 17.8123L20.8732 18.4333C20.7766 18.6403 20.8571 18.8786 21.0544 18.9645L21.8878 19.3277ZM21.0504 16.3672C21.4047 16.0978 21.7549 16.004 22.077 16.004V16.0079C22.3669 16.0079 22.6367 16.086 22.85 16.1798C23.301 16.3751 23.8485 16.7851 23.8968 17.6131C23.917 17.9725 23.8203 18.3123 23.6673 18.4138C23.6271 18.4411 23.5627 18.4685 23.4338 18.4138L22.727 18.1381C22.7145 18.1282 22.7005 18.1198 22.6849 18.1132L21.469 17.582C21.4578 17.5768 21.4463 17.5729 21.4348 17.5701L20.8168 17.2265C20.7081 17.1796 20.6518 17.1132 20.6397 17.0234C20.6196 16.8359 20.7846 16.5664 21.0504 16.3672ZM22.0851 18.9723L22.3699 18.357L21.4827 17.9695L21.1993 18.5817C21.1861 18.6139 21.1946 18.6381 21.1981 18.6478L21.1986 18.6494C21.1991 18.6507 21.1993 18.6515 21.1993 18.6521L22.0327 19.0153C22.0569 19.0075 22.077 18.9957 22.0851 18.9723Z" fill="#4D4D4F"/>
</g>
</svg>