<?xml version="1.0" encoding="utf-8"?>
<svg xmlns="http://www.w3.org/2000/svg" width="49" height="49" viewBox="0 0 49 49" fill="none">
<path fill-rule="evenodd" clip-rule="evenodd" d="M23.0805 8.51468C23.0636 8.3163 22.8981 8.16666 22.6971 8.16666H22.4488C22.236 8.16666 22.0637 8.33815 22.0637 8.54999V9.56291C21.6963 9.62187 21.3301 9.69432 20.9657 9.78035C20.9531 9.78334 20.9408 9.78694 20.9288 9.79112V8.54999C20.9288 8.33815 20.7565 8.16666 20.5437 8.16666H20.108C19.8952 8.16666 19.7229 8.33815 19.7229 8.54999V15.0749L19.6993 15.934C19.6452 16.166 19.4274 16.3443 19.1554 16.3443C18.843 16.3443 18.588 16.1139 18.588 15.8315V8.54999C18.588 8.33815 18.4157 8.16666 18.2029 8.16666H17.9546C17.7536 8.16666 17.5881 8.3163 17.5712 8.51468C17.5552 8.7096 17.5368 8.9314 17.5165 9.17519C17.3396 11.3048 17.0231 15.1127 16.9551 17.3458C16.1001 18.1765 15.7756 18.8415 15.0939 20.2385L14.949 20.5351C14.944 20.5452 14.9395 20.5556 14.9355 20.5662C14.2202 22.4566 14.0883 24.1436 14.1361 25.3605C14.16 25.969 14.2288 26.4606 14.2923 26.8026C14.3241 26.9736 14.3547 27.1074 14.3776 27.1998C14.3891 27.246 14.3988 27.2819 14.4057 27.3069L14.4137 27.3349C14.8762 29.3483 16.0865 30.9062 17.163 31.9524C17.704 32.4783 18.2167 32.8802 18.5949 33.1511C18.6851 33.2158 18.7678 33.273 18.8415 33.3228C18.7972 35.039 18.7773 36.6612 18.8002 37.972C16.1215 36.8395 13.8296 34.928 12.2388 32.4674C10.2999 29.4685 9.53797 25.8641 10.0983 22.3417C10.6586 18.8193 12.5019 15.6255 15.2766 13.3697C15.433 13.2425 15.4563 13.0132 15.3285 12.8575C15.2008 12.7018 14.9705 12.6787 14.8141 12.8058C11.9002 15.1748 9.96438 18.5288 9.37598 22.2278C8.78757 25.9269 9.58775 29.7121 11.6238 32.8613C13.3549 35.5387 15.8762 37.5971 18.8209 38.7678C18.8428 39.3775 18.8774 39.8898 18.9274 40.2735C18.9697 40.5946 19.2416 40.8316 19.5658 40.8316H21.3426C21.6685 40.8316 21.9421 40.5912 21.981 40.2684C22.003 40.0908 22.021 39.8856 22.0355 39.6562C24.2149 40.01 26.441 39.8895 28.5609 39.3091C28.5792 39.6956 28.6042 40.0214 28.6369 40.2735C28.6792 40.5946 28.9511 40.8333 29.2754 40.8333H31.0521C31.378 40.8333 31.6516 40.5929 31.6905 40.2701C31.7519 39.7732 31.7779 38.9911 31.778 38.023C34.914 36.3367 37.3666 33.6102 38.703 30.3084C40.109 26.8346 40.1811 22.9671 38.9056 19.4438C37.8884 16.6342 36.0711 14.2003 33.6987 12.4257C32.9689 10.0499 31.6099 8.16666 30.0539 8.16666C29.1795 8.16666 28.3674 8.7614 27.6941 9.70406C26.206 9.38814 24.6747 9.29387 23.1513 9.42797L23.1323 9.19905L23.1322 9.19893L23.1322 9.19887C23.1111 8.94508 23.092 8.71466 23.0754 8.513L23.0805 8.51468ZM22.0212 34.6941C22.0764 36.3231 22.0995 37.8027 22.0677 38.9235C24.228 39.2874 26.4388 39.161 28.5354 38.56C28.508 37.3828 28.522 35.8496 28.5598 34.1876C27.4342 34.6553 26.0756 34.991 24.5093 34.991H24.5079C23.653 34.9879 22.824 34.8889 22.0212 34.6941ZM28.5796 33.3845C27.4786 33.8854 26.1111 34.2629 24.5099 34.263C23.6413 34.2598 22.8029 34.1508 21.9937 33.9358C21.8391 29.9335 21.5203 25.2576 21.3522 22.7921L21.3522 22.792L21.3521 22.7913L21.3521 22.7907C21.323 22.3648 21.2985 22.0049 21.2801 21.7259C21.2564 21.3645 21.4709 21.0282 21.8138 20.9055C22.464 20.6718 23.4571 19.8194 23.6513 18.9872C23.847 18.1469 23.4655 13.2412 23.2114 10.1535C24.5734 10.0332 25.9421 10.1046 27.2773 10.3625C26.3963 11.9257 25.8401 14.1041 25.8401 16.1526C25.8401 19.0897 26.9852 20.8904 28.5897 21.5444C28.8751 21.6604 29.0626 21.931 29.0457 22.2387C28.9581 23.87 28.6971 28.9437 28.5796 33.3845ZM31.6117 32.2392C31.7248 32.1326 31.825 32.0318 31.9121 31.939C32.9463 30.9778 34.9805 28.4346 34.978 24.5816L34.2477 24.5424C34.247 24.5517 34.2466 24.5611 34.2467 24.5704C34.2528 27.9805 32.5436 30.2862 31.5654 31.2602C31.3791 27.4521 31.1233 23.6506 31.0268 22.2656C31.0048 21.9529 31.1973 21.6738 31.4895 21.5578C33.1092 20.9122 34.2661 19.1082 34.2661 16.1543L34.2678 16.1526C34.2678 15.3063 34.1728 14.4377 33.9993 13.5996C35.8971 15.2219 37.3577 17.3153 38.2176 19.6906C39.4322 23.0457 39.3635 26.7284 38.0247 30.0363C36.8011 33.0594 34.5949 35.576 31.7724 37.1927C31.7541 35.7513 31.6927 34.0173 31.6117 32.2392ZM18.866 32.4463C18.5314 32.1977 18.1124 31.8578 17.6738 31.4315C16.6505 30.437 15.5419 28.9935 15.1242 27.1624C15.1223 27.1539 15.12 27.1455 15.1175 27.1371L15.1174 27.1369L15.1163 27.1329L15.1105 27.1127C15.1053 27.0938 15.0973 27.0643 15.0875 27.0247C15.0678 26.9456 15.0404 26.826 15.0114 26.6701C14.9535 26.3582 14.8892 25.9016 14.8668 25.3321C14.8222 24.1965 14.9445 22.6153 15.6139 20.8386L15.7354 20.59C16.2454 19.5459 16.5296 18.9642 16.9462 18.4363C16.9532 18.6856 16.9689 18.8747 16.9953 18.9889C17.1895 19.8211 18.1826 20.6752 18.8329 20.9072C19.174 21.0299 19.3902 21.3662 19.3666 21.7276C19.2565 23.4236 18.9954 28.1124 18.866 32.4463ZM21.1345 10.4887C21.443 10.4158 21.7529 10.3532 22.0637 10.3008V15.8298C22.0637 16.1139 21.8104 16.3426 21.4963 16.3426C21.1821 16.3426 20.9288 16.1122 20.9288 15.8298V10.4779C20.9927 10.5004 21.0637 10.5054 21.1345 10.4887ZM11.9137 23.4301C12.1145 23.4507 12.2605 23.6295 12.24 23.8293L12.2398 23.8313L12.2389 23.8409C12.2381 23.85 12.2368 23.8642 12.2354 23.8834C12.2324 23.9219 12.2285 23.9801 12.2248 24.0565C12.2175 24.2093 12.2113 24.4345 12.2165 24.7185C12.2269 25.2868 12.2827 26.0882 12.4646 27.0145C12.8286 28.8682 13.6944 31.2066 15.6974 33.1859C15.8407 33.3276 15.8416 33.558 15.6993 33.7007C15.5571 33.8434 15.3255 33.8442 15.1822 33.7026C13.0457 31.5914 12.1297 29.1038 11.7469 27.1541C11.5553 26.1787 11.4963 25.3341 11.4853 24.7317C11.4798 24.4304 11.4863 24.1892 11.4943 24.0219C11.4983 23.9382 11.5027 23.873 11.5062 23.8279C11.5079 23.8054 11.5094 23.7879 11.5105 23.7756L11.5119 23.7612L11.5123 23.7571L11.5124 23.7557L11.5125 23.7552C11.5125 23.7551 11.5125 23.7549 11.8754 23.7921L11.5125 23.7549C11.5332 23.5549 11.7128 23.4095 11.9137 23.4301Z" fill="black"/>
</svg>