<?xml version="1.0" encoding="utf-8"?>
<svg xmlns="http://www.w3.org/2000/svg" width="24" height="24" viewBox="0 0 24 24" fill="none">
<g id="arrow-ios-right">
<path id="Vector" d="M14.0005 5.00017C14.2265 5.00017 14.4535 5.07617 14.6405 5.23217C15.0645 5.58517 15.1215 6.21617 14.7685 6.64017L10.2925 12.0112L14.6075 17.3732C14.9535 17.8032 14.8855 18.4332 14.4555 18.7792C14.0245 19.1252 13.3955 19.0572 13.0485 18.6272L8.2205 12.6272C7.9225 12.2562 7.9265 11.7262 8.2315 11.3602L13.2315 5.36017C13.4295 5.12317 13.7135 5.00017 14.0005 5.00017Z" fill="#FCFCFC"/>
<mask id="mask0_13_15766" style="mask-type:luminance" maskUnits="userSpaceOnUse" x="8" y="5" width="7" height="14">
<path id="Vector_2" d="M14.0005 5.00017C14.2265 5.00017 14.4535 5.07617 14.6405 5.23217C15.0645 5.58517 15.1215 6.21617 14.7685 6.64017L10.2925 12.0112L14.6075 17.3732C14.9535 17.8032 14.8855 18.4332 14.4555 18.7792C14.0245 19.1252 13.3955 19.0572 13.0485 18.6272L8.2205 12.6272C7.9225 12.2562 7.9265 11.7262 8.2315 11.3602L13.2315 5.36017C13.4295 5.12317 13.7135 5.00017 14.0005 5.00017Z" fill="white"/>
</mask>
<g mask="url(#mask0_13_15766)">
</g>
</g>
</svg>