<?xml version="1.0" encoding="utf-8"?>
<svg xmlns="http://www.w3.org/2000/svg" fill="none" height="48" viewBox="0 0 48 48" width="48">
  <path clip-rule="evenodd" d="m33.8679 10.1242c.7817.4892 1.4263 1.0653 1.8856 1.7297l-1.4996 17.7798-.0209.2358c-.0176.1985-.043.4819-.0738.8218-.0617.6795-.1451 1.5848-.2324 2.4871-.0872.9018-.1784 1.8028-.2555 2.4728-.0384.3341-.0738.6152-.1039.8113-.0147.0961-.0295.1812-.0445.2442-.0063.0267-.0177.0723-.037.1162l-.0005.0012c-.0059.0133-.0288.0657-.0777.1174-.2802.4714-2.1243 3.0583-9.6573 3.0583-7.2739 0-9.3429-2.5714-9.6631-3.0465-.0862-.0878-.1112-.2109-.1266-.3382-.0094-.0777-.0229-.1933-.0394-.3464-.0332-.3063-.0787-.7627-.1285-1.3664-.0992-1.2044-.2155-2.995-.2846-5.3488l-1.0576-10.346c-.4097-3.5075-.4785-5.5126-.4421-6.6486.0181-.5684.0628-.926.1067-1.1492.022-.112.0443-.1927.0642-.2509.0099-.0292.0195-.0533.0283-.0732.0045-.0099.0088-.0189.0129-.027l.0061-.0116.0029-.0053.0015-.0026.0007-.0012c.0004-.0006.0007-.0013.3371.1866l-.3364-.1879c.0346-.059.0847-.1079.1453-.1414 3.3203-1.84104 7.445-2.76419 11.3257-2.88219.0122-.00144.0246-.00233.0372-.00263.0113-.00028.0225-.00008.0336.00057.6717-.01874 1.3359-.01335 1.9872.0156 2.2192.09865 4.3041.47138 6.0359 1.10523.7356.26925 1.4138.588 2.0134.95692.0201.0102.0392.0221.0571.0355zm1.8856 1.7297-1.4946 17.7229.0076.0011.0267-.1828c.0173-.1195.0427-.2949.0746-.5186.0639-.4472.1542-1.0873.2599-1.8591.2113-1.5436.4845-3.6149.7313-5.7248.2466-2.1086.4676-4.2609.5739-5.9646.0531-.8508.0782-1.5976.0624-2.1742-.0078-.2877-.026-.5416-.0582-.749-.0295-.19-.0784-.3991-.1836-.5509zm-16.3121-2.61987c1.3051-.24562 2.6295-.39483 3.9317-.45112l.4445 17.25229c-1.1183-.0238-2.1617.062-3.1215.2197zm4.7836 17.57277c-.0196.0004-.0389-.0005-.0578-.0028-1.7363-.0752-3.2844.1289-4.6125.4595-1.7178.4275-3.0749 1.0688-4.001 1.602-.4628.2664-.8172.5055-1.0543.6765-.0863.0623-.157.1155-.2117.1577.0139.4547.0296.8876.0466 1.2985.17-.093.3933-.2093.6669-.3395.6801-.3238 1.6717-.734 2.9272-1.0858.2057-.0577.4202.0586.4792.2596.0589.201-.06.4107-.2656.4683-1.2065.3381-2.156.7314-2.8016 1.0387-.3227.1536-.5692.2856-.7336.3783-.0822.0463-.1438.0828-.1841.1072-.0202.0122-.035.0214-.0444.0273l-.0055.0034c.0338.6916.0706 1.3098.1075 1.8535l.0618-.0308c.283-.1401.697-.332 1.2281-.543 1.0618-.4217 2.5934-.9206 4.4811-1.2331.2109-.0349.4109.104.4466.3101.0357.2062-.1063.4016-.3173.4366-1.8225.3017-3.2995.7831-4.3187 1.188-.5095.2023-.904.3854-1.1696.5169-.1328.0657-.2333.1186-.2997.1545-.0206.0111-.038.0206-.052.0284.0083.1055.0164.207.0245.3047.0429.5211.0826.9301.1136 1.2253 4.4728-2.4355 9.0472-2.4066 12.5287-1.754 1.8088.3391 3.3292.8474 4.398 1.2713.5233.2075.9392.395 1.2288.5331.0204-.1539.043-.3397.0672-.5506.0422-.3667.0888-.8045.1368-1.2749-.943-.4107-1.8695-.7463-2.772-1.0141-.2047-.0607-.3203-.2721-.2581-.4722.0621-.2001.2784-.3131.4831-.2524.858.2546 1.7353.5679 2.6262.9455l.0381-.3913c.0871-.9003.1704-1.8041.2319-2.4828.0308-.3393.0562-.6224.0738-.8206l.0068-.0763c-.7713-.4488-1.526-.8368-2.2631-1.17-.0166-.0062-.0327-.0134-.0481-.0217-2.5389-1.1408-4.8664-1.6324-6.9298-1.7291zm-.0775-18.04649.446 17.30859c.9172.0602 1.8807.1953 2.8862.4243l1.3705-17.36485c-.9838-.18058-2.0339-.29688-3.1239-.34533-.5192-.02308-1.0464-.03073-1.5788-.02271zm9.0694 1.86099c-.5008-.291-1.0672-.552-1.6912-.78036-.5928-.21698-1.233-.40282-1.9108-.5562l-1.3731 17.39816c.897.2422 1.8254.5598 2.7821.9655zm-14.5407-1.23161c-.9043.19788-1.7951.44304-2.6584.73671l1.0871 17.1394c.6668-.2714 1.4221-.5279 2.2586-.7362.1849-.046.3738-.0896.5664-.1306zm13.0863 18.58701 2.1744-16.8828c.4834.36.8788.756 1.1746 1.1839l.0008.0013c.0021.0042.0319.0657.0588.2393.0254.1638.0423.3831.0498.6556.0148.5439-.0087 1.2652-.0613 2.1079-.1051 1.6835-.3242 3.8201-.5704 5.9247-.246 2.1034-.5184 4.1696-.7294 5.7103-.1055.7702-.1956 1.4089-.2593 1.855l-.0203.1419c-.6159-.3487-1.222-.6601-1.8177-.9371zm-16.5036-17.5769 1.0907 17.1957c-.4495.2098-.8469.4205-1.1891.6175-.3887.2238-.7067.4303-.9496.5984l-.9897-9.6819-.0006-.0053c-.4078-3.4912-.4725-5.4567-.4378-6.5417.0174-.5422.0593-.8577.0932-1.0299.0054-.0274.0105-.0508.0152-.0708.7504-.4077 1.544-.768 2.3677-1.082z" fill="#000" fill-rule="evenodd"/>
</svg>