<svg fill="none" height="28" viewBox="0 0 131 28" width="131" xmlns="http://www.w3.org/2000/svg" xmlns:xlink="http://www.w3.org/1999/xlink"><clipPath id="a"><path d="m0 0h131v28h-131z"/></clipPath><g clip-path="url(#a)"><path d="m77.854 22.8019c-.2651-.4313-.6233-.8712-1.0748-1.3228l-9.7659-9.7694c-.1806-.1807-.1806-.4721 0-.6527l6.8184-6.82081c.2097-.20978.3786-.36421.501-.45744.1223-.09324.233-.14568.3262-.15442.0932-.00875.1864.03205.2708.11654l.0961.09615c.1078.10781.1602.20978.1602.30593s-.0466.20396-.1339.32924c-.0874.12238-.2389.29428-.4573.5128l-5.2631 5.26491c-.5213.5216-.5213 1.3723 0 1.8939l.1515.1515c.5213.5215 1.3718.5215 1.8932 0l5.3533-5.35526c.4515-.45161.8126-.89449 1.0777-1.32862.2679-.43413.3611-.96732.2796-1.60249-.0786-.63518-.4864-1.31988-1.2233-2.05703l-.1078-.1078c-.7136-.71384-1.3864-1.10427-2.0155-1.165456s-1.1621.040791-1.599.311759c-.4369.270967-.8709.623517-1.3048 1.057647l-6.9175 6.91988c-.1806.18064-.4718.18064-.6524 0l-8.563-8.574822c-.5214-.52154-1.369-.52154-1.8932 0l-.1748.174818c-.5213.521544-.5213 1.372324 0 1.893864l20.9416 20.94901c.2243.2243.3816.3992.4748.5303s.1369.2506.131.3584c-.0058.1078-.067.2214-.1835.3379l-.032.0321c-.1165.1165-.2272.1777-.3379.1835-.1077.0059-.2271-.0378-.3582-.1311-.1311-.0932-.3058-.2505-.5301-.4749l-9.9582-9.9617-.5971-.5973-10.3834-10.39583c-.5213-.52154-1.3718-.52154-1.8932 0l-.1747.17482c-.5214.52154-.5214 1.37232 0 1.89386l8.5688 8.57195c.1806.1806.1806.472 0 .6526l-6.9261 6.9286c-.4282.4283-.7777.8595-1.0486 1.2966-.2708.437-.3728.9702-.3116 1.5996.0641.6293.4514 1.3024 1.165 2.0162l.1078.1078c.7369.7372 1.4213 1.1451 2.0563 1.2237.6349.0787 1.1679-.0116 1.5961-.2768.4311-.2651.8709-.6235 1.3223-1.0751l5.4349-5.4368c.5214-.5216.5214-1.3723 0-1.8939l-.1514-.1515c-.5214-.5215-1.3719-.5215-1.8932 0l-5.3534 5.3553c-.2126.2127-.3786.3613-.5009.4487-.1224.0874-.2301.1311-.3233.1282-.0932 0-.1894-.0525-.2884-.1545l-.1078-.1078c-.0873-.0874-.1252-.1777-.1165-.2709.0088-.0933.0583-.2011.1486-.3234.0903-.1195.2417-.2856.4543-.4983l6.8272-6.8295c.1806-.1807.4718-.1807.6524 0l9.766 9.7694c.4514.4516.8941.81 1.3223 1.0751.431.2651.9611.3555 1.5961.2768.6349-.0787 1.3194-.4866 2.0563-1.2237l.1194-.1195c.7369-.7371 1.1446-1.4218 1.2233-2.057.0786-.6352-.0117-1.1684-.2767-1.5967z" fill="#f5c027"/><g fill="#fff"><path d="m46.4064.0791016h-3.7107l-3.8475 12.8490984v-12.8490984h-3.4019v27.9212984h3.4019v-12.9277l3.8475 12.852h3.7107l-4.4708-13.9243z"/><path d="m17.0152 0h-1.1883c-2.2311 0-4.0427 1.81228-4.0427 4.04412v19.91178c0 2.2347 1.8116 4.0441 4.0427 4.0441h1.1883c2.234 0 4.0427-1.8123 4.0427-4.0441v-19.91178c0-2.23184-1.8116-4.04412-4.0427-4.04412zm.6408 24.0491c0 .6818-.5534 1.2354-1.235 1.2354-.6815 0-1.2349-.5536-1.2349-1.2354v-20.09822c0-.68179.5534-1.23538 1.2349-1.23538.6816 0 1.235.55359 1.235 1.23538z"/><path d="m28.7994 0h-1.1854c-2.2369 0-4.0456 1.81228-4.0456 4.04412v19.91178c0 2.2347 1.8116 4.0441 4.0426 4.0441h1.1855c2.2339 0 4.0427-1.8123 4.0427-4.0441v-19.91178c.0029-2.23184-1.8088-4.04412-4.0398-4.04412zm.6408 24.0491c0 .6818-.5534 1.2354-1.235 1.2354-.6815 0-1.2349-.5536-1.2349-1.2354v-20.09822c0-.68179.5534-1.23538 1.2349-1.23538.6816 0 1.235.55359 1.235 1.23538z"/><path d="m5.23103 0h-1.18834c-2.23105 0-4.04269 1.81228-4.04269 4.04412v19.91178c0 2.2347 1.81164 4.0441 4.04269 4.0441h1.18834c2.23396 0 4.04269-1.8123 4.04269-4.0441v-6.2323h-3.40192v6.3255c0 .6818-.55339 1.2354-1.23494 1.2354s-1.23494-.5536-1.23494-1.2354v-20.09822c0-.68179.55339-1.23538 1.23494-1.23538s1.23494.55359 1.23494 1.23538v6.32552h3.40192v-6.23228c0-2.23184-1.81164-4.04412-4.04269-4.04412z"/><path d="m100.822 17.138-3.1014-17.138h-2.4233-.5971v27.9242h3.0204v-15.55l2.1145 15.55h.9869 1.436 1.585v-27.9242h-3.021z"/><path d="m109.468 0h-3.021v27.9242h3.021z"/><path d="m113.868 0h-1.96v2.8204h1.96v25.1038h3.021v-25.1038h1.957v-2.8204h-1.957z"/><path d="m127.98 0-2.021 8.83705-2.019-8.83705h-3.023l3.533 14.8479v13.0763h3.02v-13.0763l3.53-14.8479z"/><path d="m88.6743 23.9734c0 .6818-.5417 1.2353-1.2058 1.2353-.664 0-1.2058-.5535-1.2058-1.2353v-23.9734h-3.3262v23.8772c0 2.2348 1.7709 4.0441 3.9524 4.0441h1.1592c2.1845 0 3.9524-1.8122 3.9524-4.0441v-23.8772h-3.3262z"/></g></g></svg>