<?xml version="1.0" encoding="utf-8"?>
<svg xmlns="http://www.w3.org/2000/svg" width="48" height="48" viewBox="0 0 48 48" fill="none">
<g id="Diets">
<path id="Union" fill-rule="evenodd" clip-rule="evenodd" d="M24 8.66636C15.5315 8.66636 8.66636 15.5315 8.66636 24C8.66636 32.4685 15.5315 39.3336 24 39.3336C32.4685 39.3336 39.3336 32.4685 39.3336 24C39.3336 15.5315 32.4685 8.66636 24 8.66636ZM8 24C8 15.1634 15.1634 8 24 8C32.8366 8 40 15.1634 40 24C40 32.8366 32.8366 40 24 40C15.1634 40 8 32.8366 8 24ZM30.2938 16.2182C31.0425 16.2182 31.6888 15.7639 31.9711 15.117C31.9894 15.1223 32.0084 15.126 32.0279 15.1281C32.1965 15.1462 32.3563 15.1595 32.5098 15.1722L32.5098 15.1722C32.796 15.1959 33.06 15.2178 33.3163 15.2659C33.6959 15.3372 33.9702 15.4544 34.1536 15.6618L34.1545 15.6627C34.6137 16.1778 34.6966 16.8253 34.6627 17.5475C34.6511 17.7952 34.627 18.0354 34.6027 18.2785C34.5911 18.3947 34.5794 18.5115 34.569 18.6301C34.538 18.9824 34.5189 19.3453 34.57 19.6752L34.5701 19.676C34.6601 20.2484 34.8954 20.765 35.1251 21.2244C35.171 21.3162 35.2162 21.4051 35.2603 21.4915C35.2954 21.5604 35.3297 21.6277 35.3629 21.6939C35.2727 21.6688 35.179 21.6472 35.0826 21.6292C34.5836 21.536 33.9795 21.5326 33.3188 21.6659C32.3861 21.8539 31.3401 22.314 30.3106 23.18C30.2046 22.2726 29.4292 21.564 28.4942 21.564C28.1141 21.564 27.7605 21.681 27.4674 21.8809C27.3506 21.7182 27.2355 21.5472 27.1163 21.3703L27.1162 21.3702L27.1161 21.3701L27.1161 21.37L27.1159 21.3697L27.1149 21.3682C27.0626 21.2906 27.0096 21.2119 26.9553 21.1322C26.514 20.4843 25.9872 19.762 25.2285 19.4559C24.4239 19.1314 23.5687 19.4696 22.8878 19.8272C22.6457 19.9544 22.4045 20.0961 22.1833 20.2261L22.1832 20.2261L22.1828 20.2264C22.0874 20.2824 21.9957 20.3363 21.9093 20.3859C21.6061 20.5598 21.3717 20.6781 21.1946 20.7227L21.1931 20.7231C20.8891 20.8012 20.5711 20.8279 20.2344 20.8411C20.1353 20.8449 20.0321 20.8476 19.9269 20.8504H19.9269C19.6882 20.8566 19.4392 20.863 19.2035 20.8843C18.4949 20.9481 17.7756 21.1527 17.2158 21.9233C16.8208 22.4659 16.5917 22.9488 16.4992 23.484C16.3199 23.4249 16.1285 23.3929 15.9298 23.3929C14.9229 23.3929 14.1011 24.2147 14.1011 25.2217C14.1011 26.2286 14.9229 27.0505 15.9298 27.0505C16.3429 27.0505 16.7248 26.9122 17.0317 26.6795C17.0629 26.7468 17.0953 26.8146 17.1287 26.8826C17.3616 27.357 17.6523 27.8618 17.9644 28.328C17.3915 30.3634 17.8181 32.5668 19.1088 34.2429C18.9115 34.1467 18.7211 34.0163 18.5252 33.8626C18.3835 33.7515 18.2544 33.6415 18.1188 33.5258C18.0187 33.4404 17.915 33.352 17.8 33.2578C17.5444 33.0485 17.2636 32.8382 16.9436 32.671C16.6903 32.5377 16.3508 32.4539 16.0171 32.382C15.9066 32.3582 15.7954 32.3355 15.6835 32.3127L15.6831 32.3126L15.6828 32.3125L15.6826 32.3125L15.6824 32.3124L15.6819 32.3123C15.4373 32.2624 15.1896 32.2117 14.9395 32.1481C14.1947 31.9584 13.621 31.6941 13.3862 31.2132C13.1297 30.6878 13.1782 30 13.2874 29.196C13.2992 29.109 13.3117 29.0206 13.3243 28.9313L13.3243 28.9312L13.3244 28.931C13.3675 28.6259 13.412 28.3108 13.4356 28.01C13.4664 27.6192 13.4654 27.2205 13.373 26.851L13.3726 26.8493C13.1983 26.168 12.6826 25.617 12.2522 25.1572C12.2165 25.1191 12.1815 25.0816 12.1472 25.0447C11.9108 24.7902 11.7057 24.5594 11.5585 24.326C11.4136 24.0964 11.3381 23.8844 11.3395 23.6687V23.6667C11.3395 22.9793 11.7095 22.4442 12.2184 21.9308C12.3933 21.7544 12.5728 21.5917 12.7544 21.427L12.7544 21.427C12.8404 21.349 12.9268 21.2707 13.0134 21.1902C13.1689 21.0459 13.3237 20.8958 13.4623 20.7387C13.5738 21.2949 13.7629 21.8452 14.0345 22.3749C14.1047 22.5119 14.2596 22.5829 14.4092 22.5468C14.4576 22.5351 14.5014 22.5132 14.5385 22.4836L15.9044 21.785C15.9143 21.781 15.924 21.7766 15.9337 21.7717L17.6638 20.8855L17.6664 20.8906L21.9162 18.7138C21.9305 18.7065 21.9442 18.6982 21.9571 18.689L25.1074 17.0776C25.1861 17.0374 25.2456 16.9675 25.2728 16.8833C25.2999 16.7992 25.2925 16.7077 25.2522 16.629C24.3146 14.8001 22.6048 13.6232 20.724 13.2938C21.0527 13.0394 21.4327 12.9468 21.8688 12.9076C22.0831 12.8883 22.296 12.8828 22.523 12.8769H22.5231L22.5231 12.8769H22.5231C22.6334 12.8741 22.7471 12.8712 22.8659 12.8665C23.2164 12.8528 23.5904 12.8241 23.9636 12.7283C24.2417 12.6581 24.5503 12.4933 24.8463 12.3236C24.9452 12.2668 25.044 12.2088 25.1433 12.1504L25.1434 12.1503C25.358 12.0242 25.5753 11.8964 25.8032 11.7768C26.4827 11.4199 27.0859 11.2325 27.5845 11.4334C28.1693 11.6699 28.612 12.2761 29.0989 12.9988L29.1025 13.004C28.7126 13.3398 28.4651 13.8367 28.4651 14.3894C28.4651 15.3963 29.2869 16.2182 30.2938 16.2182ZM21.8876 17.9734L22.9112 17.4492C22.6095 16.9625 22.2102 16.5626 21.7563 16.2581C21.6035 16.1556 21.5627 15.9486 21.6652 15.7958C21.7677 15.643 21.9747 15.6022 22.1275 15.7047C22.6705 16.069 23.1499 16.5532 23.5077 17.1474L24.4984 16.6407C22.9963 14.0888 19.7427 13.1182 17.0744 14.4861C15.0833 15.5068 13.9566 17.5508 14.0087 19.648C14.0297 19.7086 14.0334 19.7753 14.0167 19.8402C14.0552 20.4888 14.207 21.1397 14.4816 21.7643L15.3432 21.3235C14.4098 19.1253 15.3221 16.5466 17.4808 15.4405C18.4469 14.9455 19.5162 14.8261 20.5047 15.0254C20.6851 15.0618 20.8019 15.2375 20.7655 15.4179C20.7291 15.5983 20.5534 15.715 20.373 15.6787C19.5254 15.5078 18.6104 15.6105 17.7847 16.0336L17.7847 16.0336C15.9533 16.9719 15.1712 19.1496 15.9383 21.0192L17.0819 20.4342C16.6204 19.1656 17.168 17.7153 18.399 17.0842C19.6308 16.4527 21.1274 16.8577 21.8876 17.9734ZM21.2882 18.2804L18.0652 19.9313L17.6814 20.1276C17.3836 19.19 17.7994 18.1404 18.703 17.6772C19.6062 17.2142 20.7007 17.4905 21.2882 18.2804ZM19.8808 13.2038C20.4316 12.4981 21.1253 12.3054 21.809 12.2439C22.0447 12.2227 22.2937 12.2162 22.5324 12.21L22.5324 12.21C22.6376 12.2072 22.7408 12.2046 22.8399 12.2007C23.1766 12.1875 23.4946 12.1608 23.7986 12.0827L23.8 12.0823C23.9772 12.0377 24.2116 11.9194 24.5148 11.7455C24.6013 11.6959 24.6932 11.6419 24.7888 11.5857C25.01 11.4557 25.2511 11.314 25.4933 11.1868C26.1742 10.8292 27.0294 10.491 27.834 10.8156L27.8342 10.8156C28.6413 11.1419 29.1907 11.9424 29.6516 12.6265C29.6607 12.6401 29.6687 12.6541 29.6757 12.6685C29.8689 12.5987 30.0771 12.5606 30.2938 12.5606C31.3008 12.5606 32.1226 13.3824 32.1226 14.3894C32.1226 14.4157 32.1221 14.4419 32.121 14.4679C32.2468 14.4811 32.3805 14.4923 32.5175 14.5038L32.5175 14.5038C32.8257 14.5296 33.1506 14.5568 33.4392 14.611C33.8775 14.6933 34.325 14.85 34.6523 15.2198C35.2885 15.9337 35.3647 16.8038 35.3283 17.5788C35.3159 17.844 35.2889 18.1145 35.2637 18.3665L35.2637 18.3666L35.2637 18.3667L35.2637 18.3667C35.2526 18.4783 35.2418 18.5863 35.2328 18.6885C35.2022 19.0359 35.1908 19.3291 35.2285 19.5729C35.3014 20.0368 35.4955 20.4753 35.7211 20.9264C35.7606 21.0055 35.8016 21.0857 35.843 21.1668C36.0157 21.505 36.1965 21.8592 36.3157 22.211C36.5735 22.4193 36.7994 22.7466 36.9696 23.1398C37.1712 23.6056 37.3082 24.1938 37.3244 24.8674C37.357 26.2189 36.9038 27.9152 35.5083 29.6779L35.6403 28.3281C36.4281 27.0342 36.6813 25.8404 36.6583 24.8834C36.6439 24.289 36.5232 23.786 36.3581 23.4045C36.2949 23.2585 36.2269 23.1342 36.1585 23.0307L36.1927 22.6811L36.1585 23.0307C36.0445 22.8582 35.9293 22.7436 35.8324 22.6829C35.7975 22.661 35.7677 22.6334 35.7439 22.6019C35.6028 22.4821 35.3412 22.3554 34.9602 22.2842C34.5513 22.2078 34.0337 22.2015 33.4505 22.3191C32.6093 22.4887 31.6318 22.9165 30.6549 23.7621C30.6401 23.7778 30.6238 23.792 30.6064 23.8045C30.4261 23.9631 30.2459 24.1361 30.0667 24.3243C29.9487 24.5225 29.7943 24.6968 29.6128 24.8377C29.5905 24.8648 29.5683 24.8921 29.546 24.9197C28.8944 25.7285 28.6037 26.4527 28.5172 27.0756C28.4307 27.6983 28.5452 28.242 28.7387 28.6944C28.9332 29.1493 29.2074 29.5111 29.4356 29.7604C29.5491 29.8845 29.6497 29.9791 29.7208 30.0418C29.7563 30.0731 29.7843 30.0963 29.8027 30.1111C29.8119 30.1185 29.8186 30.1238 29.8227 30.127L29.8266 30.13L29.8267 30.1301L29.8268 30.1302C29.8322 30.1342 29.8374 30.1384 29.8425 30.1427L29.843 30.1431L29.8468 30.1463C29.8508 30.1495 29.8575 30.1549 29.8668 30.1623C29.8854 30.1769 29.9143 30.199 29.9528 30.2267C30.0298 30.2822 30.1446 30.3594 30.291 30.4427C30.5851 30.61 30.9992 30.7973 31.4863 30.8864C31.9707 30.975 32.5263 30.9663 33.114 30.7443C33.7017 30.5223 34.3426 30.0788 34.9853 29.2649L34.9856 29.2646C35.2362 28.9481 35.4532 28.6353 35.6402 28.3283L35.5081 29.6781C34.9523 30.382 34.3775 30.8576 33.8069 31.1604C33.8119 31.1745 33.8159 31.1892 33.819 31.2043C33.9148 31.6747 33.8712 32.1629 33.5691 32.6521C33.3176 33.0633 32.9914 33.2936 32.6096 33.3801C32.2473 33.4622 31.8682 33.4064 31.5187 33.3238C31.3411 33.2819 31.1605 33.2302 30.9849 33.1795L30.9536 33.1704C30.7865 33.1222 30.6234 33.0751 30.4597 33.034C30.1103 32.9465 29.7849 32.8939 29.4789 32.9206L29.4755 32.9209L29.4755 32.9209C29.3999 32.9267 29.32 32.9421 29.2343 32.9657L29.9245 33.4299C30.0772 33.5325 30.1177 33.7394 30.0152 33.8921C27.9431 36.9769 23.7749 37.7949 20.6903 35.7229C20.402 35.5292 20.1335 35.3172 19.8853 35.0894C19.1482 35.0974 18.5931 34.7626 18.114 34.387C17.9688 34.2731 17.8149 34.1422 17.6659 34.0155C17.5663 33.9308 17.4689 33.8479 17.3778 33.7734C17.1356 33.5751 16.8955 33.3977 16.6346 33.2614L16.6335 33.2608C16.4722 33.1759 16.2187 33.1071 15.8768 33.0335C15.7801 33.0126 15.6766 32.9915 15.569 32.9695L15.5677 32.9692L15.5674 32.9691C15.3156 32.9177 15.0409 32.8615 14.7751 32.7938C14.0298 32.604 13.1672 32.2834 12.7874 31.5056C12.4294 30.7723 12.5216 29.8831 12.6271 29.1063C12.64 29.0112 12.6532 28.9177 12.6662 28.8254L12.6663 28.8253L12.6663 28.8247L12.6664 28.8245L12.6664 28.8239C12.7089 28.5229 12.7494 28.236 12.7713 27.9578C12.7998 27.596 12.7934 27.2806 12.7268 27.0135C12.5965 26.5055 12.1971 26.0764 11.7343 25.5792L11.659 25.4982C11.4244 25.2456 11.1792 24.9738 10.9949 24.6815C10.8083 24.3857 10.671 24.0493 10.6731 23.6656C10.6735 22.7099 11.1991 22.0125 11.7452 21.4617C11.9327 21.2725 12.1348 21.0892 12.323 20.9185L12.3231 20.9184L12.3233 20.9182C12.4057 20.8435 12.4854 20.7712 12.56 20.7019C12.8156 20.4645 13.0206 20.2548 13.1559 20.049C13.2233 19.9452 13.2872 19.8326 13.3439 19.718C13.2652 17.3542 14.5274 15.0429 16.7704 13.8931C17.7668 13.3824 18.836 13.1631 19.8808 13.2038ZM35.6402 28.3283L36.1585 23.0307L36.1585 23.0307L35.6403 28.3281L35.6402 28.3283ZM28.5176 25.2214L28.4942 25.2215C27.4872 25.2215 26.6654 24.3997 26.6654 23.3927C26.6654 23.0085 26.7851 22.6512 26.9891 22.3562C26.8406 22.1541 26.6962 21.9395 26.5554 21.7304C26.5046 21.6551 26.4544 21.5804 26.4046 21.5073C25.9482 20.8373 25.5235 20.2935 24.9792 20.0739C24.4806 19.8728 23.8773 20.0602 23.1977 20.4171C22.9698 20.5368 22.7525 20.6646 22.5379 20.7907L22.5377 20.7908C22.4384 20.8492 22.3397 20.9072 22.2408 20.9639C21.9448 21.1337 21.6362 21.2985 21.3581 21.3687C20.9849 21.4645 20.6109 21.4932 20.2604 21.5069C20.1416 21.5116 20.0279 21.5145 19.9176 21.5173C19.6905 21.5232 19.4776 21.5287 19.2633 21.5479C18.6559 21.6026 18.1574 21.7607 17.7547 22.3152L17.7545 22.3155C17.3806 22.8291 17.2057 23.2358 17.1441 23.6726C17.1363 23.7275 17.1303 23.7834 17.1259 23.8404C17.5131 24.1762 17.7586 24.6713 17.7586 25.2217C17.7586 25.5515 17.6705 25.8614 17.5165 26.1291C17.5776 26.2742 17.6481 26.4284 17.7269 26.589C17.8772 26.8952 18.0538 27.2161 18.245 27.5297C18.4043 27.1545 18.6001 26.7886 18.8335 26.4369C18.8635 26.3719 18.9141 26.3171 18.9795 26.2823C19.0881 26.2244 19.2199 26.2311 19.322 26.2998L28.5513 32.5064C28.8311 32.3873 29.1292 32.2795 29.4227 32.2566C29.838 32.2207 30.2477 32.2939 30.6217 32.3876C30.7974 32.4317 30.9712 32.4819 31.1358 32.5295L31.1698 32.5393C31.3468 32.5904 31.5125 32.6377 31.6719 32.6753C31.9961 32.7519 32.2528 32.7777 32.4624 32.7302C32.6524 32.6871 32.834 32.5771 33.0009 32.3039L33.0018 32.3024C33.1845 32.0069 33.2262 31.7229 33.1819 31.4265C32.5251 31.6399 31.9044 31.6402 31.3664 31.5419C30.7854 31.4356 30.3 31.2144 29.9615 31.0219C29.7916 30.9253 29.6569 30.8348 29.5634 30.7675C29.5167 30.7339 29.4801 30.7059 29.4545 30.6858L29.4347 30.6699L29.4244 30.6616L29.4194 30.6574L29.4142 30.6534C29.4068 30.6477 29.3966 30.6397 29.384 30.6295C29.3587 30.609 29.3233 30.5796 29.2801 30.5416C29.1938 30.4655 29.0758 30.3543 28.9439 30.2102C28.6813 29.9232 28.3581 29.4992 28.126 28.9564C27.8928 28.4112 27.7514 27.7452 27.8572 26.9839C27.9338 26.4321 28.1387 25.842 28.5176 25.2214ZM21.0618 35.1697C20.7806 34.9808 20.5203 34.7725 20.2815 34.5478C20.2607 34.5207 20.2358 34.4969 20.2079 34.4774C18.5789 32.892 17.9915 30.5289 18.6403 28.3915C18.6456 28.3775 18.65 28.3632 18.6535 28.3486C18.793 27.901 18.9869 27.4637 19.2371 27.0458L20.1328 27.6481C18.8444 29.8636 19.4795 32.7263 21.6381 34.1755L21.6385 34.1758C22.5992 34.8189 23.7111 35.0809 24.7829 34.9936C24.9663 34.9787 25.1029 34.8179 25.0879 34.6345C25.073 34.4511 24.9122 34.3145 24.7288 34.3294C23.8016 34.405 22.8406 34.1785 22.0096 33.6223C20.1604 32.3808 19.6049 29.9387 20.6815 28.0309L21.8594 28.8231C21.195 30.1083 21.5847 31.7216 22.815 32.547C24.0435 33.3712 25.6839 33.1265 26.6221 32.0262L27.6815 32.7386C27.2919 33.2315 26.8104 33.6142 26.2788 33.8829C26.1146 33.9659 26.0488 34.1664 26.1318 34.3306C26.2148 34.4948 26.4152 34.5606 26.5794 34.4776C27.2124 34.1577 27.785 33.6972 28.243 33.1021L29.2689 33.792C27.3457 36.3461 23.7483 36.9743 21.0618 35.1697ZM22.4163 29.2002C21.9552 30.177 22.2637 31.3747 23.1862 31.9936C24.1097 32.6132 25.3357 32.4471 26.0642 31.6512L22.4163 29.2002ZM33.469 25.6893C32.6441 25.0306 31.3397 25.2082 30.5612 26.1846C29.7926 27.1486 29.8893 28.4342 30.6805 29.1007C30.6954 29.1092 30.7098 29.1189 30.7233 29.1297C31.5488 29.7889 32.86 29.61 33.6303 28.6356C34.4038 27.6571 34.2928 26.3471 33.469 25.6893ZM30.0402 25.7692C31.0091 24.554 32.7255 24.2429 33.8848 25.1686C35.0453 26.0953 35.112 27.8357 34.153 29.0488C33.2022 30.2515 31.5072 30.5683 30.3491 29.6829C30.3319 29.6736 30.3156 29.6628 30.3001 29.6505C29.1394 28.7236 29.0728 26.9825 30.0402 25.7692Z" fill="black"/>
</g>
</svg>