<?xml version="1.0" encoding="utf-8"?>
<svg xmlns="http://www.w3.org/2000/svg" width="62" height="69" viewBox="0 0 62 69" fill="none">
<path fill-rule="evenodd" clip-rule="evenodd" d="M30.2315 15.2303C41.8379 15.2303 52.6631 15.2303 57.9703 13.9256C56.5939 18.1283 52.6011 27.4621 51.4231 27.9514C50.3691 28.3779 38.6635 29.2561 28.3591 29.1056C19.8775 28.9801 11.4827 28.1145 11.1479 27.9514C10.7015 27.7256 6.90707 23.3096 4.03027 13.8252C4.03027 13.8252 18.6499 15.2303 30.2315 15.2303Z" fill="white"/>
<path d="M30.231 15.6818C35.7242 15.6818 41.2174 15.7068 46.7106 15.5187C50.4926 15.3807 54.3862 15.2552 58.0938 14.377L57.5482 13.825C56.1594 18.0152 54.4606 22.2807 52.2782 26.1196C51.5218 27.4494 51.187 27.6376 49.7238 27.8007C47.5414 28.0641 45.3342 28.1896 43.1394 28.315C36.5302 28.6914 29.9086 28.8043 23.2994 28.5032C20.3358 28.3652 17.3722 28.177 14.421 27.901C13.4662 27.8132 11.8294 27.8885 11.1722 27.3616C10.019 26.4583 9.1634 24.6392 8.4814 23.3847C6.7826 20.3236 5.5178 17.0492 4.4762 13.6996L4.0422 14.2767C12.7346 15.1172 21.5014 15.6692 30.2434 15.6818C30.8262 15.6818 30.8262 14.7785 30.2434 14.7785C21.5014 14.7659 12.747 14.2014 4.0422 13.3734C3.757 13.3483 3.5338 13.687 3.6082 13.9505C5.059 18.6676 6.9562 23.7108 10.143 27.5497C10.7382 28.2648 11.0606 28.4279 11.9658 28.5534C14.5202 28.8921 17.1118 29.0552 19.691 29.2183C27.0318 29.6825 34.385 29.6699 41.7258 29.2936C44.305 29.1681 46.8966 29.0176 49.4758 28.729C50.4554 28.6161 51.5218 28.6537 52.2038 27.8759C53.6794 26.1948 54.5474 23.6983 55.4402 21.6659C56.5314 19.1694 57.573 16.6478 58.4286 14.0634C58.5402 13.7247 58.193 13.4361 57.883 13.5114C54.0886 14.4147 50.1082 14.515 46.2394 14.6405C40.9198 14.8161 35.5878 14.791 30.2682 14.791C29.6854 14.791 29.6854 15.6943 30.2682 15.6943L30.231 15.6818Z" fill="#2C282B"/>
<path fill-rule="evenodd" clip-rule="evenodd" d="M30.2315 27.9012C41.8379 27.9012 52.6631 27.9012 57.9703 26.5965C56.5939 30.7992 52.6011 40.133 51.4231 40.6223C50.3691 41.0488 38.6635 41.927 28.3591 41.7765C19.8775 41.651 11.4827 40.7854 11.1479 40.6223C10.7015 40.3965 6.90707 35.9805 4.03027 26.4961C4.03027 26.4961 18.6499 27.9012 30.2315 27.9012Z" fill="#2C282B"/>
<path d="M30.231 28.3653C35.7242 28.3653 41.2174 28.3904 46.7106 28.2023C50.4926 28.0643 54.3862 27.9388 58.0938 27.0606L57.5482 26.5086C56.1594 30.6988 54.4606 34.9643 52.2782 38.8032C51.5218 40.133 51.187 40.3212 49.7238 40.4843C47.5414 40.7477 45.3342 40.8732 43.1394 40.9986C36.5302 41.375 29.9086 41.4879 23.2994 41.1868C20.3358 41.0488 17.3722 40.8606 14.421 40.5846C13.4662 40.4968 11.8294 40.5721 11.1722 40.0452C10.019 39.1419 9.1634 37.3228 8.4814 36.0683C6.7826 33.0072 5.5178 29.7328 4.4762 26.3832L4.0422 26.9603C12.7346 27.8008 21.5014 28.3528 30.2434 28.3653C30.8262 28.3653 30.8262 27.4621 30.2434 27.4621C21.5014 27.4495 12.747 26.885 4.0422 26.057C3.757 26.0319 3.5338 26.3706 3.6082 26.6341C5.059 31.3512 6.9562 36.3944 10.143 40.2333C10.7382 40.9484 11.0606 41.1115 11.9658 41.237C14.5202 41.5757 17.1118 41.7388 19.691 41.9019C27.0318 42.3661 34.385 42.3535 41.7258 41.9772C44.305 41.8517 46.8966 41.7012 49.4758 41.4126C50.4554 41.2997 51.5218 41.3373 52.2038 40.5595C53.6794 38.8784 54.5474 36.3819 55.4402 34.3495C56.5314 31.853 57.573 29.3313 58.4286 26.747C58.5402 26.4083 58.193 26.1197 57.883 26.195C54.0886 27.0983 50.1082 27.1986 46.2394 27.3241C40.9198 27.4997 35.5878 27.4746 30.2682 27.4746C29.6854 27.4746 29.6854 28.3779 30.2682 28.3779L30.231 28.3653Z" fill="#2C282B"/>
<path fill-rule="evenodd" clip-rule="evenodd" d="M30.2315 41.2869C41.8379 41.2869 52.6631 41.2869 57.9703 39.9822C56.5939 44.1849 52.6011 53.5187 51.4231 54.008C50.3691 54.4346 38.6635 55.3127 28.3591 55.1622C19.8775 55.0367 11.4827 54.1711 11.1479 54.008C10.7015 53.7822 6.90707 49.3662 4.03027 39.8818C4.03027 39.8818 18.6499 41.2869 30.2315 41.2869Z" fill="white"/>
<path d="M30.231 41.7384C35.7242 41.7384 41.2174 41.7635 46.7106 41.5753C50.4926 41.4373 54.3862 41.3118 58.0938 40.4337L57.5482 39.8817C56.1594 44.0718 54.4606 48.3373 52.2782 52.1762C51.5218 53.506 51.187 53.6942 49.7238 53.8573C47.5414 54.1208 45.3342 54.2462 43.1394 54.3717C36.5302 54.748 29.9086 54.8609 23.2994 54.5598C20.3358 54.4218 17.3722 54.2337 14.421 53.9577C13.4662 53.8698 11.8294 53.9451 11.1722 53.4182C10.019 52.5149 9.1634 50.6958 8.4814 49.4413C6.7826 46.3802 5.5178 43.1058 4.4762 39.7562L4.0422 40.3333C12.7346 41.1738 21.5014 41.7258 30.2434 41.7384C30.8262 41.7384 30.8262 40.8351 30.2434 40.8351C21.5014 40.8226 12.747 40.258 4.0422 39.43C3.757 39.4049 3.5338 39.7437 3.6082 40.0071C5.059 44.7242 6.9562 49.7675 10.143 53.6064C10.7382 54.3215 11.0606 54.4846 11.9658 54.61C14.5202 54.9488 17.1118 55.1118 19.691 55.2749C27.0318 55.7391 34.385 55.7266 41.7258 55.3502C44.305 55.2248 46.8966 55.0742 49.4758 54.7857C50.4554 54.6728 51.5218 54.7104 52.2038 53.9326C53.6794 52.2515 54.5474 49.7549 55.4402 47.7226C56.5314 45.226 57.573 42.7044 58.4286 40.12C58.5402 39.7813 58.193 39.4928 57.883 39.568C54.0886 40.4713 50.1082 40.5717 46.2394 40.6971C40.9198 40.8728 35.5878 40.8477 30.2682 40.8477C29.6854 40.8477 29.6854 41.7509 30.2682 41.7509L30.231 41.7384Z" fill="#2C282B"/>
<path fill-rule="evenodd" clip-rule="evenodd" d="M9.53516 31.8906C10.118 33.7474 11.3084 35.7672 12.536 37.1221L9.53516 31.8906Z" fill="#2C282B"/>
<path d="M9.10163 32.0031C9.73403 33.9978 10.8252 35.8796 12.214 37.4353C12.5984 37.8744 13.2308 37.222 12.8464 36.7955C11.5692 35.3653 10.54 33.6089 9.95723 31.7647C9.78363 31.2127 8.91563 31.4511 9.08923 32.0031H9.10163Z" fill="white"/>
<path d="M40.3248 53.1049C42.9412 53.1676 45.5576 53.0045 48.1492 52.6533C48.7196 52.578 48.4716 51.6998 47.9136 51.7751C45.3964 52.1138 42.8668 52.2518 40.3248 52.1891C39.742 52.1765 39.742 53.0798 40.3248 53.0924V53.1049Z" fill="#2C282B"/>
<path d="M51.4348 24.4883C51.8936 23.7481 52.2532 22.9452 52.6004 22.1548C52.9724 21.3017 53.3444 20.4486 53.7164 19.583C53.8156 19.3572 53.7784 19.0937 53.5552 18.9683C53.3692 18.8554 53.0344 18.9055 52.9476 19.1314C52.5756 19.9845 52.2036 20.8375 51.8316 21.7032C51.4844 22.5061 51.1248 23.2965 50.666 24.0366C50.356 24.5259 51.1248 24.9901 51.4348 24.4883Z" fill="#2C282B"/>
</svg>