<?xml version="1.0" encoding="utf-8"?>
<svg xmlns="http://www.w3.org/2000/svg" width="40" height="40" viewBox="0 0 40 40" fill="none">
<g id="fire">
<path id="Vector" d="M26.0224 16.7744C25.9738 16.7195 25.9115 16.6789 25.842 16.6568C25.7724 16.6347 25.6982 16.6319 25.6273 16.6488C25.5563 16.6657 25.4912 16.7016 25.4388 16.7527C25.3864 16.8038 25.3486 16.8682 25.3295 16.9392C25.0913 17.8886 24.5761 18.7443 23.8505 19.3955C24.0685 10.7708 19.2967 6.93325 19.0865 6.76845C19.035 6.72339 18.9732 6.69191 18.9066 6.67685C18.84 6.66178 18.7708 6.6636 18.7051 6.68212C18.6402 6.70832 18.5832 6.751 18.5395 6.80601C18.4959 6.86102 18.4671 6.92648 18.456 6.99603C17.1404 13.1487 14.4471 16.4134 14.4237 16.4605C11.4034 20.1882 10.2824 23.5863 11.0842 26.5841C12.2441 30.8847 16.9147 32.7054 17.1638 32.7995C18.0817 33.1595 19.0591 33.3406 20.044 33.3332C21.701 33.3164 23.3266 32.8763 24.7691 32.054C25.8496 31.4939 26.793 30.6984 27.5309 29.7251C28.2687 28.7519 28.7824 27.6254 29.0349 26.4271C29.9067 21.483 26.1703 16.9627 26.0146 16.7744M24.1697 31.5204C23.1512 32.09 22.0245 32.4356 20.8639 32.5343C19.7032 32.6331 18.535 32.4827 17.4362 32.0932C16.9638 31.8994 16.5059 31.6712 16.0662 31.4105C15.5715 30.4747 15.3219 29.4272 15.341 28.367C15.3601 27.3068 15.6472 26.2691 16.1752 25.352C16.4878 26.1524 17.0298 26.8409 17.732 27.3296C17.7861 27.3551 17.8458 27.3661 17.9054 27.3618C17.9649 27.3575 18.0224 27.3378 18.0723 27.3048C18.1222 27.2718 18.1629 27.2265 18.1905 27.1731C18.2182 27.1198 18.2319 27.0602 18.2302 27C18.2216 24.2498 18.9245 21.5449 20.2697 19.1523C20.5907 21.036 21.3394 22.8194 22.4571 24.3632C24.302 26.8823 25.7032 29.1582 24.1775 31.5439" fill="#4D4D4F"/>
</g>
</svg>