<?xml version="1.0" encoding="utf-8"?>
<svg xmlns="http://www.w3.org/2000/svg" width="32" height="32" viewBox="0 0 32 32" fill="none">
<path d="M13.173 14.0344C13.173 14.0344 13.2179 14.0344 13.2372 14.0216C13.295 13.9831 13.3914 13.9317 13.462 13.9959C13.4813 14.0088 13.5006 14.0152 13.5263 14.0152C13.552 14.0152 13.5712 14.0023 13.5841 13.9895C13.5969 13.9766 13.6098 13.9509 13.6098 13.9252C13.6098 13.8995 13.6033 13.8803 13.5841 13.861C13.5198 13.8096 13.4428 13.7839 13.3592 13.7903C13.2757 13.7968 13.1987 13.8225 13.1408 13.8739C13.1216 13.8867 13.1087 13.906 13.1023 13.9252C13.1023 13.9445 13.1023 13.9702 13.1151 13.9895C13.128 14.0088 13.1473 14.0216 13.173 14.028V14.0344Z" fill="#2C282B"/>
<path d="M5.26539 15.7688C5.36817 15.8074 5.47737 15.7624 5.52234 15.6596C5.5673 15.5569 5.51591 15.4477 5.41314 15.4027C5.31036 15.3642 5.20115 15.4091 5.15619 15.5119C5.11122 15.6147 5.16261 15.7239 5.26539 15.7688Z" fill="#2C282B"/>
<path d="M6.26105 17.2013C6.29959 17.2463 6.37025 17.2527 6.42164 17.2142C6.90342 16.8031 7.14752 16.1864 7.0897 15.5569C7.0897 15.4926 7.03189 15.4477 6.96765 15.4541C6.90342 15.4541 6.85845 15.5119 6.86487 15.5761C6.91626 16.135 6.69786 16.6746 6.2739 17.0407C6.22893 17.0793 6.22251 17.1499 6.26105 17.2013Z" fill="#2C282B"/>
<path d="M6.97422 17.2013C6.92283 17.2399 6.91641 17.3105 6.95495 17.3555C6.99349 17.4069 7.06415 17.4133 7.10912 17.3748C7.57163 17.0215 7.79003 16.4755 7.7001 15.9037C7.69368 15.8395 7.63586 15.801 7.57162 15.8074C7.50739 15.8138 7.46885 15.8716 7.47527 15.9359C7.55235 16.4241 7.35964 16.893 6.9678 17.1949L6.97422 17.2013Z" fill="#2C282B"/>
<path d="M27.941 16.0643C27.941 16.0643 27.941 16.0579 27.9346 16.0515C27.8961 16.0001 27.8318 15.9873 27.7933 15.9744C27.7419 15.968 27.6841 15.9616 27.6263 15.9616C27.5042 15.9616 27.3436 15.9808 27.1638 16.0001C26.9775 16.0258 26.7591 16.0579 26.5407 16.0965C26.6884 16.0065 26.849 15.9166 26.9903 15.8267C27.1509 15.7239 27.2987 15.6275 27.4143 15.544C27.4721 15.4991 27.5235 15.4541 27.562 15.4155C27.6006 15.377 27.6391 15.332 27.652 15.2742C27.7034 15.0944 27.6263 14.9723 27.5877 14.9209V14.9145C27.5171 14.8246 27.4143 14.7668 27.2922 14.7539C27.2409 14.7539 27.183 14.7668 27.1317 14.7796C27.0738 14.7989 27.016 14.8246 26.9518 14.8631C26.8233 14.9273 26.6692 15.0237 26.5086 15.1329C26.3544 15.2357 26.1938 15.3513 26.0396 15.4605C26.1553 15.2806 26.2645 15.1008 26.3608 14.9466C26.4508 14.8053 26.5278 14.6704 26.5728 14.5612C26.5985 14.5098 26.6178 14.4584 26.6242 14.407C26.6306 14.3621 26.6306 14.2978 26.5921 14.2464C26.5278 14.1565 26.4186 14.0923 26.303 14.0923C26.2066 14.0923 26.1231 14.1244 26.0589 14.1694C26.0011 14.2079 25.9369 14.2593 25.879 14.3364C25.8341 14.3878 25.7827 14.452 25.7441 14.5098C25.6735 14.6126 25.6157 14.7218 25.5579 14.8181C25.4872 14.953 25.423 15.0879 25.3523 15.2293C25.333 15.2742 25.3138 15.3128 25.2945 15.3642C25.2752 15.4027 25.2559 15.4477 25.2303 15.4991C25.1018 15.4669 24.9862 15.4477 24.8705 15.4477L23.149 9.79483C23.4637 9.60854 23.6757 9.26809 23.6757 8.87624C23.6757 8.28526 23.1939 7.80349 22.5965 7.80349C22.179 7.80349 21.8193 8.04116 21.6394 8.38804H17.0786C16.9437 7.81634 16.4748 7.3731 15.8902 7.27032C15.8003 7.25105 15.7104 7.24463 15.614 7.24463C14.901 7.24463 14.31 7.73283 14.1558 8.39447H9.48582C9.31238 8.07971 8.98477 7.86773 8.59935 7.86773C8.3681 7.86773 8.14969 7.95123 7.98268 8.08613C7.6615 8.27884 7.43667 8.62572 7.43667 9.03041C7.43667 9.4351 7.6358 9.75629 7.93771 9.949L6.45384 14.8117C5.44533 14.7025 4.61667 15.0751 4.32761 15.2293H4.30834C4.19271 15.2935 4.14132 15.422 4.17986 15.5504C4.21841 15.6725 4.35973 16.09 4.66806 16.5461C4.8672 16.8416 5.14341 17.1499 5.49672 17.4133H4.19271C4.08351 17.4133 4 17.4968 4 17.606C4 20.2333 6.13908 22.3724 8.79206 22.3724C11.445 22.3724 13.5905 20.2397 13.5905 17.606C13.5905 17.4968 13.507 17.4133 13.3978 17.4133H11.7662C11.824 17.2656 11.8947 17.1242 11.9718 16.9829C12.0746 16.7902 12.1966 16.6104 12.3379 16.4433C12.3957 16.3791 12.46 16.3277 12.5306 16.2699C12.6591 16.1671 12.7876 16.0643 12.839 15.9102C12.8647 15.8331 12.8647 15.7496 12.839 15.6725L13.5199 15.0751C13.6998 15.1329 14.2779 15.2742 14.5027 14.876C14.5477 14.7924 14.5734 14.6961 14.5669 14.5997C14.5669 14.5162 14.5413 14.4263 14.4963 14.3556C14.4385 14.2593 14.355 14.1822 14.2522 14.1244C14.1494 14.0666 14.0402 14.0409 13.931 14.0345C13.9374 13.9381 13.9246 13.8417 13.8925 13.7454C13.8603 13.649 13.8025 13.572 13.7383 13.5013C13.6548 13.4499 13.5649 13.4178 13.4685 13.4114C13.3721 13.4049 13.2758 13.4242 13.1859 13.4627C13.0959 13.4949 13.0188 13.5398 12.9546 13.6041C12.8904 13.6683 12.8326 13.7454 12.8004 13.8289C12.7683 13.9445 12.7619 14.0602 12.7812 14.1758C12.8004 14.2914 12.8454 14.4006 12.9161 14.497L12.3187 15.043C12.2416 15.0109 12.1645 14.9916 12.081 14.998C11.9975 14.998 11.9204 15.0237 11.8497 15.0622C11.7084 15.1522 11.5671 15.2421 11.4322 15.3449C11.2844 15.4284 11.1303 15.5055 10.9761 15.5697L9.2353 9.86549C9.31238 9.80125 9.37662 9.73702 9.43443 9.65351H14.4256C14.5413 9.80125 14.6826 9.9233 14.8432 10.0132V22.5972H12.7234C12.3251 22.5972 12.0039 22.8927 12.0039 23.2589V23.6443H11.7405C11.6378 23.6443 11.5607 23.7085 11.5157 23.7663C11.4707 23.8306 11.4515 23.9076 11.4515 23.9912V24.4087C11.4515 24.4858 11.4707 24.5693 11.5157 24.6335C11.5607 24.6978 11.6313 24.7556 11.7405 24.7556H19.5132C19.616 24.7556 19.693 24.6913 19.738 24.6335C19.783 24.5693 19.8022 24.4922 19.8022 24.4087V23.9912C19.8022 23.9141 19.783 23.8306 19.738 23.7663C19.693 23.7021 19.6224 23.6443 19.5132 23.6443H19.2305V23.2589C19.2305 22.8927 18.9094 22.5972 18.5111 22.5972H16.1729V10.1224C16.4105 10.0261 16.6161 9.86549 16.7703 9.66636H21.8514L21.8321 9.73059L20.7401 13.3086C20.6887 13.3086 20.6437 13.3022 20.5924 13.3086C20.374 13.3471 20.2198 13.4242 20.1042 13.5655C19.995 13.7004 19.9243 13.8867 19.8536 14.1051C19.8151 14.2336 19.7894 14.3878 19.7701 14.5227C19.7444 14.664 19.7123 14.7989 19.6609 14.9081C19.6352 14.953 19.6031 14.998 19.5581 15.043C19.5068 15.0944 19.4554 15.1393 19.3976 15.1971C19.2884 15.2999 19.1599 15.4348 19.1213 15.6083C19.0828 15.7753 19.147 15.9423 19.1984 16.0772C19.2562 16.2249 19.314 16.347 19.3269 16.4626C19.3397 16.5782 19.3076 16.7003 19.2819 16.848C19.2627 16.9765 19.237 17.1499 19.3205 17.2848C19.3462 17.3234 19.3783 17.3426 19.4104 17.3683H17.5861C17.4769 17.3683 17.3869 17.4583 17.3869 17.5675C17.3869 20.3168 19.6288 22.5458 22.3974 22.5458C25.166 22.5458 27.4079 20.3232 27.4079 17.5675C27.4079 17.4583 27.3179 17.3683 27.2087 17.3683H26.258C26.2902 17.2591 26.303 17.1435 26.3159 17.0215C26.3159 16.9829 26.3094 16.9508 26.3094 16.9123C26.3929 16.9123 26.4829 16.8994 26.5664 16.8866C26.5664 16.8866 26.5664 16.8866 26.5728 16.8866C26.727 16.8737 26.8811 16.848 27.0289 16.8288C27.0931 16.8159 27.1509 16.8095 27.2087 16.7966C27.2666 16.7838 27.3244 16.7774 27.3886 16.7645C27.4657 16.7452 27.5364 16.726 27.607 16.7003L27.5749 16.5911L27.6134 16.6939C27.6905 16.6617 27.7676 16.6296 27.8383 16.5718C27.9025 16.514 27.9539 16.4498 27.986 16.3727V16.3663C28.0181 16.2506 27.9924 16.1478 27.9346 16.0515L27.941 16.0643ZM13.0767 14.5869C13.0767 14.5869 13.1024 14.5548 13.1024 14.5355C13.1024 14.5162 13.1024 14.4905 13.0895 14.4777C13.0253 14.4006 12.9739 14.3043 12.9546 14.2079C12.9289 14.1051 12.9289 14.0023 12.9546 13.906C12.9803 13.8482 13.0253 13.7904 13.0702 13.7454C13.1152 13.7004 13.1794 13.6683 13.2437 13.649C13.3015 13.6233 13.3721 13.6105 13.4364 13.6105C13.5006 13.6105 13.5649 13.6298 13.6227 13.6683C13.6741 13.7325 13.7126 13.8096 13.7383 13.8867C13.7576 13.9702 13.764 14.0537 13.7511 14.1372C13.7511 14.1501 13.7511 14.1629 13.7511 14.1758C13.7511 14.1886 13.764 14.2015 13.7704 14.2079C13.7768 14.2143 13.7897 14.2272 13.8025 14.2272C13.8154 14.2272 13.8282 14.2336 13.8411 14.2336C13.9374 14.2272 14.0338 14.24 14.1237 14.2786C14.2136 14.3171 14.2907 14.3813 14.3485 14.4584C14.3807 14.5098 14.3999 14.5676 14.3999 14.6319C14.3999 14.6961 14.3871 14.7539 14.3614 14.8053C14.188 15.1072 13.6484 14.9402 13.5649 14.9081C13.5584 14.9081 13.552 14.9081 13.552 14.9081C13.5392 14.9081 13.5199 14.9017 13.5006 14.9081C13.4813 14.9145 13.4685 14.9209 13.4557 14.9273L12.7876 15.5119C12.7298 15.4091 12.6591 15.3128 12.5756 15.2357C12.5435 15.2036 12.5114 15.1779 12.4793 15.1522L13.0767 14.5997V14.5869ZM19.4875 24.0104V24.428C19.4875 24.428 19.4875 24.4537 19.4875 24.4665H11.7791C11.7791 24.4665 11.7791 24.4472 11.7791 24.428V24.0104C11.7791 24.0104 11.7791 23.9847 11.7791 23.9719H19.4875C19.4875 23.9719 19.4875 23.9912 19.4875 24.0104ZM26.6178 15.3192C26.7784 15.2164 26.9197 15.1265 27.0417 15.0622C27.0995 15.0301 27.1509 15.0109 27.1959 14.9916C27.2152 14.9852 27.2344 14.9787 27.2473 14.9787H27.2601C27.3179 14.9787 27.3629 15.0109 27.4015 15.0558C27.4143 15.0751 27.4271 15.0944 27.4336 15.1136C27.44 15.1329 27.4464 15.165 27.4336 15.2164C27.4336 15.2164 27.4336 15.2293 27.395 15.2614C27.3693 15.2935 27.3244 15.3256 27.273 15.3642C27.1702 15.4477 27.0289 15.5376 26.8683 15.634C26.7077 15.7303 26.5343 15.8331 26.3672 15.9294C26.2452 16.0001 26.1296 16.0708 26.0268 16.135C25.9754 16.0579 25.9304 15.9808 25.8662 15.9102L25.8341 15.8716C26.0653 15.6918 26.3544 15.4862 26.6178 15.3063V15.3192ZM25.5386 15.332C25.6092 15.1971 25.6735 15.0622 25.7441 14.9338C25.8084 14.8246 25.8533 14.7346 25.9176 14.6447C25.9497 14.5933 25.9947 14.5355 26.0396 14.4905C26.0846 14.4327 26.1296 14.3942 26.1745 14.3621C26.2131 14.3364 26.2516 14.3235 26.2966 14.3235C26.3287 14.3235 26.3672 14.3492 26.3929 14.3813C26.3929 14.4006 26.3801 14.4327 26.3544 14.4841C26.3159 14.574 26.2452 14.6961 26.1553 14.8438C26.0011 15.0944 25.7955 15.4091 25.6157 15.7175C25.5514 15.6725 25.4872 15.634 25.4101 15.6018C25.4294 15.5569 25.4487 15.5183 25.4679 15.4798C25.4872 15.4348 25.5129 15.3963 25.5322 15.3513L25.5386 15.332ZM15.3314 22.6101V10.2059C15.4149 10.2188 15.5048 10.2316 15.5947 10.2316C15.6204 10.2316 15.6525 10.2252 15.6782 10.2252V22.6101H15.3314ZM15.6012 9.949C15.5177 9.949 15.4341 9.93615 15.3571 9.9233C14.7982 9.80768 14.3807 9.31948 14.3807 8.73492C14.3807 8.06686 14.9267 7.52727 15.6012 7.52727C16.2756 7.52727 16.8217 8.07328 16.8217 8.73492C16.8217 9.39656 16.2756 9.94257 15.6012 9.94257V9.949ZM7.68719 9.02399C7.68719 8.56148 8.06619 8.18891 8.52869 8.18891C8.9912 8.18891 9.37019 8.56148 9.37019 9.02399C9.37019 9.31948 9.20318 9.57 8.97193 9.71774C8.84988 9.77556 8.7214 9.80768 8.58008 9.80768C8.20751 9.80768 7.88632 9.58927 7.73858 9.28093C7.71289 9.19743 7.68719 9.11392 7.68719 9.02399ZM8.79206 21.987C6.4153 21.987 4.49462 20.1241 4.39184 17.7987H5.76651L5.80505 17.818V17.7987H11.368V17.818L11.4065 17.7987H13.2051C13.1024 20.1305 11.1752 21.987 8.79849 21.987H8.79206ZM7.20541 15.2164C7.85421 15.4734 8.27817 15.8781 8.54796 16.2249C8.68286 16.3984 8.77279 16.5525 8.83061 16.6682C8.86272 16.726 8.88199 16.7709 8.89484 16.8031C8.90127 16.8159 8.90769 16.8288 8.90769 16.8352V16.8416C8.92696 16.8994 8.9912 16.9251 9.04901 16.9123C9.04901 16.9123 9.04901 16.9123 9.06186 16.9123C9.06828 16.9123 9.08113 16.9058 9.1004 16.8994C9.13252 16.8866 9.17748 16.8737 9.22887 16.8609C9.33808 16.8288 9.4794 16.7902 9.61429 16.7517C9.68495 16.7324 9.74919 16.7196 9.807 16.7131C9.78131 16.7388 9.74919 16.7645 9.71707 16.7902C9.68495 16.8223 9.64641 16.848 9.60787 16.8801C9.46655 17.0086 9.29311 17.1628 9.2096 17.3105C9.2096 17.3105 9.2096 17.3234 9.2096 17.3298C9.19675 17.3555 9.19033 17.3876 9.17748 17.4133H7.91202C8.22678 17.1371 8.37452 16.7388 8.30386 16.3149C8.29102 16.257 8.2332 16.2121 8.17539 16.2249C8.11758 16.2378 8.07261 16.2956 8.08546 16.3534C8.15612 16.7324 8.00837 17.0857 7.70004 17.3105C7.66792 17.3362 7.65507 17.3748 7.6615 17.4069H5.93995L6.6594 15.0558C6.83927 15.0879 7.02555 15.1393 7.21826 15.21L7.20541 15.2164ZM9.01689 16.8095C9.01689 16.8095 9.03616 16.8609 9.04259 16.8801L9.01689 16.8095ZM10.4365 15.7624C10.1089 15.8588 9.77489 15.9359 9.44085 16.0001C9.21603 16.0322 8.9912 16.0965 8.77922 16.1735C8.75994 16.1478 8.7471 16.1222 8.72783 16.0965C8.44518 15.7239 7.98268 15.2871 7.28892 15.0173C7.08979 14.9402 6.9035 14.8888 6.71079 14.8567L8.16897 10.0775C8.28459 10.116 8.40664 10.1417 8.52869 10.1417C8.69571 10.1417 8.84988 10.1032 8.9912 10.0389L10.7127 15.6789C10.6228 15.711 10.5265 15.7496 10.4365 15.7688V15.7624ZM9.5886 9.33232C9.61429 9.23597 9.63356 9.13319 9.63356 9.03041C9.63356 8.92763 9.61429 8.82485 9.5886 8.73492L14.0917 8.73491C14.0917 8.73491 14.0916 8.74135 14.0916 8.74777C14.0916 8.95975 14.1366 9.15888 14.2136 9.33875H9.5886V9.33232ZM8.77279 7.95123C8.83703 7.96408 8.89484 7.98335 8.95265 8.00905C8.89484 7.98335 8.83703 7.9705 8.77279 7.95123ZM22.0891 9.82695C22.2368 9.89761 22.3974 9.949 22.5708 9.949C22.6736 9.949 22.7764 9.92973 22.8728 9.90403L24.575 15.4926C24.4337 15.5376 24.3052 15.6147 24.1703 15.7367C23.8684 16.0129 23.5858 16.3277 23.316 16.6296C23.2518 16.7003 23.1875 16.7709 23.1233 16.8416C23.0141 16.9637 22.8406 17.1564 22.6415 17.3876H22.2368C22.2368 17.3876 22.2561 17.3298 22.2625 17.3041C22.3011 17.2013 22.3267 17.1242 22.3396 17.0985C22.3589 17.0664 22.3846 17.0343 22.4295 16.9893C22.4745 16.9444 22.5195 16.9123 22.5708 16.8609C22.6672 16.7709 22.7957 16.6553 22.8214 16.4947C22.8342 16.4176 22.8214 16.3406 22.8021 16.2763C22.7828 16.2121 22.7507 16.1478 22.7186 16.0836C22.6544 15.9551 22.603 15.8524 22.5901 15.7496C22.5901 15.6982 22.5901 15.6404 22.5901 15.5761C22.5901 15.544 22.5965 15.5119 22.603 15.4734C22.603 15.4412 22.6158 15.4027 22.6158 15.3706C22.6351 15.2293 22.6415 15.0622 22.5452 14.9145C22.4552 14.7668 22.2882 14.6961 22.1597 14.6447C22.0891 14.619 22.0248 14.5933 21.967 14.5676C21.9092 14.5419 21.8642 14.5162 21.8321 14.4841C21.6587 14.3171 21.5238 14.0602 21.4339 13.8482L21.3311 13.8931L21.4339 13.8417C21.3504 13.6747 21.254 13.5206 21.1127 13.4242C21.0806 13.3985 21.0356 13.3921 20.997 13.3728L22.0698 9.84622L22.0891 9.82695ZM22.5773 8.00905C23.0655 8.00905 23.4573 8.40089 23.4573 8.87624C23.4573 9.35159 23.0655 9.74344 22.5773 9.74344C22.0891 9.74344 21.6972 9.35159 21.6972 8.87624C21.6972 8.40089 22.0891 8.00905 22.5773 8.00905ZM20.9906 13.6041C21.0806 13.6683 21.1576 13.7839 21.2347 13.9381C21.3311 14.1501 21.4724 14.4456 21.6844 14.6447C21.7422 14.7025 21.8129 14.7411 21.8835 14.7732C21.9478 14.8053 22.0248 14.831 22.0891 14.8567C22.224 14.9081 22.3139 14.9595 22.3653 15.0301C22.4103 15.1008 22.4167 15.1971 22.3974 15.332C22.3974 15.3642 22.391 15.3963 22.3846 15.4348C22.3846 15.4669 22.3717 15.5055 22.3717 15.544C22.3653 15.6147 22.3589 15.6918 22.3717 15.7688C22.391 15.923 22.4681 16.0708 22.5259 16.18C22.558 16.2378 22.5773 16.2892 22.5965 16.3341C22.6094 16.3791 22.6158 16.4112 22.6094 16.4433C22.5965 16.5204 22.5323 16.5911 22.4295 16.681C22.3846 16.7196 22.3267 16.7709 22.2818 16.8159C22.2304 16.8609 22.1854 16.9187 22.1469 16.9829L22.2497 17.0407L22.1469 16.9893C22.1212 17.0343 22.0891 17.1307 22.057 17.227C22.0377 17.2784 22.0184 17.3362 22.0056 17.3876H21.4082L21.3632 17.1564L21.9156 16.5975C21.9606 16.5525 21.9606 16.4755 21.9156 16.4305C21.8707 16.3855 21.7936 16.3855 21.7486 16.4305L21.3118 16.8737L21.1769 16.135L21.7422 15.5569C21.7872 15.5119 21.7872 15.4348 21.7422 15.3899C21.6972 15.3449 21.6201 15.3449 21.5752 15.3899L21.1255 15.8524L20.9457 14.8952C20.9328 14.831 20.875 14.7924 20.8108 14.7989C20.7465 14.8117 20.708 14.8695 20.7144 14.9338L20.9007 15.9487L20.2776 15.7945L20.9521 13.5848C20.9521 13.5848 20.9842 13.5976 20.997 13.6041H20.9906ZM25.0889 17.1628L24.8127 16.8159C24.7613 16.7517 24.665 16.7388 24.5943 16.7902C24.5301 16.8416 24.5172 16.938 24.5686 17.0086L24.8641 17.3748H23.059C23.1811 17.2334 23.2839 17.1178 23.361 17.0343C23.4252 16.9637 23.4894 16.893 23.5537 16.8159C23.8235 16.514 24.0933 16.2185 24.3823 15.9487C24.498 15.8459 24.5815 15.7945 24.665 15.7688L25.0889 17.1564V17.1628ZM22.3974 22.154C19.9114 22.154 17.8944 20.2076 17.7852 17.773H27.0032C26.9004 20.2076 24.8769 22.154 22.391 22.154H22.3974ZM20.9392 16.1992L21.0806 16.9637L20.4446 16.726C20.3868 16.7067 20.3161 16.7324 20.2969 16.7966C20.2712 16.8545 20.3033 16.9251 20.3675 16.9444L21.1384 17.227L21.1641 17.3748H19.9628C19.9628 17.3748 19.9114 17.3619 19.8858 17.3491C19.8601 17.3426 19.8344 17.3362 19.8087 17.3234L20.2069 16.0129L20.9457 16.1928L20.9392 16.1992ZM21.5109 8.7285C21.5045 8.77989 21.4981 8.82485 21.4981 8.87624C21.4981 9.03683 21.5366 9.191 21.6009 9.33232H16.9758C17.0529 9.15246 17.0979 8.95333 17.0979 8.74135C17.0979 8.74135 17.0979 8.73492 17.0979 8.7285H21.5109ZM4.36617 15.3256L4.41754 15.422C4.68733 15.2742 5.44533 14.9338 6.37034 15.0237L5.683 17.272C5.3297 17.0215 5.05348 16.7131 4.85435 16.4176C4.55886 15.9808 4.42396 15.5826 4.39184 15.4798C4.39184 15.4798 4.39184 15.4348 4.41754 15.422L4.37257 15.3449L4.35973 15.3256L4.36617 15.3256ZM19.4104 16.0001C19.3526 15.8588 19.3269 15.756 19.3462 15.6661C19.3719 15.5633 19.4489 15.4734 19.5581 15.3706C19.6095 15.3192 19.6673 15.2678 19.7252 15.21C19.7765 15.1522 19.8344 15.0944 19.8665 15.0173C19.9371 14.8695 19.9757 14.7089 20.0014 14.5612C20.0271 14.407 20.0463 14.285 20.0785 14.1758C20.1555 13.9509 20.2134 13.8096 20.2904 13.7133C20.3611 13.6233 20.4575 13.5655 20.6374 13.5398C20.6374 13.5398 20.663 13.5398 20.6759 13.5398L19.5581 17.2078C19.5581 17.2078 19.526 17.1821 19.5132 17.1692C19.4811 17.1178 19.4811 17.0343 19.5068 16.893C19.526 16.7709 19.571 16.6039 19.5517 16.4433C19.5324 16.2827 19.4618 16.1222 19.4104 15.9937V16.0001ZM25.4358 17.3812L24.9412 15.7624C24.999 15.7688 25.0568 15.7817 25.1275 15.801C25.2945 15.8459 25.4422 15.9359 25.5579 16.0515L25.6285 16.1286C25.712 16.2249 25.7891 16.3213 25.8469 16.4305L25.8983 16.5204C25.9754 16.6746 26.0139 16.8288 26.0075 17.0022C25.9947 17.1499 25.9818 17.2527 25.9497 17.3298C25.9497 17.3491 25.9497 17.3619 25.9497 17.3812H25.4294H25.4358ZM27.5428 16.4947C27.4721 16.514 27.4143 16.5397 27.3501 16.5525C27.2922 16.5654 27.2344 16.5718 27.1702 16.5847C27.1124 16.5975 27.0546 16.6039 26.9968 16.6168C26.8426 16.636 26.6948 16.6617 26.5471 16.6746H26.5407C26.4636 16.6874 26.3801 16.6939 26.2966 16.7003C26.2709 16.5911 26.2323 16.4819 26.1874 16.3855C26.5407 16.3277 26.894 16.2635 27.1895 16.2249C27.3629 16.1992 27.5171 16.1864 27.6263 16.1864C27.6841 16.1864 27.7226 16.1864 27.7483 16.1928C27.7548 16.1928 27.7548 16.1928 27.7612 16.1928C27.7805 16.2378 27.7869 16.2699 27.7805 16.302C27.7676 16.3406 27.7419 16.3727 27.7034 16.4112C27.6648 16.4433 27.6199 16.469 27.5492 16.4947H27.5428Z" fill="#2C282B"/>
<path d="M27.6134 16.7067H27.6198L27.5813 16.6039L27.6134 16.7067Z" fill="#2C282B"/>
<path d="M15.7746 9.57001V9.60855H15.781C15.781 9.60855 15.7939 9.60855 15.8067 9.60855C15.826 9.60855 15.8581 9.5957 15.8967 9.58928C15.9673 9.57001 16.0637 9.53789 16.16 9.48008C16.3592 9.35803 16.5583 9.13962 16.5583 8.74778C16.5583 8.55507 16.5133 8.40732 16.4298 8.2917C16.3527 8.17607 16.25 8.10541 16.1472 8.06045C16.0508 8.01548 15.948 7.99621 15.8774 7.98336C15.8388 7.98336 15.8132 7.97694 15.7875 7.97694C15.7746 7.97694 15.7682 7.97694 15.7618 7.97694H15.7553C15.6975 7.97694 15.659 8.02833 15.659 8.07972C15.659 8.13111 15.7104 8.17607 15.7618 8.17607C15.7618 8.17607 15.7746 8.17607 15.781 8.17607C15.8003 8.17607 15.8196 8.17607 15.8517 8.17607C15.9095 8.1825 15.9866 8.20177 16.0637 8.23388C16.1408 8.266 16.2114 8.31739 16.2628 8.39448C16.3142 8.47156 16.3527 8.58076 16.3527 8.73493C16.3527 9.04327 16.205 9.20386 16.0508 9.29379C15.9737 9.33876 15.8967 9.36445 15.8388 9.38372C15.8067 9.39015 15.7875 9.39657 15.7682 9.39657C15.7618 9.39657 15.7553 9.39657 15.7489 9.39657C15.6911 9.39657 15.6526 9.45438 15.659 9.50577C15.659 9.56359 15.7168 9.60213 15.7682 9.5957C15.7682 9.5957 15.7682 9.5957 15.7682 9.55716L15.7746 9.57001Z" fill="#2C282B"/>
<path d="M25.8598 19.546C25.7891 19.4946 25.6863 19.5203 25.6414 19.5909C25.5386 19.7451 25.3587 19.9956 25.1596 20.2333C24.9605 20.4774 24.7485 20.7022 24.575 20.8114C24.5044 20.8628 24.4851 20.9592 24.5301 21.0298C24.575 21.1005 24.6778 21.1198 24.7485 21.0748C24.9605 20.9335 25.1981 20.683 25.3973 20.4324C25.6028 20.1819 25.7891 19.925 25.8983 19.7644C25.9497 19.6937 25.924 19.5909 25.8534 19.546H25.8598Z" fill="#2C282B"/>
<path d="M11.3936 19.591C11.2908 19.7451 11.1109 19.9956 10.9118 20.2333C10.7126 20.4774 10.5007 20.7022 10.3272 20.8115C10.2566 20.8628 10.2373 20.9592 10.2823 21.0299C10.3272 21.1005 10.43 21.1198 10.5007 21.0748C10.7126 20.9335 10.9503 20.683 11.1495 20.4325C11.355 20.1819 11.5413 19.925 11.6505 19.7644C11.7019 19.6937 11.6762 19.591 11.6055 19.546C11.5349 19.501 11.4321 19.5203 11.3871 19.591H11.3936Z" fill="#2C282B"/>
</svg>