<svg width="49" height="48" viewBox="0 0 49 48" fill="none" xmlns="http://www.w3.org/2000/svg">
<path d="M20.2594 21.0514C20.2594 21.0514 20.3269 21.0514 20.3558 21.0322C20.4425 20.9743 20.587 20.8973 20.693 20.9936C20.7219 21.0129 20.7509 21.0225 20.7894 21.0225C20.8279 21.0225 20.8568 21.0032 20.8761 20.984C20.8954 20.9647 20.9147 20.9262 20.9147 20.8876C20.9147 20.8491 20.905 20.8202 20.8761 20.7913C20.7798 20.7142 20.6641 20.6756 20.5389 20.6853C20.4136 20.6949 20.298 20.7335 20.2113 20.8105C20.1824 20.8298 20.1631 20.8587 20.1534 20.8876C20.1534 20.9165 20.1534 20.9551 20.1727 20.984C20.192 21.0129 20.2209 21.0322 20.2594 21.0418V21.0514Z" fill="#2C282B"/>
<path d="M8.39809 23.653C8.55225 23.7108 8.71606 23.6434 8.78351 23.4892C8.85095 23.3351 8.77387 23.1713 8.6197 23.1038C8.46553 23.046 8.30173 23.1134 8.23428 23.2676C8.16683 23.4218 8.24392 23.5856 8.39809 23.653Z" fill="#2C282B"/>
<path d="M9.89157 25.8018C9.94939 25.8692 10.0554 25.8788 10.1325 25.821C10.8551 25.2043 11.2213 24.2793 11.1346 23.3351C11.1346 23.2387 11.0478 23.1713 10.9515 23.1809C10.8551 23.1809 10.7877 23.2676 10.7973 23.364C10.8744 24.2023 10.5468 25.0116 9.91084 25.5609C9.84339 25.6187 9.83376 25.7247 9.89157 25.8018Z" fill="#2C282B"/>
<path d="M10.9613 25.8017C10.8843 25.8596 10.8746 25.9656 10.9324 26.033C10.9902 26.1101 11.0962 26.1197 11.1637 26.0619C11.8574 25.532 12.185 24.7129 12.0501 23.8554C12.0405 23.759 11.9538 23.7012 11.8574 23.7108C11.7611 23.7205 11.7033 23.8072 11.7129 23.9036C11.8285 24.6359 11.5395 25.3392 10.9517 25.7921L10.9613 25.8017Z" fill="#2C282B"/>
<path d="M42.4116 24.0963C42.4116 24.0963 42.4116 24.0866 42.4019 24.077C42.3441 23.9999 42.2478 23.9806 42.1899 23.9614C42.1129 23.9517 42.0261 23.9421 41.9394 23.9421C41.7563 23.9421 41.5155 23.971 41.2457 23.9999C40.9662 24.0384 40.6386 24.0866 40.311 24.1444C40.5326 24.0095 40.7735 23.8746 40.9855 23.7397C41.2264 23.5856 41.448 23.441 41.6215 23.3158C41.7082 23.2483 41.7853 23.1809 41.8431 23.1231C41.9009 23.0653 41.9587 22.9978 41.978 22.9111C42.055 22.6413 41.9394 22.4582 41.8816 22.3811V22.3715C41.7756 22.2366 41.6214 22.1499 41.4384 22.1306C41.3613 22.1306 41.2746 22.1499 41.1975 22.1692C41.1108 22.1981 41.024 22.2366 40.9277 22.2944C40.735 22.3908 40.5037 22.5353 40.2628 22.6991C40.0316 22.8533 39.7907 23.0267 39.5595 23.1905C39.7329 22.9207 39.8967 22.6509 40.0412 22.4197C40.1761 22.2077 40.2917 22.0054 40.3592 21.8416C40.3977 21.7645 40.4267 21.6874 40.4363 21.6103C40.4459 21.5428 40.4459 21.4465 40.3881 21.3694C40.2917 21.2345 40.1279 21.1382 39.9545 21.1382C39.81 21.1382 39.6847 21.1863 39.5884 21.2538C39.5016 21.3116 39.4053 21.3887 39.3186 21.5043C39.2511 21.5814 39.174 21.6777 39.1162 21.7645C39.0102 21.9186 38.9235 22.0824 38.8368 22.227C38.7308 22.4293 38.6344 22.6317 38.5285 22.8436C38.4995 22.9111 38.4706 22.9689 38.4417 23.046C38.4128 23.1038 38.3839 23.1713 38.3454 23.2483C38.1527 23.2002 37.9792 23.1713 37.8058 23.1713L35.2235 14.692C35.6956 14.4126 36.0136 13.9019 36.0136 13.3141C36.0136 12.4277 35.2909 11.705 34.3948 11.705C33.7685 11.705 33.2289 12.0615 32.9591 12.5818H26.1179C25.9156 11.7243 25.2122 11.0594 24.3353 10.9052C24.2004 10.8763 24.0655 10.8667 23.921 10.8667C22.8515 10.8667 21.965 11.599 21.7337 12.5915H14.7287C14.4686 12.1193 13.9772 11.8013 13.399 11.8013C13.0521 11.8013 12.7245 11.9266 12.474 12.129C11.9922 12.418 11.655 12.9383 11.655 13.5454C11.655 14.1524 11.9537 14.6342 12.4066 14.9233L10.1808 22.2173C8.66799 22.0535 7.42501 22.6124 6.99141 22.8436H6.9625C6.78907 22.94 6.71198 23.1327 6.76979 23.3254C6.82761 23.5085 7.03959 24.1348 7.50209 24.8189C7.80079 25.2622 8.21512 25.7247 8.74507 26.1197H6.78907C6.62526 26.1197 6.5 26.245 6.5 26.4088C6.5 30.3497 9.70863 33.5583 13.6881 33.5583C17.6676 33.5583 20.8858 30.3593 20.8858 26.4088C20.8858 26.245 20.7606 26.1197 20.5968 26.1197H18.1493C18.2361 25.8981 18.342 25.6861 18.4577 25.4741C18.6118 25.1851 18.7949 24.9153 19.0069 24.6648C19.0936 24.5684 19.19 24.4913 19.296 24.4046C19.4887 24.2504 19.6814 24.0963 19.7585 23.865C19.797 23.7494 19.797 23.6241 19.7585 23.5085L20.7798 22.6124C21.0496 22.6991 21.9168 22.9111 22.2541 22.3137C22.3215 22.1884 22.3601 22.0439 22.3504 21.8994C22.3504 21.7741 22.3119 21.6392 22.2444 21.5332C22.1577 21.3887 22.0325 21.2731 21.8783 21.1863C21.7241 21.0996 21.5603 21.0611 21.3965 21.0514C21.4061 20.9069 21.3869 20.7624 21.3387 20.6178C21.2905 20.4733 21.2038 20.3577 21.1074 20.2517C20.9822 20.1746 20.8473 20.1264 20.7027 20.1168C20.5582 20.1072 20.4137 20.1361 20.2788 20.1939C20.1439 20.2421 20.0283 20.3095 19.9319 20.4059C19.8356 20.5022 19.7488 20.6178 19.7007 20.7431C19.6525 20.9165 19.6428 21.09 19.6717 21.2634C19.7007 21.4369 19.7681 21.6007 19.8741 21.7452L18.978 22.5642C18.8624 22.516 18.7467 22.4871 18.6215 22.4968C18.4962 22.4968 18.3806 22.5353 18.2746 22.5931C18.0626 22.728 17.8506 22.8629 17.6483 23.0171C17.4267 23.1423 17.1954 23.258 16.9642 23.3543L14.3529 14.798C14.4686 14.7016 14.5649 14.6053 14.6516 14.48H22.1384C22.3119 14.7016 22.5239 14.8847 22.7647 15.0196V33.8956H19.585C18.9876 33.8956 18.5059 34.3388 18.5059 34.888V35.4662H18.1108C17.9566 35.4662 17.841 35.5625 17.7736 35.6492C17.7061 35.7456 17.6772 35.8612 17.6772 35.9865V36.6128C17.6772 36.7284 17.7061 36.8537 17.7736 36.95C17.841 37.0464 17.947 37.1331 18.1108 37.1331H29.7698C29.9239 37.1331 30.0396 37.0368 30.107 36.95C30.1745 36.8537 30.2034 36.7381 30.2034 36.6128V35.9865C30.2034 35.8709 30.1745 35.7456 30.107 35.6492C30.0396 35.5529 29.9336 35.4662 29.7698 35.4662H29.3458V34.888C29.3458 34.3388 28.864 33.8956 28.2666 33.8956H24.7593V15.1834C25.1158 15.0389 25.4242 14.798 25.6554 14.4993H33.2771L33.2482 14.5956L31.6102 19.9626C31.5331 19.9626 31.4656 19.953 31.3885 19.9626C31.0609 20.0204 30.8297 20.1361 30.6562 20.348C30.4924 20.5504 30.3864 20.8298 30.2805 21.1574C30.2226 21.3501 30.1841 21.5814 30.1552 21.7837C30.1166 21.9957 30.0685 22.1981 29.9914 22.3619C29.9528 22.4293 29.9047 22.4968 29.8372 22.5642C29.7601 22.6413 29.683 22.7087 29.5963 22.7955C29.4325 22.9496 29.2398 23.152 29.182 23.4121C29.1242 23.6627 29.2205 23.9132 29.2976 24.1155C29.3843 24.3371 29.4711 24.5202 29.4903 24.6937C29.5096 24.8671 29.4614 25.0502 29.4229 25.2718C29.394 25.4645 29.3554 25.7247 29.4807 25.927C29.5192 25.9848 29.5674 26.0137 29.6156 26.0523H26.8791C26.7153 26.0523 26.5804 26.1872 26.5804 26.351C26.5804 30.475 29.9432 33.8185 34.0961 33.8185C38.249 33.8185 41.6118 30.4846 41.6118 26.351C41.6118 26.1872 41.4769 26.0523 41.3131 26.0523H39.8871C39.9352 25.8885 39.9545 25.715 39.9738 25.532C39.9738 25.4741 39.9641 25.426 39.9641 25.3681C40.0894 25.3681 40.2243 25.3489 40.3496 25.3296C40.3496 25.3296 40.3496 25.3296 40.3592 25.3296C40.5905 25.3103 40.8217 25.2718 41.0433 25.2429C41.1397 25.2236 41.2264 25.214 41.3131 25.1947C41.3998 25.1754 41.4866 25.1658 41.5829 25.1465C41.6985 25.1176 41.8045 25.0887 41.9105 25.0502L41.8623 24.8864L41.9202 25.0405C42.0358 24.9924 42.1514 24.9442 42.2574 24.8575C42.3537 24.7707 42.4308 24.6744 42.479 24.5588V24.5491C42.5272 24.3757 42.4886 24.2215 42.4019 24.077L42.4116 24.0963ZM20.115 21.8801C20.115 21.8801 20.1535 21.8319 20.1535 21.803C20.1535 21.7741 20.1535 21.7356 20.1343 21.7163C20.0379 21.6007 19.9608 21.4561 19.9319 21.3116C19.8934 21.1574 19.8934 21.0033 19.9319 20.8587C19.9704 20.772 20.0379 20.6853 20.1053 20.6178C20.1728 20.5504 20.2692 20.5022 20.3655 20.4733C20.4522 20.4348 20.5582 20.4155 20.6546 20.4155C20.7509 20.4155 20.8473 20.4444 20.934 20.5022C21.0111 20.5986 21.0689 20.7142 21.1074 20.8298C21.1363 20.9551 21.146 21.0803 21.1267 21.2056C21.1267 21.2249 21.1267 21.2441 21.1267 21.2634C21.1267 21.2827 21.146 21.302 21.1556 21.3116C21.1653 21.3212 21.1845 21.3405 21.2038 21.3405C21.2231 21.3405 21.2423 21.3501 21.2616 21.3501C21.4061 21.3405 21.5507 21.3598 21.6856 21.4176C21.8205 21.4754 21.9361 21.5718 22.0228 21.6874C22.071 21.7645 22.0999 21.8512 22.0999 21.9475C22.0999 22.0439 22.0806 22.1306 22.0421 22.2077C21.7819 22.6606 20.9725 22.41 20.8473 22.3619C20.8376 22.3619 20.828 22.3619 20.828 22.3619C20.8087 22.3619 20.7798 22.3522 20.7509 22.3619C20.722 22.3715 20.7027 22.3811 20.6835 22.3908L19.6814 23.2676C19.5947 23.1134 19.4887 22.9689 19.3634 22.8533C19.3152 22.8051 19.2671 22.7666 19.2189 22.728L20.115 21.8994V21.8801ZM29.7312 36.0154V36.6417C29.7312 36.6417 29.7312 36.6802 29.7312 36.6995H18.1686C18.1686 36.6995 18.1686 36.6706 18.1686 36.6417V36.0154C18.1686 36.0154 18.1686 35.9769 18.1686 35.9576H29.7312C29.7312 35.9576 29.7312 35.9865 29.7312 36.0154ZM40.4266 22.9785C40.6675 22.8244 40.8795 22.6895 41.0626 22.5931C41.1493 22.5449 41.2264 22.516 41.2938 22.4871C41.3228 22.4775 41.3517 22.4679 41.3709 22.4679H41.3902C41.4769 22.4679 41.5444 22.516 41.6022 22.5835C41.6215 22.6124 41.6407 22.6413 41.6504 22.6702C41.66 22.6991 41.6696 22.7473 41.6504 22.8244C41.6504 22.8244 41.6504 22.8436 41.5925 22.8918C41.554 22.94 41.4866 22.9882 41.4095 23.046C41.2553 23.1713 41.0433 23.3062 40.8024 23.4507C40.5615 23.5952 40.3014 23.7494 40.0509 23.8939C39.8678 23.9999 39.6943 24.1059 39.5402 24.2023C39.4631 24.0866 39.3956 23.971 39.2993 23.865L39.2511 23.8072C39.598 23.5374 40.0316 23.2291 40.4266 22.9593V22.9785ZM38.8079 22.9978C38.9139 22.7955 39.0102 22.5931 39.1162 22.4004C39.2126 22.2366 39.28 22.1017 39.3764 21.9668C39.4246 21.8897 39.492 21.803 39.5595 21.7356C39.6269 21.6488 39.6943 21.591 39.7618 21.5428C39.8196 21.5043 39.8774 21.485 39.9449 21.485C39.993 21.485 40.0509 21.5236 40.0894 21.5718C40.0894 21.6007 40.0701 21.6488 40.0316 21.7259C39.9738 21.8608 39.8678 22.0439 39.7329 22.2655C39.5016 22.6413 39.1933 23.1134 38.9235 23.5759C38.8272 23.5085 38.7308 23.4507 38.6152 23.4025C38.6441 23.3351 38.673 23.2772 38.7019 23.2194C38.7308 23.152 38.7693 23.0942 38.7982 23.0267L38.8079 22.9978ZM23.497 33.9149V15.3087C23.6223 15.3279 23.7572 15.3472 23.8921 15.3472C23.9306 15.3472 23.9788 15.3376 24.0174 15.3376V33.9149H23.497ZM23.9017 14.9233C23.7765 14.9233 23.6512 14.904 23.5356 14.8847C22.6973 14.7113 22.071 13.979 22.071 13.1021C22.071 12.1 22.89 11.2907 23.9017 11.2907C24.9135 11.2907 25.7325 12.1097 25.7325 13.1021C25.7325 14.0946 24.9135 14.9136 23.9017 14.9136V14.9233ZM12.0308 13.5357C12.0308 12.842 12.5993 12.2831 13.293 12.2831C13.9868 12.2831 14.5553 12.842 14.5553 13.5357C14.5553 13.979 14.3048 14.3548 13.9579 14.5764C13.7748 14.6631 13.5821 14.7113 13.3701 14.7113C12.8113 14.7113 12.3295 14.3837 12.1079 13.9212C12.0693 13.7959 12.0308 13.6706 12.0308 13.5357ZM13.6881 32.9802C10.123 32.9802 7.24193 30.1859 7.08777 26.6979H9.14977L9.20758 26.7268V26.6979H17.5519V26.7268L17.6097 26.6979H20.3077C20.1535 30.1955 17.2629 32.9802 13.6977 32.9802H13.6881ZM11.3081 22.8244C12.2813 23.2098 12.9173 23.8168 13.3219 24.3371C13.5243 24.5973 13.6592 24.8286 13.7459 25.002C13.7941 25.0887 13.823 25.1562 13.8423 25.2043C13.8519 25.2236 13.8615 25.2429 13.8615 25.2525V25.2622C13.8904 25.3489 13.9868 25.3874 14.0735 25.3681C14.0735 25.3681 14.0735 25.3681 14.0928 25.3681C14.1024 25.3681 14.1217 25.3585 14.1506 25.3489C14.1988 25.3296 14.2662 25.3103 14.3433 25.2911C14.5071 25.2429 14.7191 25.1851 14.9214 25.1273C15.0274 25.0984 15.1238 25.0791 15.2105 25.0694C15.172 25.108 15.1238 25.1465 15.0756 25.1851C15.0274 25.2333 14.9696 25.2718 14.9118 25.32C14.6998 25.5127 14.4397 25.7439 14.3144 25.9656C14.3144 25.9656 14.3144 25.9848 14.3144 25.9945C14.2951 26.033 14.2855 26.0812 14.2662 26.1197H12.368C12.8402 25.7054 13.0618 25.108 12.9558 24.472C12.9365 24.3853 12.8498 24.3179 12.7631 24.3371C12.6764 24.3564 12.6089 24.4431 12.6282 24.5299C12.7342 25.0984 12.5126 25.6283 12.0501 25.9656C12.0019 26.0041 11.9826 26.0619 11.9922 26.1101H9.40993L10.4891 22.5835C10.7589 22.6317 11.0383 22.7087 11.3274 22.8147L11.3081 22.8244ZM14.0253 25.214C14.0253 25.214 14.0542 25.2911 14.0639 25.32L14.0253 25.214ZM16.1548 23.6434C15.6634 23.7879 15.1623 23.9036 14.6613 23.9999C14.324 24.0481 13.9868 24.1444 13.6688 24.2601C13.6399 24.2215 13.6206 24.183 13.5917 24.1444C13.1678 23.5856 12.474 22.9304 11.4334 22.5257C11.1347 22.41 10.8553 22.333 10.5662 22.2848L12.7534 15.116C12.9269 15.1738 13.11 15.2123 13.293 15.2123C13.5436 15.2123 13.7748 15.1545 13.9868 15.0581L16.5691 23.5181C16.4342 23.5663 16.2897 23.6241 16.1548 23.653V23.6434ZM14.8829 13.9982C14.9214 13.8537 14.9503 13.6995 14.9503 13.5454C14.9503 13.3912 14.9214 13.237 14.8829 13.1021L21.6376 13.1021C21.6376 13.1021 21.6374 13.1118 21.6374 13.1214C21.6374 13.4394 21.7048 13.7381 21.8205 14.0079H14.8829V13.9982ZM13.6592 11.9266C13.7555 11.9459 13.8423 11.9748 13.929 12.0133C13.8423 11.9748 13.7555 11.9555 13.6592 11.9266ZM33.6336 14.7402C33.8552 14.8462 34.0961 14.9233 34.3563 14.9233C34.5104 14.9233 34.6646 14.8943 34.8091 14.8558L37.3626 23.2387C37.1506 23.3061 36.9579 23.4218 36.7555 23.6049C36.3026 24.0192 35.8787 24.4913 35.474 24.9442C35.3776 25.0502 35.2813 25.1562 35.1849 25.2622C35.0211 25.4452 34.761 25.7343 34.4623 26.0812H33.8552C33.8552 26.0812 33.8841 25.9945 33.8938 25.9559C33.9516 25.8017 33.9901 25.6861 34.0094 25.6476C34.0383 25.5994 34.0768 25.5512 34.1443 25.4838C34.2117 25.4163 34.2792 25.3681 34.3563 25.2911C34.5008 25.1562 34.6935 24.9827 34.7321 24.7418C34.7513 24.6262 34.7321 24.5106 34.7032 24.4142C34.6742 24.3179 34.6261 24.2215 34.5779 24.1252C34.4815 23.9325 34.4045 23.7783 34.3852 23.6241C34.3852 23.547 34.3852 23.4603 34.3852 23.364C34.3852 23.3158 34.3948 23.2676 34.4044 23.2098C34.4044 23.1616 34.4237 23.1038 34.4237 23.0556C34.4526 22.8436 34.4623 22.5931 34.3177 22.3715C34.1828 22.1499 33.9323 22.0439 33.7396 21.9668C33.6336 21.9283 33.5373 21.8897 33.4505 21.8512C33.3638 21.8126 33.2964 21.7741 33.2482 21.7259C32.988 21.4754 32.7857 21.09 32.6508 20.772L32.4966 20.8395L32.6508 20.7624C32.5255 20.5119 32.381 20.2806 32.169 20.1361C32.1208 20.0975 32.0534 20.0879 31.9956 20.059L33.6047 14.7691L33.6336 14.7402ZM34.3659 12.0133C35.0982 12.0133 35.686 12.6011 35.686 13.3141C35.686 14.0271 35.0982 14.6149 34.3659 14.6149C33.6336 14.6149 33.0458 14.0271 33.0458 13.3141C33.0458 12.6011 33.6336 12.0133 34.3659 12.0133ZM31.9859 20.4059C32.1208 20.5022 32.2365 20.6757 32.3521 20.9069C32.4966 21.2249 32.7086 21.6681 33.0266 21.9668C33.1133 22.0535 33.2193 22.1113 33.3253 22.1595C33.4216 22.2077 33.5373 22.2462 33.6336 22.2848C33.836 22.3619 33.9709 22.439 34.0479 22.5449C34.1154 22.6509 34.125 22.7955 34.0961 22.9978C34.0961 23.046 34.0865 23.0942 34.0768 23.152C34.0768 23.2002 34.0576 23.258 34.0576 23.3158C34.0479 23.4218 34.0383 23.5374 34.0576 23.653C34.0865 23.8843 34.2021 24.1059 34.2888 24.2697C34.337 24.3564 34.3659 24.4335 34.3948 24.501C34.4141 24.5684 34.4237 24.6166 34.4141 24.6648C34.3948 24.7804 34.2985 24.8864 34.1443 25.0213C34.0768 25.0791 33.9901 25.1562 33.9227 25.2236C33.8456 25.2911 33.7781 25.3778 33.7203 25.4741L33.8745 25.5609L33.7203 25.4838C33.6818 25.5512 33.6336 25.6958 33.5854 25.8403C33.5565 25.9174 33.5276 26.0041 33.5083 26.0812H32.6122L32.5448 25.7343L33.3734 24.896C33.4409 24.8286 33.4409 24.7129 33.3734 24.6455C33.306 24.578 33.1904 24.578 33.1229 24.6455L32.4677 25.3103L32.2654 24.2023L33.1133 23.3351C33.1807 23.2676 33.1807 23.152 33.1133 23.0845C33.0458 23.0171 32.9302 23.0171 32.8628 23.0845L32.1883 23.7783L31.9185 22.3426C31.8992 22.2462 31.8125 22.1884 31.7161 22.1981C31.6198 22.2173 31.562 22.3041 31.5716 22.4004L31.851 23.9228L30.9164 23.6916L31.9281 20.377C31.9281 20.377 31.9763 20.3962 31.9956 20.4059H31.9859ZM38.1334 25.7439L37.7191 25.2236C37.642 25.1273 37.4975 25.108 37.3915 25.1851C37.2951 25.2622 37.2758 25.4067 37.3529 25.5127L37.7962 26.0619H35.0886C35.2716 25.8499 35.4258 25.6765 35.5414 25.5512C35.6378 25.4452 35.7342 25.3392 35.8305 25.2236C36.2352 24.7707 36.6399 24.3275 37.0735 23.9228C37.2469 23.7687 37.3722 23.6916 37.4974 23.653L38.1334 25.7343V25.7439ZM34.0961 33.2307C30.3672 33.2307 27.3416 30.3112 27.1778 26.6593H41.0048C40.8506 30.3112 37.8154 33.2307 34.0865 33.2307H34.0961ZM31.9089 24.2986L32.1208 25.4452L31.1669 25.0887C31.0802 25.0598 30.9742 25.0984 30.9453 25.1947C30.9068 25.2814 30.9549 25.3874 31.0513 25.4163L32.2076 25.8403L32.2461 26.0619H30.4443C30.4443 26.0619 30.3672 26.0426 30.3286 26.0234C30.2901 26.0137 30.2515 26.0041 30.213 25.9848L30.8104 24.0192L31.9185 24.289L31.9089 24.2986ZM32.7664 13.0925C32.7568 13.1696 32.7471 13.237 32.7471 13.3141C32.7471 13.555 32.805 13.7863 32.9013 13.9982H25.9637C26.0794 13.7284 26.1468 13.4297 26.1468 13.1118C26.1468 13.1118 26.1468 13.1021 26.1468 13.0925H32.7664ZM7.04926 22.9882L7.12631 23.1327C7.531 22.9111 8.66799 22.4004 10.0555 22.5353L9.0245 25.9077C8.49455 25.532 8.08022 25.0694 7.78152 24.6262C7.33829 23.971 7.13594 23.3736 7.08777 23.2194C7.08777 23.2194 7.08777 23.152 7.12631 23.1327L7.05886 23.0171L7.03959 22.9882L7.04926 22.9882ZM29.6156 23.9999C29.5289 23.7879 29.4903 23.6338 29.5192 23.4989C29.5578 23.3447 29.6734 23.2098 29.8372 23.0556C29.9143 22.9785 30.001 22.9015 30.0877 22.8147C30.1648 22.728 30.2515 22.6413 30.2997 22.5257C30.4057 22.3041 30.4635 22.0632 30.5021 21.8416C30.5406 21.6103 30.5695 21.4272 30.6177 21.2634C30.7333 20.9262 30.82 20.7142 30.9357 20.5697C31.0417 20.4348 31.1863 20.348 31.4561 20.3095C31.4561 20.3095 31.4945 20.3095 31.5138 20.3095L29.8372 25.8114C29.8372 25.8114 29.789 25.7728 29.7698 25.7536C29.7216 25.6765 29.7216 25.5512 29.7601 25.3392C29.789 25.1562 29.8565 24.9056 29.8276 24.6648C29.7987 24.4239 29.6927 24.183 29.6156 23.9903V23.9999ZM38.6537 26.0715L37.9118 23.6434C37.9985 23.653 38.0852 23.6723 38.1912 23.7012C38.4417 23.7687 38.6633 23.9036 38.8368 24.077L38.9428 24.1926C39.068 24.3371 39.1837 24.4817 39.2704 24.6455L39.3475 24.7804C39.4631 25.0116 39.5209 25.2429 39.5113 25.503C39.492 25.7247 39.4727 25.8788 39.4246 25.9945C39.4246 26.0234 39.4246 26.0426 39.4246 26.0715H38.6441H38.6537ZM41.8142 24.7418C41.7082 24.7707 41.6214 24.8093 41.5251 24.8286C41.4384 24.8478 41.3517 24.8575 41.2553 24.8767C41.1686 24.896 41.0819 24.9056 40.9951 24.9249C40.7639 24.9538 40.5423 24.9924 40.3207 25.0116H40.311C40.1954 25.0309 40.0701 25.0405 39.9449 25.0502C39.9063 24.8864 39.8485 24.7226 39.7811 24.578C40.311 24.4913 40.841 24.395 41.2842 24.3371C41.5444 24.2986 41.7756 24.2793 41.9394 24.2793C42.0261 24.2793 42.084 24.2793 42.1225 24.289C42.1321 24.289 42.1321 24.289 42.1418 24.289C42.1707 24.3564 42.1803 24.4046 42.1707 24.4528C42.1514 24.5106 42.1129 24.5588 42.055 24.6166C41.9972 24.6648 41.9298 24.7033 41.8238 24.7418H41.8142Z" fill="#2C282B"/>
<path d="M41.9201 25.0598H41.9298L41.8719 24.9057L41.9201 25.0598Z" fill="#2C282B"/>
<path d="M24.1619 14.3548V14.4126H24.1715C24.1715 14.4126 24.1908 14.4126 24.2101 14.4126C24.239 14.4126 24.2872 14.3933 24.345 14.3837C24.451 14.3548 24.5955 14.3066 24.74 14.2199C25.0387 14.0368 25.3374 13.7092 25.3374 13.1214C25.3374 12.8324 25.27 12.6107 25.1447 12.4373C25.0291 12.2639 24.8749 12.1579 24.7208 12.0904C24.5762 12.023 24.4221 11.9941 24.3161 11.9748C24.2583 11.9748 24.2197 11.9652 24.1812 11.9652C24.1619 11.9652 24.1523 11.9652 24.1426 11.9652H24.133C24.0463 11.9652 23.9885 12.0422 23.9885 12.1193C23.9885 12.1964 24.0656 12.2639 24.1426 12.2639C24.1426 12.2639 24.1619 12.2639 24.1715 12.2639C24.2005 12.2639 24.2294 12.2639 24.2775 12.2639C24.3643 12.2735 24.4799 12.3024 24.5955 12.3506C24.7111 12.3988 24.8171 12.4758 24.8942 12.5915C24.9713 12.7071 25.0291 12.8709 25.0291 13.1022C25.0291 13.5647 24.8075 13.8055 24.5762 13.9404C24.4606 14.0079 24.345 14.0464 24.2583 14.0753C24.2101 14.085 24.1812 14.0946 24.1523 14.0946C24.1426 14.0946 24.133 14.0946 24.1234 14.0946C24.0366 14.0946 23.9788 14.1813 23.9885 14.2584C23.9885 14.3451 24.0752 14.4029 24.1523 14.3933C24.1523 14.3933 24.1523 14.3933 24.1523 14.3355L24.1619 14.3548Z" fill="#2C282B"/>
<path d="M39.2897 29.3187C39.1837 29.2416 39.0295 29.2802 38.9621 29.3861C38.8079 29.6174 38.5381 29.9932 38.2394 30.3497C37.9407 30.7158 37.6227 31.0531 37.3626 31.2169C37.2566 31.294 37.2277 31.4385 37.2951 31.5445C37.3626 31.6505 37.5167 31.6794 37.6227 31.612C37.9407 31.4 38.2972 31.0242 38.5959 30.6484C38.9043 30.2726 39.1837 29.8872 39.3475 29.6463C39.4246 29.5403 39.386 29.3861 39.28 29.3187H39.2897Z" fill="#2C282B"/>
<path d="M17.5903 29.3862C17.4362 29.6174 17.1664 29.9932 16.8677 30.3497C16.569 30.7159 16.251 31.0531 15.9908 31.2169C15.8848 31.294 15.8559 31.4385 15.9234 31.5445C15.9908 31.6505 16.145 31.6794 16.251 31.612C16.569 31.4 16.9255 31.0242 17.2242 30.6484C17.5325 30.2726 17.8119 29.8872 17.9757 29.6463C18.0528 29.5403 18.0143 29.3862 17.9083 29.3187C17.8023 29.2513 17.6481 29.2802 17.5807 29.3862H17.5903Z" fill="#2C282B"/>
</svg>
