<svg width="35" height="35" viewBox="0 0 35 35" fill="none" xmlns="http://www.w3.org/2000/svg">
<path fill-rule="evenodd" clip-rule="evenodd" d="M22.2244 12.0136C22.9615 13.7211 23.8499 15.3623 24.8795 16.9185C26.6593 20.0909 26.7031 22.8428 25.0254 25.4021C24.2287 26.4357 23.2207 27.2959 22.0653 27.928C20.91 28.5601 19.6327 28.9503 18.3147 29.0737C17.8747 29.1327 17.4313 29.1637 16.9872 29.1663H16.8121H16.214H15.7836C14.8398 29.1497 13.9086 28.9509 13.0437 28.5813C12.1788 28.2117 11.3971 27.6787 10.7436 27.0129C10.0902 26.347 9.57782 25.5615 9.23602 24.7015C8.89422 23.8415 8.72973 22.9239 8.75199 22.0015C8.75199 19.763 9.65648 18.0948 10.6193 16.3481C10.6565 16.2793 10.6938 16.2104 10.7312 16.1412C11.1129 15.436 11.5073 14.7072 11.8593 13.8957C12.085 13.1638 12.2341 12.4114 12.3043 11.65C12.4109 10.6463 12.6086 9.6538 12.8951 8.6843C13.7412 6.25326 15.0177 5.86828 15.7545 5.86828C16.4718 5.76892 17.2031 5.8806 17.8552 6.18909C20.4228 7.38679 21.9545 11.2508 22.2244 12.0136ZM11.1883 16.6333C10.2254 18.3942 9.40118 19.9198 9.40118 22.0015C9.40847 25.6873 11.9906 28.3108 15.8201 28.5247C19.4162 28.7386 21.5023 26.0153 21.9764 23.2349C22.3096 21.3092 21.2329 18.9055 20.4394 17.1337L20.4228 17.0967C20.1367 16.5407 19.8953 15.9639 19.7006 15.3714C19.5839 14.8867 19.4089 14.0312 19.2192 13.0901C19.2074 13.0323 19.1956 12.974 19.1836 12.9153C18.8619 11.3354 18.4736 9.42868 18.2345 8.74133C17.8552 7.49373 16.6881 6.53129 15.7836 6.5099C14.8791 6.48852 14.0476 7.34402 13.5078 8.86965C13.2373 9.80272 13.0494 10.7568 12.9462 11.7213C12.8741 12.5396 12.7102 13.3477 12.4575 14.131C12.0933 14.9593 11.693 15.6996 11.3058 16.4157C11.2665 16.4885 11.2273 16.561 11.1883 16.6333ZM18.6202 19.763C18.8861 20.7166 18.894 21.7214 18.643 22.6789C18.4436 23.6508 17.9713 24.5494 17.2789 25.2739C16.7341 25.7648 16.0214 26.0393 15.2803 26.0438C15.0615 26.0434 14.8435 26.017 14.6311 25.9654C13.7891 25.7317 13.0695 25.194 12.6179 24.4611C11.888 23.289 11.5943 21.9065 11.7864 20.5472C11.852 20.0268 12.3116 17.3819 14.4998 16.7902C14.939 16.6306 15.4136 16.5882 15.8751 16.6671C16.3365 16.746 16.7682 16.9435 17.1258 17.2393C17.8392 17.9398 18.3542 18.8094 18.6202 19.763ZM16.9215 22.6147H16.9872V22.6218C17.0519 22.6203 17.1143 22.5977 17.1645 22.5577C17.2147 22.5177 17.2498 22.4625 17.2644 22.4008C17.899 19.6632 16.0827 18.437 16.0025 18.3871C15.9389 18.3565 15.8662 18.3496 15.7978 18.3675C15.7294 18.3855 15.67 18.4271 15.6308 18.4847C15.5915 18.5423 15.575 18.6119 15.5843 18.6805C15.5936 18.7491 15.6282 18.8121 15.6815 18.8576C15.7472 18.9004 17.2425 19.927 16.7027 22.2725C16.6941 22.309 16.6929 22.3468 16.6992 22.3838C16.7055 22.4208 16.7192 22.4561 16.7395 22.4879C16.7599 22.5197 16.7864 22.5473 16.8176 22.569C16.8488 22.5908 16.8842 22.6063 16.9215 22.6147Z" fill="black"/>
</svg>
