<?xml version="1.0" encoding="utf-8"?>
<svg xmlns="http://www.w3.org/2000/svg" width="26" height="43" viewBox="0 0 26 43" fill="none">
<g id="Group">
<path id="Vector" d="M24.8043 3.45896C24.7243 2.41857 24.004 1.61826 22.9636 1.37817C19.4422 0.737924 10.7189 -0.0623833 2.95593 1.53823C1.99557 1.69829 1.35532 2.57863 1.27529 3.53899C1.27529 3.85912 1.11523 37.7921 1.19526 39.1526C1.27529 40.193 1.99557 40.9933 3.03596 41.2334C6.55731 41.8737 15.2806 42.674 23.0436 41.0733C24.004 40.9133 24.6442 40.0329 24.7243 39.0726C24.7243 38.7525 24.8843 4.81948 24.8043 3.45896Z" stroke="black" stroke-width="0.705752" stroke-miterlimit="10" stroke-linecap="round" stroke-linejoin="round"/>
<g id="Group_2">
<g id="Group_3">
<g id="Group_4">
<path id="Vector_2" d="M9.91824 15.7621H6.55695C5.91671 15.7621 5.43652 15.2819 5.43652 14.6417V10.9603C5.43652 10.32 5.91671 9.83984 6.55695 9.83984H9.99827C10.6385 9.83984 11.1187 10.32 11.1187 10.9603V14.6417C11.0387 15.2819 10.5585 15.7621 9.91824 15.7621Z" fill="black" stroke="black" stroke-width="0.166129" stroke-miterlimit="10" stroke-linecap="round" stroke-linejoin="round"/>
<g id="Group_5">
<path id="Vector_3" d="M12.6387 10.8809H20.4817" stroke="black" stroke-width="0.705752" stroke-miterlimit="10" stroke-linecap="round" stroke-linejoin="round"/>
<path id="Vector_4" d="M12.6387 12.8809H17.5205" stroke="black" stroke-width="0.705752" stroke-miterlimit="10" stroke-linecap="round" stroke-linejoin="round"/>
<path id="Vector_5" d="M12.6387 14.8008H15.9199" stroke="black" stroke-width="0.705752" stroke-miterlimit="10" stroke-linecap="round" stroke-linejoin="round"/>
</g>
</g>
<g id="Group_6">
<path id="Vector_6" d="M9.91824 24.5648H6.55695C5.91671 24.5648 5.43652 24.0847 5.43652 23.4444V19.763C5.43652 19.1228 5.91671 18.6426 6.55695 18.6426H9.99827C10.6385 18.6426 11.1187 19.1228 11.1187 19.763V23.4444C11.0387 24.0847 10.5585 24.5648 9.91824 24.5648Z" fill="black" stroke="black" stroke-width="0.166129" stroke-miterlimit="10" stroke-linecap="round" stroke-linejoin="round"/>
<g id="Group_7">
<path id="Vector_7" d="M12.6387 19.6836H19.2812" stroke="black" stroke-width="0.705752" stroke-miterlimit="10" stroke-linecap="round" stroke-linejoin="round"/>
<path id="Vector_8" d="M12.6387 21.6035H18.9611" stroke="black" stroke-width="0.705752" stroke-miterlimit="10" stroke-linecap="round" stroke-linejoin="round"/>
<path id="Vector_9" d="M12.6387 23.6055H15.9199" stroke="black" stroke-width="0.705752" stroke-miterlimit="10" stroke-linecap="round" stroke-linejoin="round"/>
</g>
</g>
<g id="Group_8">
<path id="Vector_10" d="M9.91824 33.2875H6.55695C5.91671 33.2875 5.43652 32.8073 5.43652 32.1671V28.4857C5.43652 27.8454 5.91671 27.3652 6.55695 27.3652H9.99827C10.6385 27.3652 11.1187 27.8454 11.1187 28.4857V32.1671C11.0387 32.8073 10.5585 33.2875 9.91824 33.2875Z" fill="black" stroke="black" stroke-width="0.166129" stroke-miterlimit="10" stroke-linecap="round" stroke-linejoin="round"/>
<g id="Group_9">
<path id="Vector_11" d="M12.6387 28.4062H18.801" stroke="black" stroke-width="0.705752" stroke-miterlimit="10" stroke-linecap="round" stroke-linejoin="round"/>
<path id="Vector_12" d="M12.6387 30.3262H16.7202" stroke="black" stroke-width="0.705752" stroke-miterlimit="10" stroke-linecap="round" stroke-linejoin="round"/>
<path id="Vector_13" d="M12.6387 32.3262H18.801" stroke="black" stroke-width="0.705752" stroke-miterlimit="10" stroke-linecap="round" stroke-linejoin="round"/>
</g>
</g>
</g>
</g>
<g id="Group_10">
<g id="Group_11">
<path id="Vector_14" d="M12.0781 2.98047H15.8396" stroke="black" stroke-width="0.705752" stroke-miterlimit="10" stroke-linecap="round" stroke-linejoin="round"/>
</g>
<path id="Vector_15" d="M10.4782 3.46037C10.7434 3.46037 10.9584 3.24538 10.9584 2.98018C10.9584 2.71499 10.7434 2.5 10.4782 2.5C10.213 2.5 9.99805 2.71499 9.99805 2.98018C9.99805 3.24538 10.213 3.46037 10.4782 3.46037Z" fill="black"/>
</g>
<path id="Vector_16" d="M24.8043 3.45896C24.7243 2.41857 24.004 1.61826 22.9636 1.37817C19.4422 0.737924 10.7189 -0.0623833 2.95593 1.53823C1.99557 1.69829 1.35532 2.57863 1.27529 3.53899C1.27529 3.85912 1.11523 37.7921 1.19526 39.1526C1.27529 40.193 1.99557 40.9933 3.03596 41.2334C6.55731 41.8737 15.2806 42.674 23.0436 41.0733C24.004 40.9133 24.6442 40.0329 24.7243 39.0726C24.7243 38.7525 24.8843 4.81948 24.8043 3.45896Z" stroke="black" stroke-width="0.705752" stroke-miterlimit="10" stroke-linecap="round" stroke-linejoin="round"/>
<g id="Group_12">
<path id="Vector_17" d="M23.25 5.20963C23.1681 4.2276 22.5947 3.42411 21.6937 3.24556C21.0385 3.06701 20.1375 2.97773 19.0727 2.88846C18.827 2.88846 18.6631 3.06701 18.6631 3.24556V4.49542C18.6631 4.76325 18.4993 5.03108 18.1717 5.03108H7.85125C7.60552 5.03108 7.3598 4.85253 7.3598 4.49542V3.24556C7.3598 2.97773 7.19598 2.79918 6.95025 2.88846C6.04926 2.97773 5.14828 3.15629 4.32919 3.33484C3.51011 3.51339 2.93675 4.31687 2.85484 5.20963C2.85484 5.47746 2.69103 37.7953 2.77293 39.1345L23.0862 39.0452C23.1681 38.7774 23.25 6.45949 23.25 5.20963Z" stroke="black" stroke-width="0.705752" stroke-miterlimit="10" stroke-linecap="round" stroke-linejoin="round"/>
</g>
<g id="Group_13">
<g id="Group_14">
<path id="Vector_18" d="M12.0781 2.98047H15.8396" stroke="black" stroke-width="0.705752" stroke-miterlimit="10" stroke-linecap="round" stroke-linejoin="round"/>
</g>
<path id="Vector_19" d="M10.4782 3.46037C10.7434 3.46037 10.9584 3.24538 10.9584 2.98018C10.9584 2.71499 10.7434 2.5 10.4782 2.5C10.213 2.5 9.99805 2.71499 9.99805 2.98018C9.99805 3.24538 10.213 3.46037 10.4782 3.46037Z" fill="black"/>
</g>
</g>
</svg>