<svg width="35" height="35" viewBox="0 0 35 35" fill="none" xmlns="http://www.w3.org/2000/svg">
<path fill-rule="evenodd" clip-rule="evenodd" d="M28.7214 13.7844C28.989 14.1259 29.1411 14.5537 29.153 14.9987C29.1803 15.6552 29.1585 19.2628 29.1258 19.8554C29.1143 20.2763 28.9755 20.6819 28.7302 21.0117C28.485 21.3415 28.1464 21.5778 27.7649 21.6854C25.0408 22.3112 22.2609 22.619 19.4744 22.6033C16.7752 22.6155 14.0805 22.3666 11.4234 21.8597C10.9596 21.7603 10.5509 21.4703 10.2858 21.0521C10.2832 21.0309 10.2832 21.0094 10.2858 20.9882C9.768 21.1599 9.21953 21.1982 8.68521 21.1003C8.15089 21.0023 7.64589 20.7707 7.21151 20.4245C6.77714 20.0783 6.42572 19.6272 6.18601 19.1082C5.94631 18.5893 5.82511 18.0171 5.83234 17.4386C5.83956 16.86 5.97501 16.2915 6.2276 15.7796C6.48019 15.2676 6.84275 14.8267 7.28562 14.493C7.72849 14.1592 8.23909 13.9421 8.77567 13.8594C9.31225 13.7766 9.85957 13.8306 10.3728 14.0169C10.3803 13.992 10.3913 13.9685 10.4055 13.9472C10.6384 13.6159 10.9709 13.38 11.3472 13.2791C17.6781 11.7628 24.7982 12.5355 27.6778 13.1164C28.0861 13.2076 28.4538 13.4429 28.7214 13.7844ZM7.66741 17.9964H8.83233H10.9335C11.0483 17.9831 11.1544 17.9251 11.2315 17.8334C11.3086 17.7417 11.3513 17.6228 11.3513 17.4997C11.3513 17.3765 11.3086 17.2576 11.2315 17.1659C11.1544 17.0743 11.0483 17.0162 10.9335 17.0029H7.66741C7.55265 17.0162 7.44653 17.0743 7.36943 17.1659C7.29232 17.2576 7.24968 17.3765 7.24968 17.4997C7.24968 17.6228 7.29232 17.7417 7.36943 17.8334C7.44653 17.9251 7.55265 17.9831 7.66741 17.9964ZM28.3486 20.7067C28.5282 20.4636 28.629 20.1649 28.6359 19.8554L28.6413 19.8496C28.674 19.2396 28.6958 15.6726 28.674 15.0219C28.6659 14.6927 28.5541 14.376 28.3565 14.123C28.159 13.87 27.8873 13.6955 27.5853 13.6276C24.2756 12.9363 17.2535 12.3902 11.4724 13.7845C11.2195 13.8509 10.9939 14.004 10.8301 14.2202C11.4102 14.5242 11.8979 14.9971 12.2368 15.5844C12.5757 16.1717 12.7519 16.8494 12.745 17.5391C12.7382 18.2287 12.5486 18.9023 12.1982 19.4818C11.8478 20.0613 11.3508 20.5232 10.7648 20.814C10.9492 21.0876 11.2197 21.2814 11.5269 21.36C14.8365 22.0572 21.8587 22.5916 27.6397 21.2032C27.9202 21.124 28.1689 20.9498 28.3486 20.7067ZM19.1629 15.1169C19.405 14.9952 19.6696 14.933 19.9371 14.9348C20.2061 14.9324 20.4722 14.9949 20.7154 15.1177C20.9586 15.2404 21.1726 15.4202 21.3416 15.6436C21.7431 16.1655 21.9488 16.828 21.9186 17.5026C21.9483 18.1771 21.7427 18.8394 21.3416 19.3616C21.1721 19.5828 20.9586 19.7611 20.7167 19.8835C20.4747 20.0059 20.2103 20.0694 19.9426 20.0694C19.6748 20.0694 19.4104 20.0059 19.1685 19.8835C18.9265 19.7611 18.7131 19.5828 18.5436 19.3616C18.1392 18.8388 17.9316 18.174 17.9611 17.4968C17.9309 16.8222 18.1366 16.1597 18.5382 15.6378C18.7073 15.4165 18.9208 15.2385 19.1629 15.1169ZM20.3341 19.0035C20.4558 18.9293 20.5573 18.8225 20.6285 18.6936L20.6339 18.6878C20.8407 18.3316 20.936 17.9146 20.9061 17.4968C20.9295 17.0765 20.8265 16.6593 20.6121 16.3059C20.541 16.177 20.4395 16.0701 20.3178 15.9959C20.196 15.9217 20.0583 15.8827 19.9181 15.8827C19.7779 15.8827 19.6401 15.9217 19.5184 15.9959C19.3967 16.0701 19.2952 16.177 19.224 16.3059C19.0096 16.6593 18.9066 17.0765 18.9301 17.4968C18.9107 17.9209 19.0194 18.3404 19.2404 18.6936C19.3116 18.8225 19.413 18.9293 19.5347 19.0035C19.6565 19.0777 19.7942 19.1168 19.9344 19.1168C20.0746 19.1168 20.2124 19.0777 20.3341 19.0035ZM15.6912 16.6545C15.7559 16.6303 15.8241 16.6185 15.8926 16.6196C16.0995 16.6181 16.3044 16.6623 16.4945 16.7492C16.6847 16.8362 16.856 16.9641 16.9976 17.125C17.1495 17.2805 17.2702 17.4673 17.3526 17.674C17.4349 17.8807 17.4771 18.103 17.4767 18.3276C17.4804 18.5577 17.4381 18.7861 17.3527 18.9975C17.2673 19.2088 17.1407 19.3983 16.9813 19.5534C16.8137 19.7206 16.6168 19.8507 16.402 19.9365C16.1871 20.0222 15.9585 20.0618 15.7293 20.053C15.5001 20.0618 15.2714 20.0222 15.0566 19.9365C14.8417 19.8507 14.6449 19.7206 14.4773 19.5534C14.3179 19.3983 14.1913 19.2088 14.1059 18.9975C14.0204 18.7861 13.9782 18.5577 13.9819 18.3276C13.9841 18.1295 14.0172 17.9332 14.0799 17.7467C14.1257 17.5887 14.1917 17.4382 14.2759 17.2993L14.3738 17.1425L15.664 15.0394H16.6819L15.6912 16.6545ZM15.7238 19.1762C15.9331 19.1762 16.1348 19.0932 16.29 18.9434C16.3624 18.8677 16.4199 18.7773 16.4592 18.6775C16.4985 18.5778 16.5187 18.4707 16.5187 18.3625C16.5187 18.2543 16.4985 18.1471 16.4592 18.0474C16.4199 17.9476 16.3624 17.8572 16.29 17.7815C16.1348 17.6317 15.9331 17.5487 15.7238 17.5487C15.5146 17.5487 15.3129 17.6317 15.1577 17.7815C15.0853 17.8572 15.0278 17.9476 14.9885 18.0474C14.9492 18.1471 14.929 18.2543 14.929 18.3625C14.929 18.4707 14.9492 18.5778 14.9885 18.6775C15.0278 18.7773 15.0853 18.8677 15.1577 18.9434C15.3129 19.0932 15.5146 19.1762 15.7238 19.1762ZM24.4498 14.9348C24.1822 14.933 23.9177 14.9952 23.6756 15.1168C23.4335 15.2385 23.22 15.4165 23.0508 15.6378C22.6493 16.1597 22.4436 16.8222 22.4738 17.4968C22.4428 18.1733 22.6484 18.8379 23.0508 19.3616C23.2203 19.5828 23.4338 19.7611 23.6757 19.8835C23.9177 20.0058 24.1821 20.0693 24.4498 20.0693C24.7176 20.0693 24.982 20.0058 25.2239 19.8835C25.4659 19.7611 25.6793 19.5828 25.8488 19.3616C26.2495 18.8391 26.455 18.177 26.4258 17.5026C26.4555 16.8281 26.2499 16.1658 25.8488 15.6436C25.6804 15.4209 25.4672 15.2416 25.2251 15.1189C24.9829 14.9962 24.7179 14.9333 24.4498 14.9348ZM25.1411 18.6935C25.07 18.8224 24.9685 18.9293 24.8468 19.0035C24.725 19.0777 24.5873 19.1167 24.4471 19.1167C24.3069 19.1167 24.1691 19.0777 24.0474 19.0035C23.9257 18.9293 23.8242 18.8224 23.753 18.6935C23.5386 18.3401 23.4356 17.9229 23.4591 17.5026C23.4356 17.0823 23.5386 16.6651 23.753 16.3117C23.8242 16.1828 23.9257 16.0759 24.0474 16.0017C24.1691 15.9275 24.3069 15.8884 24.4471 15.8884C24.5873 15.8884 24.725 15.9275 24.8468 16.0017C24.9685 16.0759 25.07 16.1828 25.1411 16.3117C25.364 16.66 25.4766 17.0753 25.4623 17.4968C25.4793 17.9196 25.3687 18.3371 25.1466 18.6877L25.1411 18.6935Z" fill="black"/>
</svg>
