<svg width="35" height="35" viewBox="0 0 35 35" fill="none" xmlns="http://www.w3.org/2000/svg">
<path fill-rule="evenodd" clip-rule="evenodd" d="M29.0544 10.5884C29.5185 12.1316 28.4099 13.3268 27.8813 13.7668C27.8355 13.8135 27.8011 13.8705 27.781 13.9333C27.7608 13.996 27.7554 14.0627 27.7653 14.128L28.7837 25.3773C28.8069 25.6251 28.7535 25.8742 28.631 26.0896C28.5085 26.3051 28.323 26.4762 28.1005 26.579L25.2451 27.8924C25.1361 27.9483 25.0182 27.9839 24.897 27.9975C22.4417 28.274 19.9741 28.4209 17.5039 28.4375C14.9929 28.3712 12.4918 28.09 10.0271 27.5969C9.78082 27.5478 9.56083 27.4084 9.40876 27.205C9.2567 27.0017 9.18314 26.7486 9.20202 26.4937L9.38249 23.6567C8.3564 23.5243 7.41856 22.998 6.76037 22.1851C6.10218 21.3722 5.77324 20.3341 5.84068 19.2825C5.90811 18.231 6.36684 17.2453 7.12325 16.5266C7.87967 15.8079 8.87675 15.4104 9.91103 15.4151L10.0464 13.3137C10.0509 13.2362 10.0362 13.1589 10.0035 13.0889C9.9708 13.0188 9.92126 12.9584 9.85947 12.9131C9.41894 12.6205 9.07985 12.1942 8.89015 11.6946C8.70045 11.1949 8.66975 10.6471 8.80239 10.1287C9.75071 6.55825 16.2981 6.5789 17.3786 6.58231C17.407 6.5824 17.4317 6.58247 17.4524 6.58247C17.929 6.55584 18.4067 6.55584 18.8833 6.58247C19.2442 6.58247 27.9909 6.81889 29.0544 10.5884ZM7.59369 19.168C7.4901 19.2735 7.43116 19.4162 7.42948 19.5655C7.43282 19.7136 7.49249 19.8546 7.5959 19.9587C7.69932 20.0629 7.8384 20.122 7.9838 20.1237H11.8512C11.9285 20.1322 12.0068 20.124 12.0809 20.0997C12.155 20.0754 12.2232 20.0354 12.2811 19.9825C12.339 19.9295 12.3853 19.8647 12.4171 19.7923C12.4488 19.7199 12.4652 19.6415 12.4652 19.5622C12.4652 19.4829 12.4488 19.4045 12.4171 19.3321C12.3853 19.2596 12.339 19.1948 12.2811 19.1419C12.2232 19.0889 12.155 19.049 12.0809 19.0246C12.0068 19.0003 11.9285 18.9922 11.8512 19.0007H7.9838C7.83731 19.0024 7.69728 19.0625 7.59369 19.168ZM9.86799 26.8548C9.93434 26.9429 10.0298 27.0036 10.1366 27.0256C12.5652 27.5128 15.0296 27.7918 17.5039 27.8596C19.9525 27.844 22.3987 27.6994 24.8326 27.4262C24.9477 27.4129 25.0534 27.3551 25.1278 27.2646C25.2021 27.1742 25.2395 27.058 25.2322 26.9402L24.3814 13.3465C24.3707 13.1701 24.4041 12.9938 24.4785 12.8342C24.5529 12.6745 24.6658 12.5367 24.8068 12.4337C25.1519 12.2109 25.4188 11.8824 25.5694 11.4955C25.7199 11.1085 25.7463 10.6829 25.6447 10.2797C24.8208 7.18737 18.69 7.19296 17.6617 7.19389C17.5959 7.19395 17.551 7.194 17.5297 7.19321C17.1752 7.18007 10.2333 6.98963 9.35671 10.2994C9.24884 10.7025 9.2722 11.1303 9.42329 11.5187C9.57437 11.9071 9.84503 12.2351 10.1946 12.4534C10.337 12.5566 10.4509 12.6954 10.5254 12.8564C10.5999 13.0174 10.6325 13.1952 10.62 13.3728L10.4847 15.4742C11.5009 15.6179 12.4261 16.1482 13.0742 16.9585C13.7223 17.7688 14.0454 18.799 13.9784 19.8421C13.9115 20.8852 13.4595 21.8637 12.7133 22.5811C11.9671 23.2985 10.9821 23.7016 9.95615 23.7093L9.77567 26.5462C9.76884 26.6571 9.80164 26.7667 9.86799 26.8548ZM14.1521 11.8164C14.476 11.8164 14.7386 11.5488 14.7386 11.2188C14.7386 10.8887 14.476 10.6212 14.1521 10.6212C13.8281 10.6212 13.5655 10.8887 13.5655 11.2188C13.5655 11.5488 13.8281 11.8164 14.1521 11.8164ZM21.6486 12.7029C21.6486 13.0329 21.386 13.3005 21.0621 13.3005C20.7381 13.3005 20.4755 13.0329 20.4755 12.7029C20.4755 12.3729 20.7381 12.1053 21.0621 12.1053C21.386 12.1053 21.6486 12.3729 21.6486 12.7029ZM22.0157 22.2514C22.0157 22.5814 21.7531 22.849 21.4292 22.849C21.1052 22.849 20.8426 22.5814 20.8426 22.2514C20.8426 21.9213 21.1052 21.6538 21.4292 21.6538C21.7531 21.6538 22.0157 21.9213 22.0157 22.2514ZM15.9054 24.773C15.9054 25.1031 15.6428 25.3706 15.3188 25.3706C14.9949 25.3706 14.7323 25.1031 14.7323 24.773C14.7323 24.443 14.9949 24.1755 15.3188 24.1755C15.6428 24.1755 15.9054 24.443 15.9054 24.773ZM18.0326 17.8515C18.3565 17.8515 18.6191 17.5839 18.6191 17.2539C18.6191 16.9238 18.3565 16.6563 18.0326 16.6563C17.7086 16.6563 17.446 16.9238 17.446 17.2539C17.446 17.5839 17.7086 17.8515 18.0326 17.8515Z" fill="black"/>
</svg>
