<svg width="48" height="48" viewBox="0 0 48 48" fill="none" xmlns="http://www.w3.org/2000/svg">
<path fill-rule="evenodd" clip-rule="evenodd" d="M38.5319 33.536C38.1294 32.9268 37.5388 32.4727 36.8541 32.2462C36.1695 32.0196 35.4302 32.0336 34.7543 32.286C34.6946 32.3048 34.6308 32.3055 34.5708 32.288C34.5107 32.2705 34.4569 32.2355 34.416 32.1873L31.6129 28.98C31.6892 28.7897 31.7538 28.5947 31.8063 28.3961V28.3221C31.8063 28.3186 31.8063 28.3149 31.8064 28.3112C31.8065 28.3069 31.8067 28.3025 31.8069 28.2979C31.8122 28.148 31.8247 27.8012 30.4692 25.7563C31.3391 22.3105 30.9927 16.9403 26.1035 9.22635L26.0391 9.12766L25.9908 9.07832C25.9754 9.05631 25.9612 9.0331 25.9468 9.0096C25.9235 8.97164 25.8998 8.93295 25.87 8.89739C25.0887 7.88586 23.4052 7.72138 21.2305 8.44508C18.8188 9.33665 16.5961 10.6904 14.682 12.4336C12.712 14.1029 11.0717 16.1404 9.84922 18.4371C8.81823 20.5259 8.72157 22.2365 9.58342 23.2562C9.90561 23.5852 16.5668 30.337 23.8643 30.337C24.4387 30.3371 25.0121 30.2931 25.58 30.2054C27.1909 31.6939 27.5534 31.8502 27.7225 31.8502H27.8031C28.0206 31.809 28.2219 31.7515 28.4152 31.6857L31.1619 34.9752C31.2011 35.024 31.2258 35.0833 31.2329 35.146C31.2401 35.2087 31.2294 35.2722 31.2022 35.3288C30.8635 35.9703 30.743 36.7084 30.8596 37.4273C30.9763 38.1462 31.3234 38.8053 31.8465 39.301C32.2791 39.7313 32.8538 39.9807 33.4575 40C33.6772 40.0006 33.8953 39.9616 34.1018 39.8849C34.6015 39.6466 35.0286 39.2745 35.3378 38.8083C35.6469 38.342 35.8266 37.7989 35.8577 37.2368C36.4173 37.2933 36.9816 37.1992 37.4945 36.9641C38.0074 36.7289 38.4512 36.3608 38.7816 35.8963C38.9602 35.5184 39.0314 35.0969 38.9873 34.6797C38.9431 34.2625 38.7854 33.8663 38.5319 33.536ZM10.4694 18.7742C11.6578 16.5698 13.2459 14.6161 15.1492 13.0175C16.9903 11.3378 19.128 10.0316 21.4479 9.16878C22.1495 8.91175 22.8859 8.76749 23.6308 8.74114C23.9514 8.7124 24.2744 8.75485 24.5775 8.86557C24.8806 8.9763 25.1566 9.15267 25.3867 9.3826C26.0311 10.1474 25.9022 11.6113 25.0242 13.3876C23.8359 15.5921 22.2477 17.5457 20.3445 19.1443C18.5034 20.8241 16.3657 22.1303 14.0457 22.9931C12.2012 23.6263 10.7513 23.5441 10.107 22.8039C9.4626 22.0638 9.59147 20.5506 10.4694 18.7742ZM38.1211 35.5509C37.8656 35.9029 37.5271 36.1832 37.137 36.3658C36.7469 36.5484 36.3179 36.6274 35.89 36.5953C35.7317 36.5956 35.5788 36.6538 35.459 36.7594C35.3393 36.8651 35.2607 37.0111 35.2375 37.171C35.1989 37.6073 35.0532 38.0267 34.8139 38.3904C34.5746 38.754 34.2493 39.0502 33.8682 39.2516C33.6004 39.3367 33.3145 39.3425 33.0435 39.2683C32.7726 39.194 32.5279 39.0428 32.3379 38.8322C31.9276 38.4423 31.6583 37.9224 31.5735 37.3567C31.4888 36.791 31.5935 36.2127 31.8707 35.7154C31.9537 35.5329 31.9841 35.33 31.9584 35.1305C31.9327 34.9311 31.852 34.7431 31.7257 34.5887L29.116 31.4801C29.9993 31.1318 30.7521 30.5072 31.2666 29.6955L33.9085 32.6725C34.0407 32.8215 34.2112 32.9297 34.4005 32.9849C34.5898 33.0402 34.7905 33.0402 34.9798 32.985C35.5037 32.7805 36.0799 32.7626 36.615 32.9342C37.1501 33.1059 37.6127 33.4571 37.9278 33.9308C38.1067 34.1529 38.2199 34.4225 38.2542 34.708C38.2884 34.9935 38.2423 35.283 38.1211 35.5427V35.5509ZM15.7775 19.1361C16.0275 19.1341 16.2763 19.1009 16.5185 19.0374C17.4497 18.7648 18.3086 18.2813 19.0316 17.6229C20.0543 16.8339 20.759 15.6902 21.013 14.4074C21.035 14.2389 21.0234 14.0675 20.9792 13.9036C20.9349 13.7397 20.8587 13.5866 20.7552 13.4534C20.5151 13.2368 20.2206 13.0928 19.9047 13.0376C19.5888 12.9824 19.2642 13.0181 18.9671 13.1409C18.0338 13.4208 17.1746 13.9128 16.4541 14.5801C15.4308 15.3686 14.7259 16.5125 14.4726 17.7956C14.4427 18.1171 14.535 18.4381 14.7304 18.692C14.8617 18.8408 15.0238 18.9578 15.2049 19.0346C15.386 19.1114 15.5816 19.1461 15.7775 19.1361ZM23.7596 10.5669C23.3489 10.1639 21.754 10.6655 20.8036 11.1261V11.0932C20.7178 11.1304 20.6213 11.1324 20.5341 11.0989C20.4469 11.0653 20.3758 10.9988 20.3353 10.9131C20.2949 10.8274 20.2884 10.7291 20.3171 10.6386C20.3458 10.5481 20.4075 10.4723 20.4894 10.427C20.9566 10.1968 23.3408 9.10301 24.259 9.99941C24.9356 10.6655 24.6295 11.636 24.3476 12.3103C24.3196 12.376 24.2734 12.4319 24.2148 12.4714C24.1562 12.5108 24.0876 12.532 24.0174 12.5324C23.9696 12.5426 23.9202 12.5426 23.8724 12.5324C23.7851 12.4927 23.7167 12.4195 23.682 12.3286C23.6474 12.2378 23.6492 12.1366 23.6872 12.0471C24.1463 10.9451 23.8805 10.682 23.7596 10.5669Z" fill="black"/>
</svg>
