<svg width="35" height="35" viewBox="0 0 35 35" fill="none" xmlns="http://www.w3.org/2000/svg">
<path fill-rule="evenodd" clip-rule="evenodd" d="M17.5038 5.83301C11.0681 5.83301 5.83203 11.0639 5.83203 17.4997C5.83203 23.9354 11.0681 29.1663 17.4987 29.1663C23.9293 29.1663 29.1654 23.9303 29.1654 17.4997C29.1654 11.069 23.9344 5.83301 17.5038 5.83301ZM17.5038 28.7139C11.3222 28.7139 6.28955 23.6812 6.28955 17.4997C6.28955 11.3181 11.3171 6.28544 17.5038 6.28544C23.6904 6.28544 28.718 11.3181 28.718 17.4997C28.718 23.6812 23.6853 28.7139 17.5038 28.7139ZM8.84657 13.6165C8.87707 13.6318 8.90757 13.6369 8.94316 13.6369C9.02449 13.6369 9.10583 13.5911 9.14141 13.5098C10.6716 10.3122 13.9453 8.24834 17.4885 8.24834C17.6105 8.24834 17.7071 8.15175 17.7071 8.02975C17.7071 7.90774 17.6105 7.81116 17.4885 7.81116C13.7776 7.81116 10.3462 9.97165 8.7449 13.3217C8.69406 13.4335 8.73982 13.5606 8.84657 13.6165ZM25.9068 17.2859C25.8458 17.6875 26.4508 19.0194 26.8117 19.8124L26.8168 19.8073C26.8417 19.8627 26.8661 19.9166 26.8898 19.969C27.0637 20.3539 27.1991 20.6534 27.2438 20.8189C27.3251 21.1087 27.2031 21.2358 27.1218 21.2866C26.9947 21.3679 26.6236 21.6018 24.0819 19.4413C23.421 20.0869 20.7318 22.4456 16.4362 22.4456H16.3346C15.5212 22.4355 14.7587 22.3338 14.047 22.1711L14.8959 22.9438L17.3564 25.1755L18.2104 25.9482C18.2612 25.9939 18.2866 26.0549 18.2866 26.121C18.2866 26.182 18.2561 26.2481 18.2053 26.2888C18.002 26.4616 17.7885 26.609 17.5699 26.7412C20.6606 26.7158 23.5176 25.1653 25.2206 22.5778C25.2866 22.4761 25.4239 22.4507 25.5256 22.5168C25.6272 22.5829 25.6527 22.7202 25.5866 22.8218C23.787 25.5517 20.7623 27.1835 17.4936 27.1835C17.2242 27.1835 16.9548 27.1682 16.6904 27.1479C16.1872 27.3207 15.6636 27.4072 15.14 27.4072C13.9962 27.4072 12.8524 26.9954 11.9526 26.182C10.453 24.8196 10.0158 22.6693 10.7681 20.8545C8.9889 19.7971 7.81969 18.5059 7.35709 17.9264C7.12325 17.6366 7.12325 17.235 7.36217 16.9453C8.20604 15.9235 11.3476 12.5836 16.3346 12.543H16.4362C16.4744 12.543 16.5112 12.5455 16.5481 12.548C16.5849 12.5506 16.6218 12.5531 16.6599 12.5531L14.718 11.0942C14.6621 11.0586 14.6265 10.9976 14.6265 10.9315C14.6214 10.8654 14.6469 10.7993 14.6926 10.7536C16.3498 9.06075 19.0288 8.85741 20.925 10.2808C22.2365 11.267 22.933 12.8734 22.7856 14.5052C23.4261 14.9424 23.8683 15.3389 24.0819 15.5524C26.6185 13.4173 26.9998 13.6512 27.1218 13.7325C27.2031 13.7884 27.3251 13.9155 27.2438 14.2053C27.1828 14.4137 27.015 14.739 26.7965 15.1559C26.4406 15.832 25.9983 16.6809 25.9068 17.2859ZM22.3382 14.2205C22.389 12.8327 21.7638 11.4856 20.6454 10.6468H20.6505C19.0085 9.41151 16.7108 9.53352 15.206 10.8959L15.7754 11.3229C16.5837 10.6621 17.6156 10.3977 18.6069 10.5502H18.6323C18.6628 10.5502 18.6984 10.5604 18.7238 10.5756C19.2525 10.6722 19.7659 10.8806 20.2184 11.2212C20.681 11.572 21.0419 12.0194 21.2859 12.5277C21.288 12.5318 21.2916 12.5358 21.2953 12.5399C21.3008 12.546 21.3063 12.5521 21.3063 12.5582V12.5735C21.4842 12.9598 21.596 13.3767 21.6316 13.8138C21.8858 13.9511 22.1196 14.0833 22.3382 14.2205ZM20.7572 12.5175C20.5539 12.1566 20.2794 11.8414 19.9388 11.5873H19.9337C19.5931 11.3331 19.2118 11.1653 18.8153 11.0637L18.7035 12.7819C18.978 12.8378 19.2373 12.9039 19.4914 12.9751L20.7572 12.5175ZM21.1436 13.58C21.108 13.3563 21.047 13.1326 20.9606 12.9242L20.198 13.1987C20.5336 13.3157 20.8487 13.4427 21.1436 13.58ZM18.3629 10.9772C17.5851 10.8959 16.7921 11.1145 16.1414 11.6076L17.4682 12.604C17.7376 12.6243 17.9969 12.6599 18.2511 12.7005L18.3629 10.9772ZM10.9308 16.1777C10.6512 16.1777 10.4275 16.4064 10.4275 16.6809C10.4275 16.9605 10.6512 17.1842 10.9308 17.1842C11.2104 17.1842 11.4341 16.9605 11.4341 16.6809C11.4341 16.4013 11.2104 16.1777 10.9308 16.1777ZM12.3084 23.986C12.4813 24.357 12.7202 24.6976 13.0354 24.9874H13.0303C13.3455 25.2721 13.7115 25.4754 14.0978 25.6127L14.4486 23.4268L12.3084 23.986ZM14.2707 23.0099L12.3339 21.251L12.3389 21.2561C11.9729 21.9881 11.9272 22.8117 12.1508 23.564L14.2707 23.0099ZM16.8277 25.3331L14.8909 23.5742L14.5452 25.7398C15.3179 25.8923 16.1363 25.7652 16.8277 25.3331ZM11.4646 20.4682C10.4123 22.2016 10.7275 24.4791 12.2474 25.8618V25.8567C13.7674 27.2394 16.0652 27.3309 17.6919 26.1159L17.1632 25.6381C16.5532 26.0499 15.8567 26.2634 15.1552 26.2634C14.8553 26.2634 14.5503 26.2227 14.2554 26.1464H14.2503H14.2453C13.6962 26.0041 13.1726 25.7347 12.7304 25.3331C12.2932 24.9417 11.9882 24.4536 11.7899 23.9351C11.7877 23.9284 11.7834 23.9236 11.7794 23.9191C11.7743 23.9134 11.7696 23.908 11.7696 23.8995V23.8741C11.429 22.9286 11.4951 21.8661 11.9933 20.946L11.4646 20.4682ZM13.8081 20.4224C13.9047 20.4224 13.9962 20.3665 14.0368 20.275C14.8248 18.5618 14.8248 16.5132 14.0368 14.795C13.9809 14.6679 13.8284 14.6119 13.7013 14.6679C13.5742 14.7238 13.5132 14.8763 13.5742 15.0034C14.3012 16.5894 14.3012 18.4805 13.5742 20.0615C13.5183 20.1886 13.5742 20.3411 13.7013 20.397C13.7369 20.4173 13.7725 20.4224 13.8081 20.4224ZM16.0702 20.5088C16.1617 20.5088 16.2482 20.458 16.2939 20.3716C17.2598 18.511 17.2598 16.2844 16.2939 14.4239C16.2329 14.3019 16.0753 14.251 15.9533 14.3171C15.8313 14.3781 15.7805 14.5306 15.8466 14.6577C16.7362 16.3759 16.7362 18.4246 15.8466 20.1377C15.7805 20.2597 15.8262 20.4122 15.9533 20.4783C15.9889 20.4987 16.0296 20.5088 16.0702 20.5088ZM18.4595 20.153C18.5459 20.153 18.6323 20.1072 18.6781 20.0259V20.031C19.6541 18.3839 19.6541 16.4217 18.6781 14.7746C18.6069 14.6577 18.4544 14.617 18.3324 14.6882C18.2155 14.7594 18.1748 14.9119 18.246 15.0339C19.1254 16.5183 19.1254 18.2873 18.246 19.7717C18.1697 19.8886 18.2104 20.0462 18.3324 20.1174C18.3731 20.1428 18.4137 20.153 18.4595 20.153ZM20.8538 19.609C20.9352 19.609 21.0216 19.5684 21.0673 19.4921C21.8909 18.1806 21.8909 16.6149 21.0673 15.3033C20.9911 15.1813 20.8335 15.1457 20.7166 15.222C20.5946 15.2982 20.559 15.4558 20.6352 15.5727C21.352 16.7114 21.352 18.0738 20.6352 19.2176C20.5641 19.3345 20.5996 19.4921 20.7166 19.5684C20.7623 19.5989 20.8081 19.609 20.8538 19.609Z" fill="black"/>
</svg>
