<?xml version="1.0" encoding="utf-8"?>
<svg xmlns="http://www.w3.org/2000/svg" width="61" height="64" viewBox="0 0 61 64" fill="none">
<path d="M37.807 48.7414C38.175 48.7414 38.6349 48.7414 39.0029 48.7414C42.2225 48.7414 44.7981 48.7414 47.0058 48.8334V22.6167C47.0058 21.9728 46.4539 21.4209 45.81 21.4209H37.623C37.715 21.6969 37.807 21.7889 37.807 21.7889V48.7414Z" fill="#2C282B"/>
<path d="M18.9496 54.5366L16.0059 54.0767C15.914 54.0767 15.822 53.9847 15.73 53.8927C15.638 53.8007 15.638 53.7087 15.638 53.5248L16.2819 51.2251V51.1331L16.3739 50.7651C16.5579 49.9372 17.2018 49.3853 17.9377 49.2013C20.9733 48.7414 26.0326 48.4654 32.9318 48.3734V21.7889C32.9318 21.7889 32.9318 21.6049 32.8398 21.4209H14.1662C14.0742 21.6969 14.0742 21.7889 14.0742 21.7889V58.3081H9.2908V21.7889C9.2908 21.7889 9.38279 21.6049 9.47478 21.4209H1.93175C0.919882 21.4209 0 22.2488 0 23.3526V56.8363C0 57.8482 0.827894 58.7681 1.93175 58.7681H19.9614L18.9496 54.5366Z" fill="#2C282B"/>
<path d="M37.8073 48.3739V21.7893C37.8073 21.7893 30.0803 1 23.5492 1C17.018 1 9.29102 21.7893 9.29102 21.7893V58.3086H14.0744V21.7893C14.0744 21.7893 18.7658 2.5638 23.5492 2.5638C28.3326 2.5638 33.024 21.7893 33.024 21.7893V48.3739" stroke="#2C282B" stroke-width="0.8951" stroke-miterlimit="10" stroke-linecap="round" stroke-linejoin="round"/>
<path d="M16.0977 53.6173L16.7416 51.2256L21.8929 51.8695L22.2609 54.7211L16.0977 53.6173Z" stroke="#2C282B" stroke-width="0.8951" stroke-miterlimit="10" stroke-linecap="round" stroke-linejoin="round"/>
<path d="M60.1595 53.6173L59.4236 51.2256L54.2723 51.8695L53.9043 54.7211L60.1595 53.6173Z" stroke="#2C282B" stroke-width="0.8951" stroke-miterlimit="10" stroke-linecap="round" stroke-linejoin="round"/>
<path d="M39.1885 51.8691H21.8027L23.4585 62.2638C23.4585 62.6318 23.7345 62.8157 24.1024 62.8157L39.1885 62.9997L52.3428 62.8157C52.6188 62.8157 52.8947 62.5398 52.9867 62.2638L54.3665 51.8691H39.1885Z" stroke="#2C282B" stroke-width="0.8951" stroke-miterlimit="10" stroke-linecap="round" stroke-linejoin="round"/>
<path d="M59.3329 50.8579C59.1489 50.214 58.689 49.7541 58.0451 49.6621C56.2053 49.3861 53.1697 48.7422 39.0035 48.7422C24.8373 48.7422 19.87 49.3861 18.0302 49.6621C17.3863 49.7541 16.9264 50.214 16.7424 50.8579L16.6504 51.2259L21.8017 51.8698H39.1875H54.2735L59.4249 51.2259L59.3329 50.8579Z" stroke="#2C282B" stroke-width="0.8951" stroke-miterlimit="10" stroke-linecap="round" stroke-linejoin="round"/>
<path d="M27.6875 62.9077V51.8691H34.4946V62.8157" stroke="#2C282B" stroke-width="0.8951" stroke-miterlimit="10" stroke-linecap="round" stroke-linejoin="round"/>
<path d="M27.6875 48.926V51.8696H34.4946V48.834C31.827 48.834 29.6193 48.834 27.6875 48.926Z" stroke="#2C282B" stroke-width="0.8951" stroke-miterlimit="10" stroke-linecap="round" stroke-linejoin="round"/>
<path d="M53.9044 54.7218L52.8926 62.0809L54.3644 61.437C54.8243 61.161 55.1923 60.7011 55.2843 60.1492L56.8481 54.1699L53.9044 54.7218Z" stroke="#2C282B" stroke-width="0.8951" stroke-miterlimit="10" stroke-linecap="round" stroke-linejoin="round"/>
<path d="M21.9862 52.8818L22.1702 54.7216L19.2266 54.1697L20.7904 60.1489C20.8823 60.7008 21.2503 61.1608 21.7102 61.4367L23.55 62.1726L21.9862 52.8818Z" stroke="#2C282B" stroke-width="0.8951" stroke-miterlimit="10" stroke-linecap="round" stroke-linejoin="round"/>
<path d="M9.29102 21.79H13.6145" stroke="#2C282B" stroke-width="0.8951" stroke-miterlimit="10" stroke-linecap="round" stroke-linejoin="round"/>
<path d="M33.0234 21.79H37.8068" stroke="#2C282B" stroke-width="0.8951" stroke-miterlimit="10" stroke-linecap="round" stroke-linejoin="round"/>
<path d="M37.807 48.7414C38.175 48.7414 38.6349 48.7414 39.0029 48.7414C42.2225 48.7414 44.7981 48.7414 47.0058 48.8334V22.6167C47.0058 21.9728 46.4539 21.4209 45.81 21.4209H37.623C37.715 21.6969 37.807 21.7889 37.807 21.7889V48.7414Z" fill="#2C282B"/>
<path d="M18.9496 54.5366L16.0059 54.0767C15.914 54.0767 15.822 53.9847 15.73 53.8927C15.638 53.8007 15.638 53.7087 15.638 53.5248L16.2819 51.2251V51.1331L16.3739 50.7651C16.5579 49.9372 17.2018 49.3853 17.9377 49.2013C20.9733 48.7414 26.0326 48.4654 32.9318 48.3734V21.7889C32.9318 21.7889 32.9318 21.6049 32.8398 21.4209H14.1662C14.0742 21.6969 14.0742 21.7889 14.0742 21.7889V58.3081H9.2908V21.7889C9.2908 21.7889 9.38279 21.6049 9.47478 21.4209H1.93175C0.919882 21.4209 0 22.2488 0 23.3526V56.8363C0 57.8482 0.827894 58.7681 1.93175 58.7681H19.9614L18.9496 54.5366Z" fill="#2C282B"/>
<path d="M37.8073 48.3739V21.7893C37.8073 21.7893 30.0803 1 23.5492 1C17.018 1 9.29102 21.7893 9.29102 21.7893V58.3086H14.0744V21.7893C14.0744 21.7893 18.7658 2.5638 23.5492 2.5638C28.3326 2.5638 33.024 21.7893 33.024 21.7893V48.3739" stroke="#2C282B" stroke-width="0.8951" stroke-miterlimit="10" stroke-linecap="round" stroke-linejoin="round"/>
<path d="M16.0977 53.6173L16.7416 51.2256L21.8929 51.8695L22.2609 54.7211L16.0977 53.6173Z" stroke="#2C282B" stroke-width="0.8951" stroke-miterlimit="10" stroke-linecap="round" stroke-linejoin="round"/>
<path d="M60.1595 53.6173L59.4236 51.2256L54.2723 51.8695L53.9043 54.7211L60.1595 53.6173Z" stroke="#2C282B" stroke-width="0.8951" stroke-miterlimit="10" stroke-linecap="round" stroke-linejoin="round"/>
<path d="M39.1885 51.8691H21.8027L23.4585 62.2638C23.4585 62.6318 23.7345 62.8157 24.1024 62.8157L39.1885 62.9997L52.3428 62.8157C52.6188 62.8157 52.8947 62.5398 52.9867 62.2638L54.3665 51.8691H39.1885Z" stroke="#2C282B" stroke-width="0.8951" stroke-miterlimit="10" stroke-linecap="round" stroke-linejoin="round"/>
<path d="M59.3329 50.8579C59.1489 50.214 58.689 49.7541 58.0451 49.6621C56.2053 49.3861 53.1697 48.7422 39.0035 48.7422C24.8373 48.7422 19.87 49.3861 18.0302 49.6621C17.3863 49.7541 16.9264 50.214 16.7424 50.8579L16.6504 51.2259L21.8017 51.8698H39.1875H54.2735L59.4249 51.2259L59.3329 50.8579Z" stroke="#2C282B" stroke-width="0.8951" stroke-miterlimit="10" stroke-linecap="round" stroke-linejoin="round"/>
<path d="M27.6875 62.9077V51.8691H34.4946V62.8157" stroke="#2C282B" stroke-width="0.8951" stroke-miterlimit="10" stroke-linecap="round" stroke-linejoin="round"/>
<path d="M27.6875 48.926V51.8696H34.4946V48.834C31.827 48.834 29.6193 48.834 27.6875 48.926Z" stroke="#2C282B" stroke-width="0.8951" stroke-miterlimit="10" stroke-linecap="round" stroke-linejoin="round"/>
<path d="M53.9044 54.7218L52.8926 62.0809L54.3644 61.437C54.8243 61.161 55.1923 60.7011 55.2843 60.1492L56.8481 54.1699L53.9044 54.7218Z" stroke="#2C282B" stroke-width="0.8951" stroke-miterlimit="10" stroke-linecap="round" stroke-linejoin="round"/>
<path d="M21.9862 52.8818L22.1702 54.7216L19.2266 54.1697L20.7904 60.1489C20.8823 60.7008 21.2503 61.1608 21.7102 61.4367L23.55 62.1726L21.9862 52.8818Z" stroke="#2C282B" stroke-width="0.8951" stroke-miterlimit="10" stroke-linecap="round" stroke-linejoin="round"/>
<path d="M9.29102 21.79H13.6145" stroke="#2C282B" stroke-width="0.8951" stroke-miterlimit="10" stroke-linecap="round" stroke-linejoin="round"/>
<path d="M33.0234 21.79H37.8068" stroke="#2C282B" stroke-width="0.8951" stroke-miterlimit="10" stroke-linecap="round" stroke-linejoin="round"/>
<path d="M37.2539 57.0215C38.4498 57.0215 38.4498 57.4814 39.7376 57.4814C40.9334 57.4814 40.9334 57.0215 42.2213 57.0215C43.4171 57.0215 43.4171 57.4814 44.7049 57.4814C45.9008 57.4814 45.9008 57.0215 47.1886 57.0215C48.3845 57.0215 48.3845 57.4814 49.6723 57.4814" fill="white"/>
<path d="M37.2539 57.0215C38.4498 57.0215 38.4498 57.4814 39.7376 57.4814C40.9334 57.4814 40.9334 57.0215 42.2213 57.0215C43.4171 57.0215 43.4171 57.4814 44.7049 57.4814C45.9008 57.4814 45.9008 57.0215 47.1886 57.0215C48.3845 57.0215 48.3845 57.4814 49.6723 57.4814" stroke="#2C282B" stroke-width="0.8951" stroke-miterlimit="10" stroke-linecap="round" stroke-linejoin="round"/>
<path d="M33.0228 58.6764C33.0228 58.5844 32.9308 58.5844 32.8388 58.4925L31.9189 57.4806L32.9308 56.4687C33.0228 56.3767 33.0228 56.3767 33.1147 56.2847C33.1147 56.1927 33.2067 56.1008 33.2067 56.0088C33.2067 55.9168 33.1147 55.8248 33.0228 55.7328C32.9308 55.6408 32.8388 55.5488 32.7468 55.5488C32.6548 55.5488 32.5628 55.5488 32.4708 55.6408C32.3788 55.6408 32.3788 55.7328 32.2869 55.8248L31.367 56.7447L30.4471 55.8248C30.3551 55.7328 30.3551 55.7328 30.2631 55.6408C30.1711 55.6408 30.0791 55.5488 29.9872 55.5488C29.8952 55.5488 29.8032 55.6408 29.7112 55.7328C29.6192 55.8248 29.5272 55.9168 29.5272 56.0088C29.5272 56.1008 29.5272 56.1927 29.6192 56.2847C29.6192 56.3767 29.7112 56.3767 29.8032 56.4687L30.7231 57.3886L29.7112 58.4005C29.6192 58.4924 29.6192 58.4925 29.5272 58.5844C29.5272 58.6764 29.4352 58.7684 29.5272 58.8604C29.5272 58.9524 29.6192 59.0444 29.7112 59.1364C29.8032 59.2284 29.8952 59.3203 29.9872 59.3203C29.9872 59.3203 29.9872 59.3203 30.0791 59.3203C30.1711 59.3203 30.2631 59.3203 30.2631 59.2284C30.3551 59.2284 30.3551 59.1364 30.4471 59.0444L31.367 58.1245L32.3788 59.0444C32.4708 59.1364 32.4708 59.1364 32.5628 59.2284C32.6548 59.2284 32.7468 59.3203 32.8388 59.3203C32.9308 59.3203 33.0228 59.2284 33.1147 59.1364C33.2067 59.0444 33.2987 58.9524 33.2987 58.8604C33.1147 58.8604 33.1147 58.7684 33.0228 58.6764Z" fill="#2C282B"/>
<path d="M37.2539 57.0215C38.4498 57.0215 38.4498 57.4814 39.7376 57.4814C40.9334 57.4814 40.9334 57.0215 42.2213 57.0215C43.4171 57.0215 43.4171 57.4814 44.7049 57.4814C45.9008 57.4814 45.9008 57.0215 47.1886 57.0215C48.3845 57.0215 48.3845 57.4814 49.6723 57.4814" fill="white"/>
<path d="M37.2539 57.0215C38.4498 57.0215 38.4498 57.4814 39.7376 57.4814C40.9334 57.4814 40.9334 57.0215 42.2213 57.0215C43.4171 57.0215 43.4171 57.4814 44.7049 57.4814C45.9008 57.4814 45.9008 57.0215 47.1886 57.0215C48.3845 57.0215 48.3845 57.4814 49.6723 57.4814" stroke="#2C282B" stroke-width="0.8951" stroke-miterlimit="10" stroke-linecap="round" stroke-linejoin="round"/>
<path d="M33.0228 58.6764C33.0228 58.5844 32.9308 58.5844 32.8388 58.4925L31.9189 57.4806L32.9308 56.4687C33.0228 56.3767 33.0228 56.3767 33.1147 56.2847C33.1147 56.1927 33.2067 56.1008 33.2067 56.0088C33.2067 55.9168 33.1147 55.8248 33.0228 55.7328C32.9308 55.6408 32.8388 55.5488 32.7468 55.5488C32.6548 55.5488 32.5628 55.5488 32.4708 55.6408C32.3788 55.6408 32.3788 55.7328 32.2869 55.8248L31.367 56.7447L30.4471 55.8248C30.3551 55.7328 30.3551 55.7328 30.2631 55.6408C30.1711 55.6408 30.0791 55.5488 29.9872 55.5488C29.8952 55.5488 29.8032 55.6408 29.7112 55.7328C29.6192 55.8248 29.5272 55.9168 29.5272 56.0088C29.5272 56.1008 29.5272 56.1927 29.6192 56.2847C29.6192 56.3767 29.7112 56.3767 29.8032 56.4687L30.7231 57.3886L29.7112 58.4005C29.6192 58.4924 29.6192 58.4925 29.5272 58.5844C29.5272 58.6764 29.4352 58.7684 29.5272 58.8604C29.5272 58.9524 29.6192 59.0444 29.7112 59.1364C29.8032 59.2284 29.8952 59.3203 29.9872 59.3203C29.9872 59.3203 29.9872 59.3203 30.0791 59.3203C30.1711 59.3203 30.2631 59.3203 30.2631 59.2284C30.3551 59.2284 30.3551 59.1364 30.4471 59.0444L31.367 58.1245L32.3788 59.0444C32.4708 59.1364 32.4708 59.1364 32.5628 59.2284C32.6548 59.2284 32.7468 59.3203 32.8388 59.3203C32.9308 59.3203 33.0228 59.2284 33.1147 59.1364C33.2067 59.0444 33.2987 58.9524 33.2987 58.8604C33.1147 58.8604 33.1147 58.7684 33.0228 58.6764Z" fill="#2C282B"/>
</svg>