<?xml version="1.0" encoding="utf-8"?>
<svg xmlns="http://www.w3.org/2000/svg" width="48" height="48" viewBox="0 0 48 48" fill="none">
<g id="favorites">
<path id="Vector" d="M39.7165 11.7267C39.6818 11.0753 39.4229 10.4548 38.9822 9.96696C38.5415 9.47907 37.9452 9.15274 37.2909 9.04145C32.5705 8.18913 20.9653 7.09853 10.6661 9.27057C10.0544 9.40733 9.50488 9.73636 9.10082 10.2077C8.69675 10.6791 8.46023 11.2671 8.42715 11.8825C8.38051 12.6524 7.2517 30.8261 8.86561 32.4666C9.61193 33.2272 13.7913 34.2354 18.5771 34.4553C18.8162 34.4686 19.0489 34.5369 19.2563 34.6547C19.4637 34.7725 19.6401 34.9365 19.7712 35.1335C20.1257 35.6376 23.1856 40 24.3703 40H24.445C25.3779 39.8442 27.6728 36.5632 28.4844 35.3168C28.6191 35.103 28.8053 34.9252 29.0266 34.7989C29.2479 34.6726 29.4974 34.6018 29.7532 34.5928C34.2217 34.5011 39.0821 33.6213 39.5952 32.3108C40.3229 30.2854 39.8844 15.6676 39.6978 11.7176M32.3 20.0483C32.0743 20.8958 31.6565 21.6822 31.0779 22.3487L24.9394 29.6805C24.7733 29.8778 24.5404 30.0096 24.2833 30.0517C24.0262 30.0938 23.7623 30.0434 23.5401 29.9096C23.3068 29.7721 22.887 29.5155 16.8978 22.3487C16.3274 21.6829 15.9161 20.9 15.6944 20.0575C15.4574 19.327 15.4489 18.5435 15.6701 17.8082C15.8913 17.073 16.332 16.4199 16.9352 15.9334L17.0471 15.86C18.0705 15.2917 19.2679 15.1039 20.4206 15.3311C21.5733 15.5582 22.6044 16.1851 23.3255 17.0973C23.5897 17.3903 23.8388 17.6962 24.0718 18.0138L24.9114 17.0973C26.3388 15.6217 28.8389 14.5861 30.9379 15.8325L31.0499 15.9059C31.653 16.3924 32.0937 17.0455 32.3149 17.7808C32.5361 18.516 32.5276 19.2995 32.2906 20.03" fill="black"/>
</g>
</svg>