<svg width="35" height="35" viewBox="0 0 35 35" fill="none" xmlns="http://www.w3.org/2000/svg">
<path fill-rule="evenodd" clip-rule="evenodd" d="M29.15 21.8364C29.1227 21.7898 29.0773 21.7526 29.0227 21.7386L29.0115 21.7359L29.0115 21.7359C28.8911 21.7067 28.0302 21.498 26.9184 21.422C27.3997 19.8165 27.1689 18.8349 27.147 18.7419L27.1456 18.736C27.1183 18.6382 27.032 18.5777 26.9365 18.5823C26.8638 18.587 25.273 18.7173 24.1367 19.6624V19.6577C24.114 19.4063 24.0731 19.1503 24.0231 18.8989C23.9322 18.4473 23.8095 18.0051 23.6368 17.5675C23.864 17.3347 24.5685 16.534 24.6867 15.5052C24.764 14.8116 24.764 14.779 24.7412 14.3461C24.7276 14.0668 24.7049 13.6012 24.6867 12.6329C24.6467 10.0352 22.3452 9.49157 22.2278 9.46384L22.2232 9.46272C22.1687 9.44875 21.0051 9.18806 20.0279 9.86772C20.087 9.10426 20.2007 8.55029 20.2052 8.53632C20.2188 8.47581 20.2052 8.41063 20.1643 8.35942C20.1234 8.30822 20.0688 8.28029 20.0052 8.28029H19.0553V7.70304C19.0553 7.07458 18.5553 6.5625 17.9417 6.5625H16.4646C15.851 6.5625 15.351 7.07458 15.351 7.70304V8.28029H13.6966C13.6057 8.28029 13.5239 8.3408 13.5011 8.42925C13.4784 8.5177 13.5102 8.61546 13.5875 8.66202L13.5889 8.66294C13.6375 8.69519 14.8548 9.50194 15.1056 10.8872C15.2737 11.8043 14.9874 12.7819 14.2511 13.7921L13.9647 14.1831L13.9322 14.2278L13.9322 14.2278C13.8898 14.2858 13.8492 14.3416 13.8057 14.3973C13.1148 15.3423 12.4603 16.2408 11.9513 17.1671C10.5861 16.1866 9.0697 15.7815 8.93201 15.7447L8.9242 15.7426C8.86511 15.7287 8.80148 15.7426 8.75149 15.7799C8.70149 15.8171 8.67422 15.8776 8.67422 15.9428C8.67422 16.0266 8.68331 17.8887 9.45143 19.7601C7.41976 19.3737 6.05623 19.7182 5.9835 19.7368C5.87897 19.7648 5.81079 19.8765 5.83806 19.9836L5.84069 19.9945C5.89215 20.2105 6.5006 22.7641 8.07426 24.0709C8.07216 24.0903 8.06909 24.1096 8.06594 24.1295C8.06228 24.1525 8.05852 24.1762 8.05608 24.2012C7.97427 25.5373 9.31508 26.7151 11.0468 26.8221L11.0597 26.8228H11.0598C11.1414 26.8272 11.2191 26.8314 11.2968 26.8314C11.8285 26.8314 12.3467 26.7197 12.8012 26.5195C12.8376 27.0595 13.033 27.5483 13.4011 27.9068C13.7738 28.2653 14.2647 28.4375 14.792 28.4375C15.6237 28.4375 16.5555 28.0139 17.2781 27.2271C17.6554 26.8128 17.9326 26.3473 18.1008 25.8771H20.7824C20.8824 26.1844 21.0506 26.4544 21.2779 26.6732C21.6506 27.0316 22.1414 27.2039 22.6687 27.2039C23.5004 27.2039 24.4276 26.7849 25.1503 25.9981C28.3319 24.9926 29.1273 22.1064 29.1591 21.9853C29.1727 21.9295 29.1636 21.8736 29.1364 21.8271L29.15 21.8364ZM26.5138 21.3662V21.4081C25.9411 21.3895 25.323 21.4174 24.714 21.5245C24.7073 21.5245 24.7031 21.527 24.6977 21.5301C24.6958 21.5313 24.6937 21.5325 24.6912 21.5338C24.5003 21.4919 24.3004 21.4733 24.0958 21.4826C24.0958 21.4632 24.1002 21.4416 24.1044 21.4209L24.1044 21.4209C24.1062 21.4117 24.1081 21.4027 24.1095 21.3941C24.1595 20.9984 24.1822 20.5981 24.1731 20.2024C25.0049 19.3505 26.3139 19.0944 26.7911 19.0292C26.8365 19.3691 26.8865 20.1931 26.5229 21.3708L26.5138 21.3662ZM14.5056 16.7715C14.5056 16.7715 13.3557 18.0935 12.7739 20.1651C12.7467 20.2675 12.6557 20.3327 12.5558 20.3327C12.5376 20.3327 12.5148 20.3327 12.4921 20.3234C12.3694 20.2862 12.3012 20.1605 12.3376 20.0348C12.9466 17.8515 14.1193 16.5108 14.1693 16.4549C14.2556 16.3618 14.3965 16.3525 14.492 16.4363C14.5874 16.5247 14.592 16.669 14.5102 16.7668L14.5056 16.7715ZM22.5459 15.6076C22.5013 15.5458 22.4491 15.4777 22.3928 15.4043C22.3516 15.3507 22.3083 15.2942 22.2641 15.2352C22.146 15.0816 22.0233 14.9233 21.8914 14.7604L21.8824 14.7511C21.796 14.644 21.7096 14.5416 21.6187 14.4345C21.6096 14.4252 21.6051 14.4206 21.6006 14.4112C21.3597 14.1273 21.1142 13.8433 20.8779 13.6105C20.5234 13.2614 20.287 12.8704 20.1779 12.456C20.1279 12.2652 20.0916 12.0697 20.0643 11.8695C20.5052 10.8779 21.6051 10.9477 21.6778 10.9524L21.6812 10.9524C21.7724 10.9515 23.0387 10.9391 23.1595 13.0612L23.1959 13.7083C23.2262 14.2235 23.2277 14.5804 23.2004 14.779C23.1971 14.8099 23.1925 14.844 23.1874 14.8821L23.1874 14.8822C23.1786 14.9475 23.1681 15.0248 23.1595 15.1188C23.1095 15.5704 22.9505 15.8637 22.8368 16.0266C22.7459 15.887 22.6505 15.7426 22.5459 15.6076ZM22.1369 9.87704C22.2232 9.89566 24.2458 10.3332 24.2822 12.6423C24.2944 13.5203 24.3177 13.989 24.3322 14.2811L24.3367 14.374C24.3594 14.779 24.3594 14.8069 24.2867 15.4633C24.2004 16.2221 23.7231 16.8599 23.4641 17.1578C23.3459 16.9018 23.2141 16.6504 23.0686 16.399C23.2232 16.2221 23.4959 15.8218 23.5686 15.1654L23.5731 15.1293L23.5732 15.1291C23.5891 15.0029 23.6012 14.9068 23.6095 14.8302C23.655 14.4904 23.655 14.4718 23.6095 13.6757L23.5731 13.0286C23.5186 12.0883 23.2504 11.39 22.7777 10.9617C22.2596 10.4915 21.6824 10.5241 21.6915 10.5288C21.2915 10.4915 20.5279 10.6126 20.0098 11.1945C19.9961 10.9571 19.9961 10.7057 20.0052 10.4403V10.431C20.8564 9.59588 22.0874 9.85983 22.1442 9.87201L22.146 9.87238L22.1369 9.87704ZM15.7601 7.717C15.7601 7.31665 16.0782 6.99544 16.4646 6.99544H17.9417C18.3326 6.99544 18.6462 7.32131 18.6462 7.717V8.29425H15.7601V7.717ZM15.5101 10.822C15.3283 9.83048 14.7283 9.11357 14.292 8.70857H19.7598C19.6871 9.14151 19.5598 10.0679 19.5916 11.0641V11.1619C19.6007 11.3434 19.6143 11.5296 19.6325 11.7112C19.6325 11.7438 19.6325 11.7764 19.6416 11.809C19.6416 11.809 19.6416 11.8183 19.6461 11.8229C19.678 12.0743 19.7189 12.321 19.778 12.5585C19.9052 13.0473 20.1779 13.5035 20.587 13.9085C20.7166 14.0321 20.8462 14.1737 20.9802 14.3201L20.9802 14.3201L20.987 14.3274H14.3783L14.5783 14.0528C15.3874 12.9448 15.6964 11.8602 15.5055 10.8174L15.5101 10.822ZM9.94231 19.8718C9.28781 18.4101 9.13328 16.8599 9.10146 16.2408C9.60597 16.399 10.7513 16.8134 11.7694 17.5535C11.3558 18.3775 11.074 19.2341 10.9831 20.1837C10.6241 20.0627 10.2786 19.965 9.94685 19.8858V19.8765L9.94231 19.8718ZM6.29712 20.1186C6.87889 20.0162 8.67422 19.8113 10.9559 20.6074C10.9422 21.045 10.9741 21.5105 11.0513 21.9946C10.3332 21.9993 9.65142 22.1855 9.11055 22.544C8.66967 22.8372 8.35606 23.219 8.19243 23.6426C7.03797 22.5812 6.46074 20.7331 6.29257 20.1186H6.29712ZM11.0831 26.4264C9.5787 26.3333 8.4106 25.3557 8.47423 24.2478C8.50605 23.7217 8.81057 23.2422 9.33326 22.8978C9.87413 22.5393 10.5832 22.3624 11.3195 22.4136C12.4876 22.4881 13.4875 23.1119 13.8102 23.9452C13.2284 24.5923 12.8921 25.3557 12.8194 26.0773C12.3149 26.338 11.7058 26.4683 11.0786 26.4264H11.0831ZM16.9963 26.9571C15.9646 28.0837 14.4829 28.377 13.692 27.6228C12.9012 26.864 13.0966 25.3325 14.1284 24.2059C14.1617 24.1686 14.1991 24.1355 14.2364 24.1024L14.2364 24.1024C14.2551 24.0859 14.2738 24.0693 14.292 24.0523C14.2988 24.0453 14.3056 24.0395 14.3124 24.0336C14.3193 24.0278 14.3261 24.022 14.3329 24.015C14.3574 23.9925 14.3816 23.9697 14.4057 23.9469C14.4665 23.8894 14.5269 23.8322 14.592 23.7823C14.6011 23.7753 14.6102 23.7695 14.6192 23.7636C14.6283 23.7578 14.6374 23.752 14.6465 23.745C15.6101 23.0234 16.7782 22.9117 17.4327 23.5402V23.5448C17.519 23.6286 17.5872 23.7217 17.6463 23.8195C17.6554 23.8334 17.6633 23.8462 17.6712 23.859L17.6713 23.8591C17.6793 23.8719 17.6872 23.8847 17.6963 23.8986C17.7508 23.9964 17.7917 24.0942 17.8236 24.2012C17.8304 24.2222 17.8349 24.2431 17.8395 24.2641C17.844 24.285 17.8486 24.306 17.8554 24.3269C17.8736 24.4014 17.8826 24.4759 17.8917 24.555C17.8932 24.5714 17.8951 24.5882 17.897 24.6052C17.9012 24.6414 17.9054 24.6784 17.9054 24.7133C17.9054 24.8157 17.9054 24.9181 17.8963 25.0252C17.8963 25.0469 17.8922 25.0687 17.8882 25.0904C17.8862 25.1012 17.8842 25.1121 17.8826 25.123L17.8814 25.1344C17.8772 25.1732 17.8727 25.2152 17.8645 25.2533C17.8554 25.2999 17.8463 25.3464 17.8326 25.393C17.8145 25.4675 17.7963 25.5419 17.7736 25.6211V25.6304C17.6281 26.0866 17.3645 26.5475 16.9918 26.9571H16.9963ZM21.5687 26.3845C21.3642 26.189 21.2279 25.9283 21.1506 25.635V25.6304C21.1051 25.4442 21.087 25.2487 21.096 25.0485V24.9507C21.1006 24.8669 21.1142 24.7831 21.1279 24.6994V24.6993V24.6993C21.1355 24.6485 21.1464 24.6009 21.1577 24.551L21.1642 24.5224C21.1824 24.434 21.2051 24.3455 21.2324 24.2617C21.2688 24.15 21.3097 24.0383 21.3642 23.9266C21.3778 23.8986 21.3915 23.8754 21.4051 23.8521L21.4051 23.8521L21.4051 23.8521C21.4142 23.8335 21.4244 23.8137 21.4347 23.7939L21.4347 23.7938C21.4449 23.7741 21.4551 23.7543 21.4642 23.7357C21.4764 23.7145 21.4886 23.6929 21.5009 23.6712C21.5344 23.6119 21.5685 23.5515 21.6051 23.4936L21.6051 23.4936C21.6369 23.4424 21.6687 23.3912 21.7051 23.34C21.796 23.2143 21.8869 23.0933 21.996 22.9722C21.996 22.9722 22.0005 22.9629 22.0051 22.9629L22.0096 22.9583C22.1278 22.8326 22.2505 22.7162 22.3778 22.6091C22.396 22.5952 22.4096 22.5812 22.4232 22.5672C22.5369 22.4741 22.6596 22.395 22.7777 22.3205C22.7959 22.3089 22.8129 22.2984 22.8299 22.288L22.83 22.2879C22.847 22.2774 22.8641 22.267 22.8823 22.2553C22.9914 22.1902 23.105 22.139 23.2141 22.0924C23.2368 22.0831 23.2607 22.0738 23.2845 22.0645C23.3084 22.0552 23.3323 22.0458 23.355 22.0365C23.4595 21.9993 23.5686 21.9667 23.6731 21.9434C23.7231 21.9295 23.7777 21.9202 23.8277 21.9155C24.3958 21.8224 24.9276 21.9388 25.3048 22.2972C26.082 23.0421 25.9002 24.5364 24.914 25.6583C24.873 25.6816 24.8458 25.7142 24.8276 25.7561C23.8004 26.8454 22.346 27.1294 21.5687 26.3799V26.3845ZM25.6321 25.3883C26.3775 24.1873 26.3957 22.7767 25.5866 21.9993C25.5275 21.9434 25.4685 21.8969 25.4094 21.8503L25.4094 21.8503C26.8093 21.7293 28.1955 21.9807 28.7137 22.0924C28.491 22.7022 27.6819 24.4899 25.6366 25.3883H25.6321ZM24.9095 23.9726C25.0731 23.9726 25.214 23.9167 25.3095 23.805C25.5504 23.521 25.4049 23.0183 24.9731 22.6365C24.7868 22.469 24.5732 22.3526 24.3732 22.3107C24.1323 22.2548 23.9232 22.3107 23.7959 22.4596C23.7096 22.5574 23.6732 22.6878 23.6823 22.8367C23.7005 23.0974 23.8687 23.3907 24.1323 23.6281C24.3913 23.8562 24.6731 23.9773 24.9095 23.9773V23.9726ZM24.1005 22.7297C24.1005 22.7297 24.1459 22.7017 24.1914 22.7017C24.2186 22.7017 24.2459 22.7017 24.2823 22.711C24.4141 22.739 24.5686 22.8274 24.705 22.9438C24.9822 23.1905 25.0549 23.4652 25.0049 23.5257C24.9504 23.5862 24.6777 23.549 24.4004 23.3069C24.1959 23.1253 24.0959 22.9205 24.0868 22.7995C24.0868 22.7809 24.0868 22.7436 24.1005 22.725V22.7297ZM14.1285 27.1758C13.6967 26.794 13.5513 26.2913 13.7922 26.0073C14.0285 25.7233 14.5376 25.7978 14.9693 26.1842C15.233 26.4216 15.4011 26.7149 15.4193 26.9756C15.4284 27.1246 15.3875 27.2549 15.3057 27.3527C15.2102 27.4644 15.0693 27.5203 14.9057 27.5203C14.8466 27.5203 14.7875 27.5156 14.7284 27.5016C14.5285 27.4597 14.3148 27.3434 14.1285 27.1758ZM14.8193 27.0966C14.9193 27.1199 14.983 27.1059 15.0012 27.0827C15.0148 27.064 15.0148 27.0268 15.0148 27.0082C15.0057 26.8871 14.9057 26.6823 14.7012 26.5008C14.4239 26.2587 14.1512 26.2214 14.0967 26.282C14.0467 26.3425 14.1194 26.6171 14.3967 26.8639C14.533 26.9803 14.6875 27.0687 14.8193 27.0966Z" fill="black"/>
</svg>
