<?xml version="1.0" encoding="utf-8"?>
<svg xmlns="http://www.w3.org/2000/svg" width="40" height="40" viewBox="0 0 40 40" fill="none">
<g id="super-food-2">
<path id="Union" fill-rule="evenodd" clip-rule="evenodd" d="M33.1303 25.7302C32.7806 23.7043 32.1156 22.6248 30.7582 21.8887C30.0117 21.4907 29.2091 21.214 28.3793 21.0686C27.3097 20.8873 26.2137 20.9585 25.1751 21.2768C24.1366 21.5952 23.183 22.1521 22.3874 22.9052C21.1409 22.328 19.7762 22.0686 18.4102 22.1492C17.0442 22.2298 15.7177 22.6479 14.5444 23.3678C14.1041 23.6697 13.624 23.9058 13.1184 24.0688C12.5494 17.3533 12.9676 14.3461 13.2213 13.4838C13.9068 14.0026 15.9293 15.3625 17.3758 14.6124C17.986 14.297 18.3013 13.9114 18.3288 13.4908C18.3151 13.2727 18.25 13.0612 18.139 12.8744C18.0279 12.6876 17.8743 12.5311 17.6912 12.4183C17.65 12.391 17.6029 12.3742 17.5541 12.3693L17.3278 12.2921C17.8969 11.7103 18.8155 10.6518 18.8155 9.88775C18.8155 9.2919 18.13 8.35257 16.8342 7.08378C16.6684 6.92428 16.4693 6.80543 16.2519 6.7362C16.0346 6.66698 15.8047 6.6492 15.5796 6.68421C13.9578 6.99076 12.3553 7.39572 10.7806 7.89693C10.4936 7.9871 10.2346 8.15218 10.029 8.3759C9.82345 8.59962 9.67844 8.87426 9.60829 9.17273C8.83359 12.2571 6.34497 22.6248 6.70147 26.7676C6.80731 28.159 7.36134 29.4752 8.27685 30.5102C9.19236 31.5453 10.4177 32.2407 11.761 32.4877C13.2691 32.83 14.8095 33.0016 16.3543 32.9995C18.4484 33.0521 20.527 32.6208 22.4353 31.7377C23.8792 32.8157 25.6323 33.373 27.4195 33.3219C28.8807 33.4095 30.3286 32.995 31.5329 32.1442C33.6102 30.2866 33.4799 27.714 33.1303 25.7302ZM31.0736 31.6676C29.627 32.9364 25.3353 33.2097 22.9701 31.4222C23.023 31.3894 23.0763 31.3571 23.1298 31.3248L23.1299 31.3247L23.13 31.3247C23.2706 31.2396 23.4119 31.1542 23.546 31.0577C23.6085 31.0084 23.6502 30.9364 23.6624 30.8567C23.6746 30.7769 23.6565 30.6954 23.6116 30.6289C23.5668 30.5624 23.4988 30.516 23.4215 30.4993C23.3442 30.4825 23.2637 30.4968 23.1963 30.539C18.9184 33.5813 11.9735 31.9199 11.8707 31.8709C10.6565 31.6549 9.5479 31.0295 8.72165 30.0945C7.8954 29.1595 7.39903 27.9685 7.31162 26.7116C6.96198 22.6738 9.40948 12.3903 10.1979 9.33396C10.2415 9.13975 10.3341 8.96059 10.4664 8.81426C10.5987 8.66793 10.7661 8.55951 10.952 8.49978C12.5025 8.01234 14.0797 7.6191 15.6756 7.32212C15.8102 7.30542 15.9467 7.32007 16.0749 7.36499C16.2031 7.40991 16.3197 7.48392 16.416 7.58148C17.7323 8.82925 18.2054 9.60735 18.2054 9.90177C18.2054 10.4415 17.2867 11.5 16.6286 12.1309C16.39 12.0563 16.1601 11.9552 15.943 11.8295L16.1281 10.3644C16.1577 10.3203 16.1759 10.2693 16.181 10.216C16.186 10.1628 16.1777 10.1091 16.1569 10.06C16.1361 10.0109 16.1033 9.96807 16.0618 9.93547C16.0203 9.90288 15.9714 9.88161 15.9197 9.87368C15.8679 9.86574 15.8151 9.87139 15.766 9.8901C15.717 9.90881 15.6734 9.93996 15.6394 9.98063C15.6054 10.0213 15.5821 10.0701 15.5716 10.1226C15.5612 10.175 15.5639 10.2293 15.5796 10.2803L15.4425 11.3528C15.1534 11.0136 14.9217 10.6274 14.7569 10.2102C14.7234 10.14 14.6655 10.0851 14.5946 10.056C14.5236 10.0269 14.4447 10.0258 14.373 10.0529C14.3013 10.0799 14.242 10.1332 14.2065 10.2024C14.1711 10.2716 14.162 10.3518 14.1811 10.4275C14.4261 11.0909 14.8263 11.683 15.3465 12.152L15.4562 12.2291H15.5042C16.0888 12.5981 16.7429 12.8369 17.4238 12.9301C17.5404 13.0212 17.7392 13.2175 17.7255 13.4067C17.7118 13.596 17.4992 13.7993 17.1153 14.0026C16.0047 14.5774 14.1399 13.3717 13.4475 12.8109C13.4128 12.7482 13.3598 12.6982 13.2958 12.668C13.2318 12.6378 13.1602 12.6289 13.091 12.6426C12.3574 12.7828 11.9187 16.8486 12.5288 24.0758L11.5279 24.4544C11.4607 24.4808 11.4047 24.5304 11.3695 24.5945C11.3343 24.6587 11.3222 24.7335 11.3352 24.8058C11.3482 24.8782 11.3856 24.9436 11.4408 24.9908C11.496 25.038 11.5656 25.064 11.6376 25.0642H11.6924C12.8198 24.8584 13.9033 24.4527 14.8941 23.8655C15.7442 23.2346 19.9741 21.363 23.5734 24.4333C23.6037 24.4649 23.6401 24.4897 23.6803 24.506C23.7205 24.5222 23.7636 24.5297 23.8069 24.5278C23.8501 24.526 23.8924 24.5148 23.9312 24.4951C23.9699 24.4755 24.0042 24.4477 24.0317 24.4136C24.0593 24.3795 24.0795 24.3398 24.0911 24.2972C24.1027 24.2546 24.1054 24.21 24.099 24.1662C24.0926 24.1225 24.0773 24.0806 24.0541 24.0433C24.0309 24.006 24.0002 23.9741 23.9642 23.9496C23.644 23.6898 23.3048 23.4555 22.9495 23.2487C23.671 22.6123 24.5196 22.1446 25.4361 21.8782C26.3526 21.6119 27.3149 21.5532 28.2559 21.7065C29.0232 21.8412 29.7656 22.0965 30.4565 22.4635C31.6357 23.1085 32.191 24.0338 32.5133 25.8634C32.8355 27.6929 32.9726 30.0132 31.101 31.6606L31.0736 31.6676ZM18.6578 29.7329C17.3991 30.2599 15.9882 30.2599 14.7295 29.7329C14.6583 29.7061 14.5799 29.7071 14.5094 29.7357C14.4388 29.7643 14.3811 29.8185 14.3471 29.8879C14.3132 29.9573 14.3055 30.037 14.3254 30.1119C14.3454 30.1867 14.3916 30.2515 14.4553 30.2937C15.1435 30.6053 15.8896 30.7607 16.6423 30.7493C17.4101 30.7481 18.1708 30.5983 18.8841 30.3077C18.9501 30.2707 19.0006 30.2103 19.0261 30.1379C19.0516 30.0655 19.0503 29.986 19.0225 29.9145C18.9947 29.843 18.9422 29.7844 18.8751 29.7496C18.8079 29.7149 18.7307 29.7064 18.6578 29.7258V29.7329ZM30.2182 24.0403C30.2965 24.0259 30.3773 24.0437 30.4428 24.0898C30.5594 24.1669 31.5466 24.952 31.2038 27.9733C31.1955 28.0496 31.1603 28.1201 31.1047 28.1717C31.0492 28.2233 30.9772 28.2525 30.9022 28.2537H30.8679C30.7884 28.2432 30.7161 28.2014 30.6662 28.1373C30.6163 28.0732 30.5927 27.9918 30.6005 27.9102C30.8885 25.3025 30.0863 24.6015 30.0863 24.6015C30.0228 24.5515 29.9809 24.4781 29.9694 24.397C29.9579 24.3159 29.9777 24.2334 30.0246 24.1669C30.0703 24.1003 30.1399 24.0547 30.2182 24.0403Z" fill="black"/>
</g>
</svg>