<svg width="35" height="35" viewBox="0 0 35 35" fill="none" xmlns="http://www.w3.org/2000/svg">
<path d="M23.2127 22.8994C23.118 22.2382 22.936 21.592 22.6715 20.977C22.4433 20.458 22.2934 20.1248 22.0847 19.5609C21.6949 18.4957 21.362 17.4113 21.0872 16.3121C20.9503 15.7738 20.8199 15.3829 20.7025 14.9472L20.9307 15.0689C20.9852 15.0925 21.0457 15.0992 21.1042 15.0882C21.1626 15.0771 21.2163 15.0489 21.258 15.0072C21.2998 14.9655 21.3276 14.9122 21.3379 14.8546C21.3481 14.797 21.3403 14.7376 21.3154 14.6845C20.988 14.0399 20.7238 13.3662 20.5265 12.6724C20.3048 11.4997 20.1353 10.8461 19.4833 10.1989C19.2471 9.9912 18.9942 9.80262 18.727 9.63504C18.577 9.53251 18.3684 9.39794 18.3293 9.35309C18.1525 8.98742 18.0506 8.59116 18.0294 8.18685C17.9316 7.28333 17.6773 6.14913 17.1818 5.89282C17.1065 5.85354 17.0225 5.83301 16.9373 5.83301C16.852 5.83301 16.7681 5.85354 16.6928 5.89282C16.5112 5.98106 16.3625 6.12325 16.2677 6.29922C16.1729 6.47518 16.1369 6.67601 16.1647 6.87323C16.1789 6.96821 16.1985 7.06235 16.2234 7.15517C16.269 7.34741 16.3407 7.66781 16.4842 8.59055C16.4842 8.62899 16.4842 8.67385 16.4842 8.7187C16.5188 8.82999 16.5219 8.94844 16.4931 9.06133C16.4644 9.17422 16.405 9.2773 16.3212 9.35949C16.2576 9.42449 16.1852 9.48055 16.106 9.5261C15.8176 9.71359 15.5677 9.9527 15.3693 10.231C15.0427 10.7061 14.8206 11.243 14.7173 11.8073C14.6716 11.9931 14.626 12.179 14.5673 12.352C14.3441 12.9571 14.0602 13.5388 13.7198 14.0885L13.5698 14.3513C13.5321 14.4176 13.5227 14.4959 13.5434 14.5691C13.5642 14.6423 13.6135 14.7045 13.6806 14.7421C13.7891 14.7791 13.9051 14.7896 14.0187 14.7729C14.1322 14.7561 14.2399 14.7126 14.3326 14.646C14.2348 14.992 14.137 15.3381 14.0327 15.7802C13.7529 16.9651 13.4112 18.135 13.0091 19.2853C12.8852 19.6378 12.7483 19.9902 12.6049 20.3362L12.4875 20.6054L12.3636 20.8809C11.9977 21.7234 11.7773 22.62 11.7116 23.5338C11.5469 24.8314 11.8515 26.1447 12.5723 27.244C13.6415 28.6986 15.5127 29.1663 17.2535 29.1663H17.7621C19.6007 29.1151 21.5957 28.6217 22.6063 26.9812C23.2819 25.7303 23.4962 24.288 23.2127 22.8994ZM20.7221 19.5353C20.8828 19.8348 21.0264 20.1428 21.1524 20.458C21.1782 20.5209 21.1776 20.5913 21.1507 20.6537C21.1238 20.7162 21.0728 20.7656 21.0089 20.7912C20.9767 20.7976 20.9434 20.7976 20.9111 20.7912C20.8593 20.7911 20.8086 20.7758 20.7657 20.7473C20.7227 20.7187 20.6894 20.6783 20.6699 20.631C20.5506 20.3359 20.4156 20.0472 20.2657 19.7659C20.2455 19.7363 20.2317 19.7029 20.2254 19.6677C20.2191 19.6326 20.2203 19.5965 20.229 19.5619C20.2377 19.5272 20.2536 19.4948 20.2758 19.4665C20.298 19.4383 20.3259 19.4149 20.3578 19.3979C20.3897 19.3808 20.4249 19.3705 20.4611 19.3676C20.4973 19.3648 20.5337 19.3693 20.568 19.381C20.6022 19.3928 20.6337 19.4114 20.6602 19.4358C20.6867 19.4601 20.7078 19.4896 20.7221 19.5224V19.5353ZM18.7661 12.1662C18.5328 12.3341 18.343 12.5536 18.2119 12.807C17.9889 13.1662 17.7095 13.4884 17.3839 13.7617C17.2265 13.1167 16.9358 12.5103 16.5298 11.9803C16.4976 11.9405 16.4555 11.9095 16.4075 11.8904C16.3595 11.8713 16.3073 11.8648 16.256 11.8714C16.2053 11.8791 16.1576 11.8997 16.1175 11.9312C16.0775 11.9627 16.0465 12.0039 16.0278 12.0508C15.8127 12.4772 15.5262 12.8649 15.1802 13.1978C14.9868 13.3949 14.7822 13.581 14.5673 13.7553C14.7863 13.361 14.9717 12.9494 15.1215 12.525C15.1867 12.3392 15.2324 12.1405 15.2845 11.9355C15.3738 11.4474 15.5647 10.9828 15.8452 10.5706C16.0112 10.3403 16.2217 10.1444 16.4646 9.99388C16.5886 9.91863 16.7007 9.82578 16.7971 9.71834C16.9406 9.57114 17.042 9.38939 17.0912 9.1914C17.1404 8.99341 17.1357 8.78617 17.0775 8.59055V8.50084C16.934 7.55887 16.8558 7.21925 16.8102 7.02061C16.7843 6.94489 16.7625 6.86789 16.745 6.78992C16.7328 6.71926 16.7384 6.64676 16.7611 6.57867C16.7838 6.51058 16.823 6.44893 16.8754 6.39904C17.0123 6.46953 17.2861 7.11032 17.4491 8.25093C17.4777 8.76779 17.6248 9.27162 17.8794 9.72475C18.0367 9.87059 18.2093 9.99948 18.3945 10.1092C18.6235 10.2582 18.8414 10.4231 19.0465 10.6026C19.555 11.1089 19.6985 11.583 19.9071 12.807C20.0021 13.2175 20.1352 13.6186 20.3048 14.0052C19.7755 13.5492 19.3643 12.9759 19.1051 12.3328C19.0912 12.294 19.0689 12.2586 19.0399 12.229C19.0108 12.1993 18.9757 12.1762 18.9368 12.161C18.8979 12.1458 18.8561 12.139 18.8143 12.141C18.7725 12.143 18.7316 12.1538 18.6944 12.1726L18.7661 12.1662ZM19.3659 27.6541C19.3315 27.6608 19.2961 27.6608 19.2616 27.6541C19.2034 27.6521 19.1475 27.631 19.1029 27.5941C19.0582 27.5573 19.0275 27.5068 19.0155 27.4507C19.0035 27.3947 19.0109 27.3363 19.0366 27.2849C19.0623 27.2334 19.1048 27.192 19.1573 27.1671C21.7652 26.0265 21.6544 24.0208 21.1524 22.0407C21.1454 21.979 21.1615 21.9168 21.1977 21.8658C21.2339 21.8148 21.2877 21.7785 21.3491 21.7636C21.4105 21.7488 21.4753 21.7563 21.5315 21.7849C21.5877 21.8135 21.6313 21.8611 21.6544 21.919C22.1499 24.0272 22.2934 26.334 19.3399 27.6541H19.3659Z" fill="black"/>
</svg>
